<mxfile host="app.diagrams.net" modified="2023-04-09T14:44:58.782Z" agent="Mozilla/5.0 (X11; Linux x86_64) AppleWebKit/537.36 (KHTML, like Gecko) Chrome/112.0.0.0 Safari/537.36" etag="QY64C1kgHDR1qIuwc5DI" version="21.1.5" type="device">
  <diagram name="Page-1" id="EadYg6QKpz7mjujp7nmd">
    <mxGraphModel dx="1050" dy="601" grid="1" gridSize="10" guides="1" tooltips="1" connect="1" arrows="1" fold="1" page="1" pageScale="1" pageWidth="850" pageHeight="1100" math="0" shadow="0">
      <root>
        <mxCell id="0" />
        <mxCell id="1" parent="0" />
        <mxCell id="7yK18cJ6uD8b7xNlzzAk-6" style="edgeStyle=orthogonalEdgeStyle;rounded=0;orthogonalLoop=1;jettySize=auto;html=1;entryX=0;entryY=0.5;entryDx=0;entryDy=0;" parent="1" source="7yK18cJ6uD8b7xNlzzAk-1" target="7yK18cJ6uD8b7xNlzzAk-3" edge="1">
          <mxGeometry relative="1" as="geometry">
            <mxPoint x="240" y="280" as="targetPoint" />
          </mxGeometry>
        </mxCell>
        <mxCell id="7yK18cJ6uD8b7xNlzzAk-1" value="&lt;b&gt;CSV&lt;/b&gt;" style="rounded=0;whiteSpace=wrap;html=1;" parent="1" vertex="1">
          <mxGeometry x="80" y="260" width="120" height="60" as="geometry" />
        </mxCell>
        <mxCell id="7yK18cJ6uD8b7xNlzzAk-8" style="edgeStyle=orthogonalEdgeStyle;rounded=0;orthogonalLoop=1;jettySize=auto;html=1;entryX=0.5;entryY=0;entryDx=0;entryDy=0;" parent="1" source="7yK18cJ6uD8b7xNlzzAk-2" target="7yK18cJ6uD8b7xNlzzAk-3" edge="1">
          <mxGeometry relative="1" as="geometry" />
        </mxCell>
        <mxCell id="7yK18cJ6uD8b7xNlzzAk-2" value="" style="shape=cylinder3;whiteSpace=wrap;html=1;boundedLbl=1;backgroundOutline=1;size=15;" parent="1" vertex="1">
          <mxGeometry x="330" y="30" width="100" height="130" as="geometry" />
        </mxCell>
        <mxCell id="7yK18cJ6uD8b7xNlzzAk-7" style="edgeStyle=orthogonalEdgeStyle;rounded=0;orthogonalLoop=1;jettySize=auto;html=1;" parent="1" source="7yK18cJ6uD8b7xNlzzAk-3" target="7yK18cJ6uD8b7xNlzzAk-4" edge="1">
          <mxGeometry relative="1" as="geometry" />
        </mxCell>
        <mxCell id="7yK18cJ6uD8b7xNlzzAk-3" value="" style="rounded=0;whiteSpace=wrap;html=1;" parent="1" vertex="1">
          <mxGeometry x="280" y="240" width="200" height="100" as="geometry" />
        </mxCell>
        <mxCell id="7yK18cJ6uD8b7xNlzzAk-5" value="" style="shape=image;imageAspect=0;aspect=fixed;verticalLabelPosition=bottom;verticalAlign=top;image=data:image/png,iVBORw0KGgoAAAANSUhEUgAABngAAAMICAYAAADrG+vNAAAACXBIWXMAABYlAAAWJQFJUiTwAAAgAElEQVR42uzdT1Ijx7o34LdPnDl844qK1l1B4xUgA3NzV9DyuAbGK7B6BZYHNbZ6BcZzwOoVGFZgERU1vrACvoGK09in/5RAKlVKzxNB2MdHSFmZWQLypzfz1cPDQwAAAAAAAJCOf+kCAAAAAACAtAh4AAAAAAAAEiPgAQAAAAAASIyABwAAAAAAIDECHgAAAAAAgMQIeAAAAAAAABIj4AEAAAAAAEiMgAcAAAAAACAxAh4AAAAAAIDECHgAAAAAAAASI+ABAAAAAABIjIAHAAAAAAAgMQIeAAAAAACAxAh4AAAAAAAAEiPgAQAAAAAASIyABwAAAAAAIDECHgAAAAAAgMQIeAAAAAAAABIj4AEAAAAAAEiMgAcAAAAAACAxAh4AAAAAAIDECHgAAAAAAAASI+ABAAAAAABIjIAHAAAAAAAgMQIeAAAAAACAxAh4AAAAAAAAEiPgAQAAAAAASIyABwAAAAAAIDECHgAAAAAAgMQIeAAAAAAAABIj4AEAAAAAAEiMgAcAAAAAACAxAh4AAAAAAIDECHgAAAAAAAASI+ABAAAAAABIjIAHAAAAAAAgMQIeAAAAAACAxAh4AAAAAAAAEiPgAQAAAAAASIyABwAAAAAAIDECHgAAAAAAgMQIeAAAAAAAABIj4AEAAAAAAEiMgAcAAAAAACAxAh4AAAAAAIDECHgAAAAAAAASI+ABAAAAAABIjIAHAAAAAAAgMQIeAAAAAACAxAh4AAAAAAAAEiPgAQAAAAAASIyABwAAAAAAIDECHgAAAAAAgMQIeAAAAAAAABIj4AEAAAAAAEiMgAcAAAAAACAxAh4AAAAAAIDECHgAAAAAAAASI+ABAAAAAABIjIAHAAAAAAAgMQIeAAAAAACAxAh4AAAAAAAAEiPgAQAAAAAASIyABwAAAAAAIDECHgAAAAAAgMQIeAAAAAAAABIj4AEAAAAAAEiMgAcAAAAAACAxAh4AAAAAAIDECHgAAAAAAAASI+ABAAAAAABIjIAHAAAAAAAgMQIeAAAAAACAxAh4AAAAAAAAEiPgAQAAAAAASIyABwAAAAAAIDECHgAAAAAAgMQIeAAAAAAAABIj4AEAAAAAAEiMgAcAAAAAACAxAh4AAAAAAIDECHgAAAAAAAASI+ABAAAAAABIjIAHAAAAAAAgMQIeAAAAAACAxAh4AAAAAAAAEiPgAQAAAAAASIyABwAAAAAAIDECHgAAAAAAgMQIeAAAAAAAABIj4AEAAAAAAEiMgAcAAAAAACAxAh4AAAAAAIDECHgAAAAAAAASI+ABAAAAAABIjIAHAAAAAAAgMQIeAAAAAACAxAh4AAAAAAAAEiPgAQAAAAAASIyABwAAAAAAIDECHgAAAAAAgMQIeAAAAAAAABIj4AEAAAAAAEiMgAcAAAAAACAxAh4AAAAAAIDECHgAAAAAAAASI+ABAAAAAABIjIAHAAAAAAAgMQIeAAAAAACAxAh4AAAAAAAAEiPgAQAAAAAASIyABwAAAAAAIDECHgAAAAAAgMQIeAAAAAAAABIj4AEAAAAAAEiMgAcAAAAAACAxAh4AAAAAAIDECHgAAAAAAAASI+ABAAAAAABIjIAHAAAAAAAgMQIeAAAAAACAxAh4AAAAAAAAEiPgAQAAAAAASIyABwAAAAAAIDECHgAAAAAAgMQIeAAAAAAAABIj4AEAAAAAAEiMgAcAAAAAACAxAh4AAAAAAIDECHgAAAAAAAASI+ABAAAAAABIjIAHAAAAAAAgMQIeAAAAAACAxAh4AAAAAAAAEiPgAQAAAAAASIyABwAAAAAAIDECHgAAAAAAgMQIeAAAAAAAABIj4AEAAAAAAEiMgAcAAAAAACAxAh4AAAAAAIDECHgAAAAAAAASI+ABAAAAAABIjIAHAAAAAAAgMQIeAAAAAACAxAh4AAAAAAAAEiPgAQAAAAAASIyABwAAAAAAIDECHgAAAAAAgMQIeAAAAAAAABIj4AEAAAAAAEjMv3UBAAAAsM2qItuPiIMn/2mel/VczwAAKXv18PCgFwAAAICtURXZaUQMm683X3jobUTMmq/zvKzv9B4AkAoBDwAAAJC8qsgGEXEWEaOI2Hvm0/weEZO8rGd6FADoOwEPAAAAkKxm+7VJRLxd4dN+iIixoAcA6DMBDwAAAJCkZiu2aTy/YudrfolF0GPrNgCgdwQ8AAAAQFLWVLXzObcRcZqX9bWeBwD6RMADAAAAJKMJd2YR8abjl/4+L+upEQAA+uJfugAAAABIQVVkBxExj+7DnYiIX6siGxkFAKAvBDwAAABA7zXhzizWd95OG0IeAKA3bNEGAAAA9FqzLdt1RLzuSZNs1wYAbJwKHgAAAKDvZtGfcCdCJQ8A0AMCHgAAAKC3qiKbxmbO3PmaX5tt4wAANkLAAwAAAPRSUyXztsdNnFVFNjBSAMAmCHgAAACA3mmCk0nPm7kXEedGCwDYBAEPAAAA0EfTWAQoffemKrKJ4QIAuibgAQAAAHql2ZrtMKEm/1AV2amRAwC69Orh4UEvAAAAAL1QFdl+RMwjjeqdp+4jYpCX9Z1RBAC6oIIHAAAA6JNxpBfuRNPmqeEDALqiggcAAADoharIBhHxV+KX8b95WZ8bTQBg3VTwAAAAAH0x3oJrmDTbzAEArJWABwAAANi4pnrn7RZcyuvYjqAKAOg5AQ8AAADQB+MtupYfqiI7MKQAwDoJeAAAAICN2qLqnacmRhYAWCcBDwAAALBpoy28psOqyM4MLQCwLgIeAAAAYNNGW3pd46rI9g0vALAOAh4AAABgY6oiO42I11t6eXthqzYAYE0EPAAAAMAmnW759b2timxomAGAVRPwAAAAAJt0ugPXqIoHAFg5AQ8AAACwEVWRHcRiG7Nt96YqsrERBwBWScADAAAAbMrpDl3rWVVkA0MOAKyKgAcAAADYlOEOXete2KoNAFghAQ8AAACwKYc7dr3fVUU2NOwAwCoIeAAAAIDO7XDQMTX6AMAqCHgAAACATRju6HW/ropsbPgBgJcS8AAAAACbMNzha/+pKrKBKQAAvISABwAAANiEgx2//qkpAAC8hIAHAAAA6FRTvbK3491wWBXZqdkAADyXgAcAAADo2kAXRETEpCqyfd0AADyHgAcAAADo2lAXRETE64g40w0AwHMIeAAAAICuHeiC//ip2bIOAGApAh4AAACgawNd8DdTXQAALEvAAwAAAHTtjS74m8OqyE51AwCwDAEPAAAA0JmqyGzP9mnTqsj2dQMA0JaABwAAAOjSQBd80l5EjHUDANCWgAcAAADokgqez/tBhRMA0JaABwAAAOiSAOPLJroAAGhDwAMAAAB0aaALvuiwKrKRbgAAvkbAAwAAAHTpjS74qklVZPu6AQD4EgEPAAAA0Anny7S2FxFj3QAAfImABwAAAOjKQBe09oNADAD4EgEPAAAA0BWBxXImugAA+BwBDwAAANCVoS5YymFVZCPdAAB8ioAHAAAA6MqgJ+24T6jPJlWR7Zs6AMA/CXgAAACAtWtCitc9ac5ZRHyfSNftRcTYDAIA/unVw8ODXgAAAADWqiqyYUT80ZPmfJuX9awqsvOI+C6RLvwmL+trM6nXc3w/Pp4zdRAR/6y8mjdfkZf1TI8B8FL/1gUAAABABw760pAni+ujWCy47yXQf5NwhlFvVEU2aOb0sPnnwTLzqCqyiIjbiJg9fuVlPdezACxDBQ8AAACwdlWRTSPibQ+acpOX9cGTdp1FxM+JdOP3eVlPzaaNzN/9WIQ5w4g4jfVsN/ghIqbGGIC2BDwAAADA2lVFNouIwx405fe8rE972ravuY+IQV7Wd2ZUJ3N2GB8DnTcdvvRtRIwFPQB8jS3aAAAAgC70JUD51Dk2ZxHxZwJ9uBcR46a9rFhVZI9brp1ueL6+johfqyIbRcTI1m0AfI4KHgAAAGCtmoXzvgQo337qgPuqyCYR8UMiXfpNXtbXZtaL5+UgFmHOsPnq41lM9xFx+qk5CwAqeAAAAIB1G/SoLfPP/PdxRIyin4v8/zSJRSDBEppzdJ4GOq8TaPZeRPxRFZnzlwD4Lyp4AAAAgLWqimwcET/1oCn3eVnvf6Gdo4j4NZFuteD/9Xm3Hx/DnGF0e47OyuduRAxVbgHwlIAHAAAAWKuqyM4j4rseNOVDXtbDr7R1Fv05L+hL7iNikJf1nRn2t/EbxsdA53DLLu82Ig6MOQCPbNEGAAAArNtBT9rRpvrhLPpzXtCX7MViW7mzXZ5YzflOw+bruy2/3NfGHICnVPAAAAAAa1UVWV8WH1pta1YV2SQifkike7/ZpW27qiIbxMdA5zTSODNp1f4nL+u5dxYAVPAAAAAAa9NsmdUX85aPG0fEKNIIDyaxCDu2df48nqNz2vzztbsqRs0cBWDHqeABAAAA1qYqsrOI+LkPbcnL+tUS7R5FxK+JdHOryqSE5swwPgY6b9xF/+U2L+uBbgBAwAMAAACsTY+2O7vJy/pgybbPIuIwgW6+j4hBXtZ3ic6Rg/gY6By6a1qxTRsAtmgDAAAA1uqgJ+2YP+N7ziLizwT6eK9p6ziFCdGco/MY6AxjN8/RWcV9NdcNALtNwAMAAACsU18qMq6X/Ya8rK+rIvsl+lGB9DU/VUU27WNVR3OOztNAxzk6L3cQEee6AWC3CXgAAACAtWgqNfri+pnfN47FofYpVJlMYxGgbHrc9+NjmDMM5+gAwFoIeAAAAIB1GfSoLc8KePKyvquK7Cwifk2gvw+rIjvNy7rzyo6qyIbxMdBxjg4AdEDAAwAAAKzLsC8NecnWZXlZT6siG0UawcWkKrJZXtZ363yRqsgO4u9VOs7RAYCOCXgAAACAdTnoSTs+rOA5ziLizwT6/HXT1vEqn7TZbm8YztEBgN4Q8AAAAADrMuhJO65f+gR5WV9XRfZLRPyQQL//VBXZ9CVVS87R6b07XQCAgAcAAABYl76EAvMVPc84IkaRxnZk01hyizzn6CTlWhcAIOABAAAAVq4JC/piJYvheVnfVUV2FhG/JjAEh1WRjfKynn5hjJyjky4BDwACHgAAAGAtBj1qy8oWw/OynlZFNoo0KlwmVZHd5WV9HvGfbddOwzk6qbvJy9oWbQAIeAAAAIC1GPSkHbdrWAwfRcRfCYzBXkT8VhXZ/ZP/TfpmugCAiIh/6QIAAABgDYY9acd81U+Yl/U8It4lNBZ7IdzZJlNdAECEgAcAAABYj4OetGO2puedRMStYaZjN3lZO38HgIgQ8AAAAAAr1pz10peKkfk6nrTZ9u3MaNOxiS4A4JGABwAAAFi1gx61ZW3VDnlZn0fEB8NNR+4j4lw3APBIwAMAAACsWm8Cng62sxoZbjoyaSrHACAiBDwAAADA6vUl4LlZ9wvkZT2PiHeGnDW7D9uzAfAPAh4AAABg1QY9aUdXh9FPIuLWsLNGY9U7APyTgAcAAABYtcOetGPexYs0C+9nhp01ucnLWvUOAP9FwAMAAACsTFVkgx41Z9bVC+VlfR4RH8wA1mCkCwD4FAEPAAAAsEoHPWrLvOPXGxl+VuxdXtbXugGATxHwAAAAAKvUl4DnPi/reZcv2LzeO1OAFbnJy3qsGwD4HAEPAAAAsEp9CXg2VfUwiYhb04AXug8VYQB8hYAHAAAAWKVBT9qxkYAnL+u7iDgzDXihM1uzAfA1Ah4AAABgld70pB3zTb1wXtbnEfHBVOCZfsnLeqobAPgaAQ8AAACwElWRDXvUnE1XP4zMCJ7h97ysVYAB0IqABwAAAFiVQV8akpf1bMOvP4+Id6YES7gJwSAASxDwAAAAAKsy6Ek7bnvSjkmP2kK/3UfEaXOGEwC0IuABAAAAVmXYk3b04nD6ZrHedlvdu4+0zkC6j4hhU/UFAK0JeAAAAIBVOehJO6770iF5WZ9HWmFDiu4j4veI+DEivsnLej8ipgm1/ywv62vDCMCy/q0LAAAAgJeqimw/IvZ60py+LZaPIuIvs2SlPkTELCJm/zxvqZmLk0Su48e8rKeGE4DnEPAAAAAAq3DQo7bM+9QxeVnPqyJ7FxE/mSbPdhOLQOf8n4HOU024M4v+hI1f8j4v64mhBeC5BDwAAADAKvQm4OnpdleTWFTyvDZVWrmNiPP4WKVzt0Q/v0ng+m7ysh4ZZgBeQsADAAAArMKgJ+3o5Xk3eVnfVUV2FhG/mSqfdB9/D3Tmyz5BVWSTiHibwLXeRMTQkAPwUgIeAAAAYBX6UsEz72sH5WV9XhXZh4g4NF3iPpowJxaBzouqrqoiG0XED4lc92iJiiQA+CwBDwAAALAKfQkt5j3vp1FE/LWjc+RDfAx0Zqt60qrIDiLi10T6YNjTLQQBSJCABwAAAHiRqsgGPWrOrM99lZf1vCqydxHx0w5MjZv4e5XO3Rrm3kHfx/yJ74U7AKySgAcAAAB4qUGP2pLCAvokFpU8r7dsHtzGx0DnfN3bkFVFth8R04jYS6BvfsnLeuqtAoBVEvAAAAAALzXsSTvuUzjbJC/ru6rIziLit8TH/ek5Oud5Wc87fv3ziHiTQD+9z8v6zNsEAKsm4AEAAABeatSTdiSz/VVe1udVkX2I/pxd1NbjOTrnm9xurCqyaSJ9dxMRwh0A1kLAAwAAADxbs9Del63GUjvfZBQRf/W8jY/n6JznZT3ryZw7i4i3CYzvbUQMU6gqAyBNAh4AAABgKVWRDSLiNBaVCX06RyapgCcv63lVZO8i4qceNevxHJ3ziJj1LZyoimwUET8nMLz3EXEq3AFgnQQ8AAAAwFdVRXYQi4qT0+hXqPPUPMGunTT9uqk+fTxH5zHQmfd8Dk4SGdfRJrewA2A3vHp4eNALAAAAwH+piuw0FoHOMPob6vxHXtavEu7n3zp8yQ/xMdC5TqSP9mMR4O0l0Nzv87KeegcBYN1U8AAAAAAR8Z9F9GEsQp3TSGMx/dFNqv2el/V5VWQfIuJwjX0zix6do/OMeTlLZD6+F+4A0BUBDwAAAOywZvH8MdD5LuFLmSc+FKOI+GtFz9Xrc3SeYRoRbxJo5+95WY+8qwDQFQEPAAAA7JiqyAaxCHRGkcbCeRtJn3eSl/W8KrJ3EfHTM749mXN0njFXp5FG8HjT3E8A0BkBDwAAAOyA5oD6x0qdN1t4idtwoP0kFiFBm/OOkjtH5xlzdhQRbxNo6n1EnG5BpRQAiXn18PCgFwAAAGALVUU2jI+hzustv9z/2YbKlWbM/vjE/5X0OTor7Ie+uY+I4baGbAD0m4AHAAAAtkhVZI+BzmmkcSj9SuRl/WqLxnAYEcPmf85jEerc7dAcPohFmJXC/P0+L+updx4ANkHAAwAAAAmrimw/PgY6w9ihUOeJD3lZD82GrZnP15FGxdmPeVlPjBoAm+IMHgAAAEhMVWSDWIQ5p5HGAfTrNtcFWzGv92NRuZNCuPNeuAPApgl4AAAAIAFNqHMaEaOIeKNH/sb5J9thksjcvsnLemS4ANg0AQ8AAAD0VHMWySgW1TpCnc8T8KQ/18cR8TaBpt7Ex/ORAGCjBDwAAADQI1WRDePjmTqv9UgrAp605/woIn5KoKn3ETHKy/rOqAHQB68eHh70AgAAAGxQVWSPgc5pROzpkaXc5mU90A3Jzv2DiPgzkeZ+k5e1MBGA3lDBAwAAAB1rDpM/jcVWT0Kdl5nrgmTvg4OImCXS3O+FOwD0jYAHAAAAOvAk1DmNiO/0yMrMdEGy98M00gg3f8nLemrUAOgbAQ8AAACsSVVkg/hYqSPUWY+5LkjSeUS8SaCd7/OyPjNcAPSRgAcAAABW6EmoM4o0FrBTZ9us9O6RaUQcJtDUm4gQ7gDQW68eHh70AgAAALxAc5bI4/ZrQp0O5WX9Si8kda+cRcTPCTT1NiIO8rK+M2oA9JUKHgAAAHiGJtQZxSLUea1HNuKDLkjqnhlFGuHOfUScCncA6DsBDwAAALQk1OmduS5I6t6ZJNLcUV7Wtv4DoPcEPAAAAPAFVZE9br12GhF7eqRX5rogiXtoPyJmidw/3+dlfW7UAEiBgAcAAAD+QaiTDFUW/b+XUgp33udlPTVqAKRCwAMAAAAh1EnQjUqLJEwj4k0C7fw9L+uR4QIgJQIeAAAAdlZVZIOIOIvFuTpCnTTcRMREpUUS99c0Ir5LZE6NjBgAqXn18PCgFwAAANgpVZGNYrGge6g3kvB7RJxHxHle1ne6I5l77NcEmnofEQd5Wc+NGgCpUcEDAADATmjOAhnFomLntR7ptftYBDqzEOqkeK+dRjrhzlC4A0CqBDwAAABstSbYOWu+bMPWX7fxMdBxtk6699tBLM7dScFZXtbXRg2AVAl4AAAA2FrNNlHjULHTV7exqNSZWmjfivttvxnPFILUH53jBEDqBDwAAABsnSdVBG/0Ru/cNGMzE+ps1T23H4sKrBTC1Pd5WU+MGgCpE/AAAACwVaoim0TED3qiVz7EorLj3HknW2sSaQSqH/KyHhkuALaBgAcAAICtoGqnd36Pj6HOne7Y6ntvEhFvE2jqTUScGjEAtsWrh4cHvQAAAEDSqiI7jUW4s6c3NuY+mkAnFtuvCXV2494bRcSviczPoW0BAdgmAh4AAACSltAC8za6jcW5K+d5WZ/rjp2794YR8Ucizf1GuAPAtrFFGwAAAMkS7mzEbSyqdKYWzHf63jto5kEKvjdXAdhGAh4AAACSJNzp1E0stsCbWSinKrL9SGdLxHd5WU+NGgDbSMADAABAcpozd4Q76/UhmjN18rKe6w6emEXEmwTa+T4v67HhAmBbOYMHAACApFRFNoiI60ijeiA1v8fHUOdOd/CJ+28aEW8TaOpNXtYHRgyAbaaCBwAAgNRMQ7izKvfRBDqx2H5NqMNnVUU2jjTCnduIGBoxALadgAcAAIBkNOfuHOqJF/lPqJOX9bnuYIl776dE5vepsBKAXWCLNgAAAJLQHOw+D9U7z3Ebi1Bnmpf1te5gyXvvICL+TKS53+ZlPTNqAOwCFTwAAACk4iyEO8u4iY+VOkIdnqUJd2aJNPd74Q4Au0TAAwAAQCpGuuCrbmJxRtF5XtZz3cFLNFVz00gjWP0lL+upUQNglwh4AAAA6L2qyE4j4rWe+KTf42OljnNHWKXziHiTQDvf52V9ZrgA2DUCHgAAAFJwqgv+4z4WW2YJdVibqsimEXGYQFNvYrF9IwDsHAEPAAAAKRju+PXfx8dA59x0YJ2qIjuLiLcJNPU2IoZCTgB21auHhwe9AAAAQG8154D83w5e+m18DHVmZgId3W+jiPg1gabexyLcuTZqAOwqFTwAAAD03cEOXetjqDO1cE3XqiI7iIhJIs09dY8AsOsEPAAAAPTdYMuv7zYWi+rneVnPDTebUBXZIBZnO+0l0NzvVbUBgIAHAACA/hts6XXdR8RZXtZTQ8wmNdsgnkca4c579wwALPxLFwAAAMBG3EXEflM5AZt0HhFvEmjn73lZjwwXACwIeAAAAGAzXkfEzxHxV1Vk51WRneoSulYV2TgiDhNo6k1EjIwYAHxkizYAAAD6br4D1/hdRHxXFdltREwjYuo8HjryUwJtvI+I07ys7wwXAHykggcAAIC+m+/Qtb6OxYK7qh7WriqyYSJNFXgCwCeo4AEA6NDx0ckg2h8WPr+8upj39DqGK3ia3l7fqq798upilvBc3Y+I04g4aL4GsVh4/qf7iLhuvmaXVxfnG2rvQUTsdzkmS9zP15dXF3d964sXuru8urjucIjnsZtU9bBu14m0U+UOAHzCq4eHB70AANCR46OTeXx6kfxT3l9eXYx6eA0HEfHnip7uPiJmETHdVDCw5LUPI+KPJb7l25RCnibUGTVfb14wpucRMe4ywDs+OrmLiL2vPOzm8uriYIWvOYsW51ZcXl286ngcr2P9h6V3/v5UFVmbMd4Fv8ci6DnXFazo3jqPRZjYZ+/zsh4ZLQD4O1u0AQB05PjoZBTtw52I9pU+XVtlu/Zisaj02/HRyfz46KTvWxGNN9hX65ybg+Ojk2ksqiR+jpeFA3sR8TYi/mrCwC7avx/tFv7nK37pNtd3u4EhfdPBa2ziU/8zP0kiHt8zqyKbV0U2ropsoEt4oUkCbTytimzfUAHA3wl4AAC6M17y8Yc9vY51Ldq/jkXQM+3jRTfh02FP+mpV17R/fHQyjoi/YhHKrLo6Yr9nc/J6lX3Xsr+uOx7TrubcJgIeFSv//Z7prB5eLC/rWUS873kz9yKNIAoAOiXgAQDowPHRyVksV73z+H19DAiGa37+tz0NeZ6zsHTQ4zk5jMUi/U/reo0Ot6drOydXGUocbOA12xh09DoCnn55WtUzUdXDM4wTaONbcxsA/k7AAwCwZs0n/cfP/PZBDy+piza9bSpL+jKGo3hGQBc9DXiavv3jmdcUCc/JXQh4uphz95dXF50feJ6X9V0szp/h815HxA+xqOqZVUU20iW0vL/m0f8qnog0gigA6IyABwBg/c7i+Vtf9TEg6CoU+On46GSw6Yt9YUC314dreHotx0cn57HGqp0nPnR4aa36+PLqYr7C12x7b847HuZhB69xvcFpbIum9g4j4teqyO5U9dDSOIE2quIBgCcEPAAAa9SEA2cveIphz66n6/aMe3DZz9pe74lBj+biLBZbOW2bNmcjrTpwajWul1cX27hF22xTA92cFfIhWMZeqOqh3f01j4h3CTR1arQAYEHAAwCwXpN42cH1g55dT9cVRW+bYGIjVhDQRfQgpHsS7rzp8GVnHV3bprZK20So1EYXFXbzDU/psR8tL5q3qnr42u8t932fx1WRDQ0VAAh4AADWptma6+0Ln+b1JgOOTxhs4DWHG7zel2yv96gP2+xN4+Xhzk0sAounXynNyfkK7+1ebs/WYYXdfJMDropnJVT18Ln76y7S2ApxbLQAIOLfugAAYG3GK3qeg9jglkifaAC7CNIAACAASURBVMtXXV5dvPrUf28Wxk9juTNgDiLivOsLbQK6sxU81WCTA3Z8dDKO52/L9nsswqHZ5dXF3RfGdNR8PQ3DZn2ak7HaCp62Yzrv4/0ZEd9fXl1ME39/HTVjuhe81GEsKiImzf0+abbqYndNYjUfcFjrvK2KbNgEvgCws1TwAACsQbPo/XZFT3fQo0tr05abz/0fl1cX15dXF+OI+HaJ1xxs6FrHsZrFrTcbnIfDWC5Me/Q+Iv7n8uri9PLq4vxz4c6TMT1rxuldT+dkxGoDnravOeu4LwYb6IuNaAKIsZ82K6Wqh8f76y5W8wGHdZsYLQB2nYAHAGA9Vrno0IuAp9kqrk3gMf/aAy6vLmbxhSDoHwYbuNZBrC6g63LrrH+O13TJb7uPiG8vry5Gl1cX82W+8fLq4u5JeHcf3YUIbe6P2y+FVGu8J7sOUtpW2CUf8ERE5GU9iUWVGav39KyeaVVkB7pkt+RlPY2I2543840gEoBdJ+ABAFixZjH/sOXD2xxkPOjJpa16Ufu8x8O46k8Fb2IMzyLi9RKPv4mIQRO+PVvz/cMVBypf0uYa5xu4F+477INl2nUT22UU/V+ETtleLMLuP6siu66KbFQV2b5u2RljbQSAfhPwAACs3rjl4z5Euy2cDntyXcOWj5ulPHhNQNf2zJofWz7uoONr2I/ltte5iRWGMl1ViCxRGbXqOdkmVLrueMwH0a7Cbiuqdx41W0mdRruwnJd5ExG/RsRcVc9uSKSK57UqHgB2mYAHAGCFjo9OTqN9IDOOloutzZk+mzZo+bj5ip9v1vF1jls+7vby6qJtpU/X47fM4di30W3FzSbm5PUK7/Fh16+5ofszGXlZX0f7AJqXU9WzW0YJtHFsDgKwqwQ8AACr1XbB/0OzlVXbReBkAp4lzm4ZtnxcZ8HDktvrjR/Hsk/j94zqndNEw51l+nW+gdfsOuBpez/NtvGNtwl5vvcjqHOqerZcXtazlj/nNun1kj/3AGBrCHgAAFbk+OhkFO3PPBk3/2y7sD7owSW2CT4+rKGvulwobxvQ3V5eXUybf5+3ePxes4VWF06jffXOu662U1uTVovJK77GtuM477gvBj28nzrVbCcl5NkMVT3bbZxAG8/MOQB20b91AQCkp1koHjz5T/MlqiZYz5jsxxJn7zweZH95dTE7Pjpp8z3DDV/fyqoWmudqG6TcP/ZVB9c4isWn0dt4OtZt771BdLPof9q2b5cYh75qMy/vj49Oxl33b1fzdsm+iIg4a/me80/TFH7O5GU9rYrsOhaVSnvBJjxW9UyqIjuPiElTYUWi8rKeVUX2IfpzJuCn7MWiimdsxADYJQIeAOiJZmuo/Vgs0j3+M5p/7rX4/n/+p5tYVIfMm6/riLgWBK3NWSxfvfPotsX3bnrbm0HLx82/MEf3Y7GX/zjaL7yed3iN45aPe1q9E7FYSP6pxfcNY83bYzV9/F3Lh08S3prt8VrbzKO9luOzSps4lLxtOPncvpimMjfysr6uimzYvH+8DjblsarnbVVkN7EIlM/zsr7TNUkaR8Qfff9drCqyiTkGwC4R8ABAx5pFyYNYLPYeNF/rWIB6XOw7/Mfr38ci7JlFxGwDnzLf1jFtu/f7h0/0+bzFHNg7PjrZ3+CCfNuAaXR8dPK5CofnfPJ32tEYviSgu1txH77EsG9924M5uQmdVissUWH3bKl9OKAJeQ6aef5dsGmPVT2/VkX2S17WzktJTFPF8z4WoV1f7cUiSBwZMQB2hYAHADrQLHgPm683G27OXiwW2g8j4qcm8DmPiPPLq4tzo/UsZ9G+ImX8if92He3Cj4PY3AHpbReQVzm/P3QRQC65vd4/q3fi8uriuuWWV4MejdPNFlTzDXvctq63o1r33PqQ4gRpPsV/WhXZWUT87EdVL9xE+uHyLhtHvwOeiEXF2Dgv67nhAmAXCHgAYA2aBePT5qvvnxz+zxYqT8KeSeIHr3c51oN4WfVORPtzWYbR/4BnlUYdvc5LA7qIxaLl18KtLsLdYcvHbUOYO+hx26637P6cpzxR8rKeVEU2i0Ww8CbYlF8iYmz7rKTvpXkCVTyPP6tHRgyAXfAvXQAAq3N8dDI6Pjo5j4j/i8VWJKltC/MY9vx5fHQyaw6d58vG8fJwoO1i8GCD19n1ORY/dlFhsuT2ev9VvfPEXcvXG/Zk3m5DgDvocdvmHb/e0Hz5srysr/OyPoiIHyPi3o+uTt1GxLd5WZ8Jd7bm956+e1sV2cBQAbALBDwA8ELHRyeD46OTyfHRyV2kGep8zmFE/Hp8dDIX9Hx+7KP9p1i/tN3YvOVzHGzoOocdv+T7y6uLSUevNY6XB3QR7SurBh3ct21swyLrYV8btoEKyHXPq62p6MzLetL01y9+inXiXV7Wg7ysZ7pia+6heUS8S6CpE6MFwC4Q8ADAMx0fnQybap2/IuKHaL9InJrX8THoGRr5v1lm8WD8uf9jiUqVTW0tNOjwtd5fXl2MOrqHB82928aXqncieh7SbeH7b5/7cRPn1ay7wm6rtuzMy/ouL+uziPifiHjvjlqLm4j4Ji/r8Qvu89Hx0clYV/b295++V8J9VxWZ31sB2HoCHgBYUhPszCLij9ieap02XkfEH83WbQPz4GS4xPh/qXrnP49p+bqbWNju4jXvI+L7rsKdxniFj533qC93QZ/fg+ZdvlgHwfv95dXFVm6rlZf1PC/rUQh6Vv1e/i4v64O8rK+fOacPjo9OrmNRFT3Upb28d+4ijQqZsdECYNv9WxcAQDvNwvokerwtUEcOI+L6+Ohkcnl1sct/OC9z7YMmFPyStgv/B7F9B7i/j4hxF2fuPLmfB7HcIdGjFW1VKOBJY06+xHzL+uJ62ydTs+XUqCqys1icyXUW21uVu04fImLU9Odz35vHEfHTk/800629NUngXjmsimxoi0AAtpmABwC+ojmEfRLLLQZvu72I+Kn55Pioy4X5nsyJYSwX9L2O1W2hNNjAJa9jAfk2Is4jYrKh+TNd8vGrCnb3jo9OBj24Z4aR9sJpqzl5eXXxaoX3/Tj+vvD8OV33a9v3hG82cDZQUpqqhHFEjKsiGzX//lrPfNV9RIyb841e8nN1qr/Tul+qIpu0fF/cpHGoBANgiwl4AOALjo9OzmK5Q9h3zWM1z9lXzifZNpvclmTY8T2w33L+38bnKxfu4mMVwHVEXG8y4HhGQLdqg1hflcdNtDurKfVKooOWc7Lr14zoaYWdcGc5eVlPI2LanOExDtW7n/N7RJw9t2qn+Rkzjs+fhzbTxb2+Tx7D0D4Hc4dVkY2aexoAto6ABwA+odmObRqbO9Q+JXsR8evx0cnB5dXF2Q7MjdGG58VBT19vmtCWfZtu5zDWt2jZ9qyU746PTvYTPlulzWLifAP3wibOq2nTrg/BszRbOw2rIhs07x2qeZu5Hovt2M5f8PN0GF+v2rnT1Un8TP01gTZODRUA2+hfugAA/q7ZhufPEO4s64fjo5NZ82ncbTbe8OvvddzHw5aPmyVyf5/G5j+Jv86QbplxSDKQbRaFNzEn24RK1x33xSDaVdjN/Yh6mbys53lZjyLi/0XEu1gEHLvq94gYPDfcOT462T8+OjmPiD++dl+pPEvi3pjG6ismV+11U2kEAFtHwAMAjeOjk8Hx0cks+r+XeJ8dRsSsqYDaxjkyin5sQ9Jl/w5aPm6eyDBOetCGwRqfe5nF0LMmIEhN53NyiVDpetv7YtflZX2Xl/U4L+v9iPg++r+wvUq3EfFtXtanzXlFz7mXTpv5+F2Lh9+bcckYayMAbIaABwDiPwsO12GP/VV4E1sY8jRVM5OeNGfY4WsN2jxok2fqLDGGo+hHQLfO6sDZEo/dixVtWdN8In/QUf9t4iycwQZec5XvBbNg5fKynuZlPYiIb2P7t8H7JSIOmi3rnvMe8fghmt+i/bmGqncSuhcSuAdeV0V2ZrQA2DYCHgB2XrMl2zILDnzdXmxfyHPWozky6PC12oSeqSxsjnv0vjNcx/M257/8vsz4Hh+dTFdwLfMO5+VBy77YRMAz7+l7wTxYm7ysZ3lZDyPifyLi/ZZd3k0sqnbOXlC1cxbP+xCN83fSMk6hjVWR7RsqALaJgAeAnfVkD3hbsq3H1oQ8TfVOnz71edDRdW+iUmJd1zKOflTvPBqs8bmnSz7+7fHRyfWyFTjHRyfD5hP5fzT3+7xH8/9mxa85bPOgy6uLWQ/fC+5TqLDbBlt4Ts+7vKxXUbXzczzvAxIqeNKa/7Po/wc+9iLR8+cA4HP+rQsA2EXNgv0s1rtVEh9DnmHiByWPo/3i1Id4/nZIg4h42+JxXc3bQcvHzRO435dZ0Hn3gpcbRrtPqa8tpLu8ujg/Pjq5jeUCrTcR8dfx0cn7iJh+LqhoqnWGEXH6z3nYRYjQjOXeBuZkm/HaxFksbd4L5i+sGLtuKsNoqal0GceiWmDU/PvrhC7hJiJGeVlfv+BeHcfLP0AzN5uS/H3pj5638awqsslzK9IAoG8EPADsnKYq4TzSWmxJWdIhT1PV8MMS3zJ6yUL38dHJ27bzuIP+3JYKnmW213t/eXUxfsH4jWPDAc+Ta/7tGd/3NhYVPRF//yT2fnw5TOgq3Oh8Ti4RKnV6HyxRYfcmXrbg+m04w+fZmrNJplWRDWOx+N3ns/7uI2Kcl/XkhfNyGqv5IMLcDEpuvs+qIvvQ83n+WMUzNmIAbANbtAGwU5qFh1kIdzbxx/R5s1CammUWAN6toIqh7UJ5F9u0JR/wNAHd2ZrG+1NmfRi/y6uL83j5VjmHT76+tlg772hIhyseh5Tvg0FHr2ObrBVI4JyeDxFx8Nxwp9n2dhIRf8bqqkznZk6SRgm08awqsoGhAmAbCHgA2BlPwp09vbERr2NRybOf0JwZRLst0yIWn3yerOBl5y0fN+igC1ptS9Xz7ZvGsVz1zvyFr9e2L/aWPfPmGU6juzNAupoDgxXfR6u6DyK6D0K6CHlvbc+2Wj08p+c+In7My3qYl/Wz7ptmC8DrWK7a9aucHZXuHI9+hph/+xkcKngA2BICHgB2gnCnN97EakKQrkyXeOxkRQuhbReJhx1cf5tKt3mP7/tBtA/oIlaw2LPktnmDdV5/Mx9PO+rursKNQctrX+W8bBukdH0vdPEe0Nv7O3V5Wd/lZT3Oy3o/Ir6PzZzh9HtEDFZQtfNHrL4y+tYsSdo4gTa+VcUDwDYQ8ACw9YQ7/fuD+vjo5CyBeTOM9nvIr6p6J6J9JcRBB9ffxqzHwzhe4rHvVxgKtF2YHK67Ay6vLmaxWDxet66qPNrckx9W/JqDln29jVu09fn+3hp5WU/zsh7E4ryjDx285H1E/G9e1qfPPWj++OjkNBYB4A9rauPczEh6Ts+j/1U8y/6eAAC9JOABYKsJd3rr5yUChBT+6J+scBujWcvH7a15u7tBy8fNe3rvD6Pj6p1n9EkXW2zF5dXFNCL+N9a7FdR1B2O6qa3SNhEqtdHFWXK9vL+3VUfn9DxW7Zw/8z7cPz46OY+I39b8u5Wzn9I3js1vQfg1qngASJ6AB4Ct1Sx+z0K401fnHZxB8ty5cxqbqd6JWG5BdZ0BQV/PHWlrvMRj3694S69Zy8d1Nv8vry7OY1ExdJPwe8ZgDffQ194LOn/Nlu0advRS86Bzazqn5zYivn1h1c6omRPfddANzn7agnkcaWzLOzVaAKRMwAPAVhLuJGEvIs572rZlFiRWWb2z7NkhwzX2wUHL9l738P4fRvuALmL1W7S0nQ9vuuyXy6uL68uri4OI+DFW+6nq22YruHXbROg4aPm4ecfTvKvqr1mwMY/n9DTz8CXn9PwSEQd5WT9rPI+PTgbHRyeziPi1w9+rVPBsh0n0v4rnsCqyoaECIFUCHgC21Xl0vHjKs7xpDmjujeYTym23Plp19c6jtlUWgzV2xcEK29m18RKPfbfi6p2IJRYmN7FV4eXVxaSZOz++YAzvY7GF1P9eXl0MOmr6JgKetuMz63gYu+jzlKu9tkoT9Dye0/O/0X5LwMeqnbMXVO2cNffUYceXrYJnS+ZupFHFMzZaAKTq37oAgG3TBAaHeiIZPxwfncyaLaT64DoWB123cbfK6p0nRhHR5nyddS6AnW749V9ivOR4b3IObeRT6s28nUTEpNmGbNh8DWIRpPzzU/ofmvG+jojZhio7xtFioXDF9+Q02oU3XY/jNNZfAWmBvYeas3POqyI7iIiz+PxZY+8iYvKCYGfQzLON/D6lemyrTJq52ueq+sOqyIbPrXIDgE169fDwoBcA2BpN9cWveiI59xFxsIZKCgDYWs0B8WfxscJtHotg59mh4/HRyTgiftrkdV1eXbwyuls1T88i4ueeN/NDXtZDowVAagQ8AGyN46OTg3DuTspumvNBAIDN/B41jc1vcfvh8upiuAN9PV9TFXAvVUU2j/Zb4G7K93lZT70bAJASZ/AAsC1/KO/HYrsa4U66enceDwDswu9QTdXOn+H8wi76+/EDSbv2oZaxNgLA6gl4ANgW0+j/pwL5uh82ceg8AOyi5mfudWx4S7Z/mG1xfw/iY7X5TgU8TWXMbc+b+boqspF3BgBSIuABYBv+WB5FxHd6YmucNxVZAMB6fnfab6pm/4j+fUDmblv7PP5ebT5o+71VkZ1WRbYNvxuNtREAVkvAA0DqfywPIsK2XttlLxYLIADA6n93GsaiaueHnjbxegv7fD8WlTtPt8BbpoLnt4j4v6rIrqsiG1dFlmT1T1PFc9PzZr6uiuzMOwUAqRDwAJC6aTh3ZxsdNucBAAAr8qSKpM/b2m5jBc80/vt8o8NnPM+bWGyn92dVZHdVkZ1XRTaqimyQUF+kEJ6Mt6RiCoAdIOABIFnHRydnz/zjmDTMdQEArNQ4ev7BmMuri62q4Dk+OpnGZ7YSbirR2/jU2TV7zfP+GhF/VUU2r4psUhXZaZ/7Iy/rWUR86Pmw7UUaQRQACHgASPaP5UHYI3tb3UbEN5dXF1NdAQAr9UPP23e/Zb+vTiLi7RceMmj5VPMWj3ndjO9vVZE9VEU2q4rsrKfbuaXwO/yZKh4AUiDgASBV07A12zb6PSIOtu3TuwCwacdHJymc23K9Rf09iq8HasOWTzd7RhMOI+Ln+Lid27TZzm3joYUqHgBYHQEPACn+wXwatmbbNvcR8f3l1cXp5dXFne4AgJVLoRphviW/q45isXXa1wxaPuVLg6+9WFQS/RoR/1cV2XWzndtwg92UQnhyltj5RgDsIAEPAKn9wbwfERM9sVVuImJoSzYAWKthAm2cb8HvqsNoF+5ErHaLtmW8iUV10R/Ndm7nzXZug676KS/r64h43/Ph3AtbQgPQc//WBQAk5iwWe4xvg5uIOI/FpzLnn9uWrDlvaBCLhZmD+MxBvYl6HxFnqnYAgEg84Gm2wTtf4ltaVaTnZX1dFdk6m/5d8/VzVWS3sdgS7jwiZnlZr/N3tHF8+YyiPnhbFdk4L+u52xOAPnr18PCgFwBI5Y/m/eYP/5TP3rmNRQXS9CWhRrNN3SjSDXvuYxHsTM1sAOjk96hZ9H+L228vry5mifbvQSyCkWV/T/2mzdmDVZFdx6LypmuPH0g6b6puVqoqsmn0P+R5n5f1yLsIAH2kggeAlJxFuuHOTSwCjdkqnuzy6uI8Is6b6p5xAn8Y/7MvRm0WMwCAlUnhDJ4kfzdoPoQ0febvqYOW1z2PzQQ8b5qvn6oiu4+/V/fMV/D8Kfweq4oHgN5yBg8AKf3hfJZg0+8j4sfLq4uDdXwi9fLqYn55dTGKiG8i4kMC/fE+FuftCHcAoFtv+t7AFLdsbX5Hnb2gfw9aPq4PvzvtxaJ6/NeI+KsqsnlVZJOqyE6f+4RNaPIugaGeegsBoI8EPACkIsXqnZuIOLi8upis+4Uury6uL68uhhHxY0/74j4ivr+8uhg5bwcAutWEECn83pSi83hZeNY24Jn18NpfR8QPEfFbVWQPVZHNqiI7q4rsYMnnmTS/K/bZYVVkQ+8mAPSNgAeAVIwSa+/7pmpn3uWLNmHSNz37I/kmFlU7U9MYADbiIIE2pli9M42Xn2s0aPm4eQJdchgRP0fEn1WR3VVFNq2KbFQV2RcDxrys72IR8vTd2FsJAH0j4AEghT+eT2PxCcFUvG+2TduIZvuzQfTjk7C/hC3ZAGDTBgm0ManfFZpwZxVnx7Sq/knw/Jf/z94dJLdxZGsDvf2i5+QbOxTEWwHZKyAawFzsFQgae2D2CgStwPRAY0EraGoOwOAKmlxBg+HQ+CdX4H+AhEWrKYkgCkBm1jkRCss2BVVl3UoA+VVmHqT2eR8R/++3H3+4Tsu5db/y82bxAMAzCHgAKMGwoGPda7izkpZB68b+Qp77iPjHdDY5tyQbAOxdp4BjLObzQr83GEYz4c7q9Z46w+qq4Bo8juVybr+m5dwu03JunQizeADguQQ8AOT+Bfowlpu5liCLcGdljyHPau+hSxUMAFnoFHCM80I+mw5jOStlH9dnUVFNvozlcm7/+e3HHxa//fjDuJDzO/3txx+GAQCZEPAAkLuzQo7zJiLOczuoPYQ8v+xj7yEA4Js6mmBz/d6gG82HOxFP3yOp1iVvj+Lzcm4lGLkbAMiFgAeA3JUS8GS7FFk6rmFsd13zP5ZkU7IAkJ2T3A9wOpvMcz6+tIza5Z6vjz0N83BkFg8AuRDwAJC7EpZn+5D7oMR0NrmO7YVllmQDgLwdaILnS+HOfIvt2Hnizwl48jHSBADkQMADQM5fpruFHOq4hINMIdTbhl/WkmwAkPfnqZMCDvMq4/Y7jOXMnW2GZMdP+aEX7z7dxXZnZPN0R7/9+ENXMwCwbwIeAHJWwpem29xn7zw0nU1G0cwgiiXZAKAMhwUcY5bL3KZwZx7LPWK2/Xc99XOvWTz58DkYgL0T8ACQs24BxzgvsF2HsdnTn1dhSTYA8HmqObmGFvN44uyaBnQKb6s2evnbjz90NAMA+yTgASBnJSwpUtyX7LSc2uiZf/ztdDbpWpINAGhQdjN4+r3BOHYX7kQIeEp1pgkA2CcBDwBZ6vcGnShjQ+Aiv2RPZ5OLWG+ptvuI+Hta4g0AKEfX56m1P4eOI+JVptdpoaSzMtQEAOyTgAeAXHU0QTZfSK8iolPSXkMAwB9K2INnkcuB9HuD89h9uPPkz74v3n3yeSwvx7/9+MOhZgBgX/6qCQDI1Ikm2K7pbLLo9wZvI+LNN37srVk7ZUqz4DrpXx/+/nvu4vOT1HfT2cRSMORe690H/3r4xPeP6/i8JNTCspNU7jj3A8zlHuz3BsOI+HlPf/3RGj97u+bPs11nETHWDADsg4AHgFyV8iTcSSw34C3SdDYZpcGMLwcJ7iPizKydvKWB7U76dZLum9OG/45VPVzH8gnrRar56+lscucqsIM6P3lQ450Hv44arvOI5YzFVch5HcvwR8hJyfdPCZ+nbjNpq7OIeL/v9/UnfvZahIAnt+8DALAXAh4ActXxhW5nhhHx64N/v4pluGPwPiMpzOmmmjuJ3Q7sHMQyOFqFR2/SMd3GchB8HhFzA+E0VOcnD37teubBqsZfPjimVb/4sNb1j5SihM8piwz6npPIYwbGUx8cmkfDD3TQ+u8DABRKwANArjqFHGe39Iaezibzfm/wMZYDmpZky0R6kribfuW6vM5R+vUyHfN9RFzGcuDp0iA4T6jz7oM6z3mwchVw/pSO+ybV+qVgk8zZf+f7/dAqVDko6PPvQmln9x4BAHsh4AGAzRytsZxGzoYRcWJJtv1Je+asQp2XhZ7GQSw3pn4VEe9TcLgaBBf2sFou6uxBrR8UeirH6debNJPtMiLGwp7qanWfT+U3tQeaGTzfv87zjPqik9zbDADIi4AHADY3jIL34YmISIPvc5dytx6EOsMoYBPsZ3iZfl30e4PVALg6a1+dPwx1XlZ4ikexnNnzUwp7LmIZai5c/SJqsxuflwRsfB+zDVxFM7OEOwVcius9Xv955BU0PyngefHu0/y3H39wE2fktx9/6L5498lnHAB2TsADAJt71e8NDFzzJA8Gu8+jzlDnMX/M7EkD4KPpbDJWDdXX+iq8fNmi0z6KiJ8j4ud+b/AhhJq51mU39cM5b1Lf1KzHTgGX5W4PdbAKd3J7Hz7o9wadJwbEt5nXMACwAwIeAGjGRVqqzTJUPCqt8X8ey0HFgxY3xVEsl2+7iOVMhwv3TVV13ollqDMMA4+rUPMqlqHmXIXsrS67qSZL6n+bmtXSadG5rvW5LfJ9yKITT1uCbaGfBQAEPADQjONYDhYMNQUP9XuDYaoLG/D+2UFEvImI81XYI+gpus67sQwwX2qN/3IaEb8KenZek4ep7z2PMgfBm+oPsz/3Xff9/d5gHMsANlfdeNqyuXOfLQCA/9EEANCYV2kwH6LfGwz7vcEiIt6HAZhvWQU9i35vMNIcRdb5PCJ+DeHO96yCnnma0cd2avIw9SWLWC6XV+oMh+sG2qKEOrvZcX2MIu9wJ+KJ+/DE02b5sDseUgFgL8zgAYBmve/3BtfT2eRaU7RPemL8PP060CJrOYiINykkPZ/OJpeaJOtaH0bEKCwP9BynEfHvfm/wSyxn9BgU1P8+ZtHAaxwWcJ53O6yRYSwfKMjd4Q5rhIa8ePfJZ38A9sIMHgBa/4V/Cy7TQBMtkgaOFrEcPBLuPN9RRPwrzXLoaI7s6vzswcw04c5mforlzLUzTaH//dJ0Nlk08DIlzOCZ77BG3hdy+Z8UFLx492nu7s/GvSYAYF/M4AEg5y+3pS73cxTLAQtL8LRAGpy9CIPdTTuNiP/0e4O309lkpDn2XufdWM7Ysdxgsw5iGWheRcSZ2Txr12UnIsYV1uVtQ6/jYZP4Y6m6i4IO+WLNWvH5I4/vLQCwF2bwAMB2HKdNfKlUvzc4SXuPhj1lnwAAIABJREFU/CsMrmzTm35vcG3Pkr3VeaffG1zGco8d4c72nIbZPOvW5nlE/KfSulw09DrdAs51vu336vR3lDKz6/Was7fmeoP66xgAvkXAA4AvStvzKi0JQkXSBt4XEfHvMOC9K8ex3LPkXFPstNZHUfZsytKsZvOMLfP53T54HhE/V3yabZoNcLfNWonywp3xmn9mFM3N+MI9C0CBBDwAtO4L/469T0sbUYH0dP0ilntnsHs/p715DH5vt867aZ8d+0ntx6uIsAfVV2oz9cG1h+tNfQbKvp2ms8n1lmqltHDn7TPCnXjx7tMilksCv46Ij2EvmH24f/Hu06VmAGBf/vL7779rBQCy1O8NanmTuo+I7rYGMdhJLR7Gcp8HMxncU7XX+SgEmDnV+dl0Nplrij+WZPu5Jaf7j+lsctlAm+X+Oep+OpscbqFWVuHOcSHX+8N0Nhk29WK//fjDWSyX5zsLS8ju5Pq9ePdpqBkA2BczeADI2U0l53EQEZdmHZTpwawd4U5e99S/LYHYaJ13Y7nEjHAnrzr/VZ1HpD3tfm7RKd81dE/nblsh/ThaGu5ERLx49+nyxbtP5y/efepExN8i4p8VfabO0VgTALBPAh4A2vjFfx+OYrnkjpCnEGmfh8uI+FdYpipX79PAL5vV+kVE/Bqe9FbnefbD41guW+fzz3pK+Lxxt4WaGUc5D2Q0Hu586cW7T9cv3n26ePHu00lE/G9Yyq1pty/efZprBgD26a+aAICMXUddgzrHsXzK78ylzVu/NziJiMsw4F2CVyk4HU5nkzvNsXadj6OcJ93bXuex7cHgzOqztGW2GtNQX3ZSyOe8JmvmoqDPjR92fT+/ePfpLvX544g/lnJbLefm887zjDQBAPtmBg8AOZtXeE4vzTjIW9rn4d9hsKOo+yrMkFu3zofR0sHzgr3q9wbjNtR5m8OdiLhq6HVKqJNFw31aKUtMfsghrE1LuQ0fLOX2Nizlto6bF+8++UwPwN4JeADIVtpAvcYlJF6lEIGMPFiS7WetUaTjEPI8tdbHEfE+LD1Y5PtHS+r8MoSPmyphBs+ioT5tmPq0EtxERHafAdNSbqO0lNv/xeel3Pg6n+UByIKAB4DcXVZ6Xj/bODsfaamqeZSzbj+PE/J8u84P+71BbUtfqvP66nQcEactvr7zhl6nU8C5Lhp6/y4p3Onmvpzoi3efFi/efRq/ePfpLJb79vwjIj6EfXse+sXeOwDkQsADQO4uKz639/3ewH48e9bvDbphqaqaCHker/OTWA6mqvN66vyiwjotaQ+VbWlq8D/7ZUans8migX5tXsh1LSLc+dKLd5/uHizldhjLpdx+iXYv5Xbz4t0ns3cAyIaAB4DczSs/v3EaoGAP0iyqX8NSVbUR8vx3nc/VeXVe1bSnW2F7qGzTdQNt2SngPG8bOMdS+rUiw53HpKXczh8s5fbPaG7fqBLcR0RXNwVATgQ8AGQtfRn+UPEpHsRyIFrIs2PpSfH3WqJaQp74094Uwp06VRHypPfAC5czIpqZwdMp4DwXG9TLYSxneAt39igt5Xbx4t2nbiyXclvt21PrUm73EdF98e7TXQBARgQ8AJTgsvLzW4U8HZd6N9KAqCfF61flMlZr1rkQs36vSt7TLQ3Wj0MIGRER09nkuoGXKeHzxPUG9TKPMpabvI+IsxrDnS+lpdzGL959OktLuf0jlku53VZyiqtw5zoAIDMCHgCyN51NLiv6gvg1BxFxaUmp7UqbzI/DHg9t8qrfG4xaWOvqvF3ep/3ESjQKe0OtNPVZp1PAuT439LiMcsKd7qb7DJUq7dtz/uLdp04s9+15G+Xu23Mbwh0AMibgAaAU4xacoyWltujBU78GvdvnTb83OGtRrY/VeStdlrbcZ7ovzab8bNHQ65RQB9fPqJdxRJwWcG6rcEcgEH/s2zP6Yt+ej4Uc/seIOBHuAJAzAQ8ApWjLMktCni0obEkXtmPchr2uhDutdpDq/LCQWj0M++58adHQ65RQA3dr1kspfZtw5xse7NtzFp/37fkQ+e3bcx8R/0xLztlzB4CsCXgAKEJav/xDS073ONoxY2knhDskB7XfV8Idoqx9p0YRceSS/cmiodfJPsyezibzNfq2YQh3qvNg355hZvv2fIjlrB0BNABFEPAAUJJRi871ZRqsZQPCHb5w3O8NLiqt9XEId1h6lQbEc67XTlia7TGLhl7noKK+bRgR7ws53DPhzvNlsG/Ph4j4vxQ4LVwRAEoh4AGgGGmj2g8tOuVXQp6NXYRwhz/7qeDN6B8l3OGxvi+FKLny3va4RQP9QQn929Ua51JKuPN6nVlJfNsX+/Y8XMqt6dk9N7HcE+h/BTsAlOqvmgCAwowi4iwqejr1O171e4OYziZDl349Br35hnG/NzhJSz+WXucX6pxHrJYk7GZYs92IOHWJHmX2x+c6OYmIy0IO9/V0Nhm7atuR9sAZp1/x248/HMZyGcJuRHTSr5MnfDe4jWWIOk/32tz+OgDUQMADQFGms8kiDWi+adFpC3nWZNCb7ziKZVh8XnidD8MyV3zdab83OJ/OJrktSzhyab76GaeJweZuAac6/07fdpJ+poSHeYQ7O5ZCmfnX6ui3H3/oxDL0iYhYmJUDQO0s0QZAiS5i/xuw7lr2eyrkwqA3T/RTGkQstc7Popyli9ifUU5LtaV7zuydx9206FzvvlEjh7GcqSHc4VlevPu0ePHu0zz9WmgRAGon4AGgOOkJ1/MWnvp7Ic+3FbZeP/t3UWidn4Q9THiag8zq/Nwl+aqmlorqFnCu11/p2w5jOSujhL3z/incAQByIOABoEjT2eQyIj628NSFPF9R2Hr9u3Ify82sV79uNcmfnKaZMCXV+WoA9MDl44lepvA7h9q1dObXzRt6ncMCzvVrYdZllBHufMhw6UMAoKXswQNAyYax3Cy1bQOd79OePGMlsFTYki5Nu4rl09CL9M+76Wxy/cQ2O4nPGxR342mbFNfmIsoKBuctrfP7VN/XsRwcnqf//s16fxBsdOLPm3Eft7DO970k4dC71U5kX9uP3bP93mAcZSzf98GeiABATv7y+++/awUAipWevv9XS0/f2u+f6+AyIl625HSvIm0uPJ1N5ltoy5NYhj1n0Z69Moq4l/q9wUW0Z3+p21gGb9ep1hdbaM9uqvVuS2p9r3Xe7w2uo33B2jr+vmmfnoL7/5f5ed5PZ5PDL457HGXM7hLuAADZEfAAULyWDXp+6R9pubo2X//ziPi58tP8GMvB7su0B9Wu2vYwlk/dD6Pugdnb6WzSybzO2xBmf4xleHm5jUDnCbV+lmr9VJ033r6diPiPTyzf1ETA042IXzM/z6vpbNIt8D1cuAMAZEnAA0AVWvxk8H1EdJ+yJFel1/0kIv5d6eldxXLZuZ2GOt9p6/Oodw+NbGfxpMHx66hzababVOfjHOr8QXuPYhn4HKjzRtq0DUH8RqazyV8aaOdhRLzP/FT/CEoKOd6IiI/T2eRMlQIAObIHDwC16EY79+M5iIh5vzdoXciTnrivcfbSh4gY7XoGw/ek+hr2e4NRLAe/awt6zmMZNOTossK+7UMsQ515bgeW7r1h6mPOI+JNRe0+2lOddwtus5v4875POesUcIyL9B5+FmWEOzdh/ygAIGNm8ABQjcpnc3xP62byVLbvzn0sN0G/yGUWwxPavxPLgeKalrP6e26BQwrU3lRU55eRYYD5hFq/qKi/2fksnn5vcBdlhZQ36ZpfltInp3YeR/7h++tIe2sVUBM36bPVXQAAZErAA0BVClruYxtaE/JUtB9JccHOV67FOOqYYZLVHguF7Kfx5LaNwoKdimv9T3ug7KDdSnr44jYihjnOLHtiW88j/9D9bSxnxgl3AAAaIOABoDotX+u/+pAnLZu0iPIHWYsf8P7imoyjjhkO/5vJnkeHsXzK/ajw9ryK5YD5ooLaWM3muYzy93z7267eJwp68OJDRJyXPKDf7w0WFfQZORDuAADF+B9NAEBtprPJRSwHatpotSfPYcXnOI6yw52bWC4FVs2g93Q2uUsbUP+zgtMZZnIcoyh7oPY2Iv4xnU26tdR5qvXFdDY5qeA95nyHf1engPZ4nfrk0gf0hTvN9F3CHQCgGAIeAKqUlln62NLTrzbkSUsklTxL5O10NjkpdfmfJ9x3FxHxt1jOJCvVMIM6P4mInwpuw18i4mQ6m1xW/h7ztuBTONvh39UtoF8eV/D+eOLT38buI+JMuAMAlETAA0DNhrGcLdFGx1FZyJPO5aLQw7+J5ZJIo9oLLy371C343jtOy3Dt07jQtruP5ey08zYMkKb7+XWhh3+Qlk7bhZzfhz5W1C8fBpv2X63YxxAAqIuAB4BqpQHGbiyX22ij2kKe8yhz+ZkP0bJBowpCnuG+/uK0h1iJ+7tcRUSn1tlp36j1cZQ7k2dXs3hyref7yGdJxiaYwbNZLQh3AIAiCXgAqFoKec6i7CWjNlFFyJNmVLwp8NBr2dfhufdeN8oMec72VOeHsdx7pzS/pL12WrmsUZoBUuKePC+3/d6Q+bJhF5XVrBk8zyPcAQCKJuABoHoPZhO0OeS5KPwcxoUd72qpqnHL7727Qu+9fS3TdhHLPbRK8no6m5x7n5kMQ5j5mJxDh4vKyrDrE9/z2k24AwCUTMADQCukL+/DFjfBq35vMC7xwPu9QTciTgs65NXTwHN3XtEhT3fHdX4SEa8Kq/O/tT3EfKRm1Pke76M1fGzrjDP+5LVwBwAonYAHgNaYziaXUe6G2E0oNeQp6Snrm1juQ2LA6M/3XokB65k6/ypLGj1e53fq/L/kOoNnXmEJnroL1/JaQA0A1EDAA0CrpC/z/2xxE7zq9wajUg623xsMo5wN529iOejtqfDH773LiPiloEPu7rDOu1HO4Kxw5/t1/rGgQz7Y8j45ue7Bo37bTbgDAFRDwANA60xnk4soc0PsprxJwUkJRoUcp3DnaffeeZSzT8nBDvfhKaXOhTtPM4yylmrrbvG1OzmecG1LaKaQmKcR7gAAVRHwANBKaUPsNoc873MPedLxHRXQlvcRcSbcebJhQcfa3UGdd6OM2TvCnae/v9xFWUvubbPOc+zDbyssu0N33pP8U7gDANRGwANAa6WQ52OLm+D9lpfm2dSogDZcDXov3FFPvu+uI+JtIYd7os7/cCbcWavOR1FOkLCVOs/4/aXG/vrEXfddH9IMbgCAqgh4AGi7YZSzZNQ2zHMchCto9s7QoPezXEQZg98nW67zbpQxe+d1bUta7ciokOM86vcG25gBkuuskkWFtWYGz7d9SA/1AABUR8ADQKulpXS60d6Q5yAixlsa3NvEsIC2e5s2VOd5992ogEPddvhyXkAbfLCk0bPrfBztnsXTzfRcFxWWmxk83+7DhpoBAKiVgAeA1nsQ8ty2tAmOIyKboKKQWQ1XaQkmnn/fjUu45/q9QWeLr/sy89O/MTC6sVKWhOpu4TVznVVS46xLM3i+7lwTAAA1E/AAQPwR8pzFck+VNjrt9wa5DEQOM2+r+1QrbG5UwDF2Wnru6rwZ40LeV7YREOQ6q+Suwjo7dqsV/T4DAPBsAh4ASNJeKt1ob8jzU7832OuAbprV8CrzdjpLgSCb33PjAu637hbq/DDyD0/Op7PJQpVuXON3kdEMyW/YRhjTyfRcq5rBs61ZhpV9trGEHQBQLQEPADwg5InxngeLhpm3zwebzTfuooXnfBbL/a9y9dG+O62r8W30+0eZvs/XFtB33GLfdZnhXoMAAI0Q8ADAF1LI09Y12w9iv0+bDzNum/uwlv82jDM/vu4WXvM88zofKsvG31Ny32+q0TAm41klNxWWWMdd9qT6vtAMAECNBDwA8Ij09Prrlp7+cb83GO36L+33Bt3I9Inv5NzSbFu51xZR56Dr1+r8JPLeL2OkzrfismXn28n0uO60dWu92vcytAAA2yDgAYCvaHnI82YPa9YPM26PG0tWbVXObXvSsjr3lHv7ajwi/gjZc71vmjKvsLbsL7PGfWjPIgCgNgIeAPiGNKj/tqWnP97x35fzk7WWZtuunGc3HKhzGngvKWGZtibZ70Rb59qfjzUDAFATAQ8AfMd0NhlFxIcWnvrOlmpLy6bkuun81XQ2mbsTtnqPLaIFg9+pzo/UeWu1qX3N4NHWuTrdxzK0AADbIuABgCeYzibDaGfIc76j5UxyntUwcgfsxDzXA2vwHlDnarwtcp1VUuMePAdurbXtYxlaAICtEPAAwBOlkOdjy077IHYz8JvrwLdZDbtznfGxdRp6na46b7U2tfFppu/j1zU1spBiI5f93sDydgBA8QQ8ALCeYUTctOycXzW8+fafpAGqXJ9AtuH87lzXfHKpzo/UeXsVsBRh7YPd9xWek4Di+Y70fQBADQQ8ALCG6WxyF8un8NsW8oy2+Nq5zt65nc4ml6p+Z/fWvPJTVOdERCwyPrZGZoNs84GADdUYInfdUht5lfZGAwAoloAHANbU0pDndIuDdrkOroxV+87VfE/lWueeYN+tecbH1lQAkuuskoXy47H3+h3tNQgAsBUCHgB4hhTyDKPOJV++ZtT0C6b1748zPd+xSt+5GjdAV+c8dN2C+y/XfWEWFdZT1y21sQP9IABQMgEPADxT2qy5G+0JeU638JRrN9NzvUr7ZbBb80rPK9c6/5jCananDe1tBo+2LvHzzUgzAAAlEvAAwAZaGPKMGn69XJ/0HqvuvVhUel7dTI/L3ju7f8+Yt+A0zeDZnWN3VWPe9HuDE80AAJRGwAMAG0ohz3lLTvcsLTfVlG6m5zlX2XuxqPS8cq1zAQ/bYAbPDjT8XszSWLsCAKUR8ABAA6azyTgiXrfgVA+i2c3iTzM8xxvLs+3tPppXemo5PmV/ZXm2/fUxlZ9flrNKKuzXS5htcl9g7Y50UQBASQQ8ANCQFPK8bcGpNhLwZLwUilkNe1Ljk9P93qCrzvlCrsHadcX3cI2hWgn95TwiPhbWrj/1e4OzAAAohIAHABo0nU1GEfGh8tN82dAgXifT85ur5L05cU7qnL29f91VXO81zlYrob+8johhRNwW1raWagMAiiHgAYCGTWeTYdQf8jTxdOtJptdvroppUI51fp/2DmM/FhWfWyfT47rW1vup9RQcDgtr24MwyxEAKISABwC2IIU8Ne+zUGvAc6N696qT6f08r+ychDv7tcjwmO5rvoejzhk8nVJqPfWhvxTWvqf93uBcdwUA5E7AAwDb0416A4NuA6+RY8AzV7Z71anwnE7VOQW4rvwerrHmS+gvFw9+P4rylmr7OeP9AgEAIkLAAwBbk5Yl6UZzT0bn5KCBQY+jDM9roXL3qlPTyfR7g1zPR53jHi7fUe4HOJ1NFl98JhoW2M724wEAsibgAYAtqjzk6T73D2b8RKylq/ark+ExXVV2PhECHv7bXcX3cHV7q2UcHj9085XrUNpSbcexnH0EAJAlAQ8AbFnazLxb4altEtJ0Mj0nAU+5NZWjLOu8tsFusur7jjRle/uWL3wtNBxFeUu1/dTvDc6UHQCQIwEPAOxACnleV3ZanQ3+7Emm1+lOte5HeiL9IMNDu97TPQIl3sM5uqqwuUsIw6+/8T47LLDNLdUGAGRJwAMAOzKdTcZR3tIk37LJ5vE5Dk7dqNK96mR6XJuEfofqnEJq/do9XJQSgoa7b3wemkfEx8La/CAiLnVfAEBuBDwAsEPT2eQ8yhvU+KoNnmbtZHg6Zu/sVzfT45pv8GdP1Dkt6v/srbY7xc7geWAY5e1PeNrvDc51YQBATgQ8ALB7w6jnKfrnDjIdKwO+0M30uBYuDS3QRJ3nOqvEDJ4M273gpdp+7vcGJwEAkAkBDwDs2INBjfsKTmftQaaM92lYqM69ynVfpsUu7w8osM6zvoejzhk8pwXU1PwJP3MZZc5qth8PAJANAQ8A7MF0NrmOMp9c/dJzBvQ6mZ7LQmXuR3oa+iDDQ9t0c3Yz1Wiq39ymph42yHXAW9+et2GU98DLcUSMXDoAIAcCHgDYk/Tk6i8tPHVLm/Cls0yP69qlYQsOKq3zGmfhZaffG3QLOMyrNa5PqUu1/dTvDc4CAGDPBDwAsF+jqGc/nqfquOx8QcBDK2S6rFNTe9TkOAvvVtXlX1OWagMAeD4BDwDsUcFPrq50nvFncp3B01WRu5f2ZMp1KTMBD007qbHOM55Vsqiwhkp4r3pOTQ2jvKXaDiLiUrcGAOyTgAcA9iztx/O20MPv7OjPUK9upsd1n+7N2njanC/dVXxuC/dwGTVV8AMvp/3e4Fw3AgDsi4AHAPJwEe1ZSubI5eaBXAfG5pW297GS26tuhsd0Xel5RdQZ8JSwj92zaqrgpdp+7vcG9hcEAPZCwAMAGUhPro5qP8/MB0BOVeLO66ET+QYOc1eIlmhiBk+us0rMwiuvpoZR3lJtERFjXQkAsA8CHgDIxHQ2GUf9s3iyHpiyWfLO5bysTbX7KmS8X0obZBdyN7QUYa7hfY3Lz2U/C2+Tmip4qbbjfm9woYsDAHZNwAMAeSltcGCx5s93Mz8fS6zs1jDT47qdziaLitu9o/T2JrcQ+b7S81qpagZPmvWYu40fVElLtV0VeIl+EqADALsm4AGAvIwLO97Fmj+f+wwZAc+O9HuDYUQcZHp4l5U3vzrX9itNBSBZzipJs0Fq0qnwc8HXDKPMpdouzQYGAHZJwAMAGUmDUVcVn+KJ4yMZZXxs88rbXp3vT26h5sYBSMazSmp8L+0UcIyLhj4PLaLMvQkPwn48AMAOCXgAID/zis8t96dau8pv+9LsnaNMD+8+LQ/UhJtMz/HUE+Z7qfscg7UmZvB0XN2dKaGtF0290HQ2uYgyg7qX/d7gXLkCALsg4AEgW/3e4LDfG4xauGntvKBjXXdwMPfNoY8K2eOgdKOMj63J5dlyXh6qqwx3LsdQbdHAa+TaZ84rrKES3p+a3vdoGGUu1TbKNNQFACoj4AEgO6tgJ5YDT28i343Yt6WkTaHv1riunULO6cxduNX7exj5zt6JaM/SOup893LsAxeVnpcaKuBzwVNYqg0A4NsEPABkJQ3+LmIZ7Kz2KjhI/70VCtsUep0wqlPIOQ3diVu7vw8jIucZebfT2WS+p/tj17oqcudy7AMXDbxGrrMU5hXWUAkzQhrv9wpequ24hbPQAYAdE/AAkIV+bzDs9waLiHgfj29CPdJK+VkzjOoUclrHlmnbmlHkt8n8Q+OGXy/nsPao3xuYxbNb2fUraXbEpnLdz+muwho6yP0At/iQyjDKXKrtp35v0NX9AQDbIuABYK/6vUG33xvMYxnsfGvZpqM2zeIpxLpP03YKOje11vy9fhIRP2V+mOOGX2+R+fkKeHYrtz7wpqHXyXJWyXQ2ua6peArZz+Vmi9dzEeU+7HOZZrACADROwAPAXjwIdn6NiNMn/rFzLZeVxZo/X9Jmw0OXt3HjzI/vY0OzGTa5R3btlUHHnepkdjxNzbTIcVbJfYX1U8K9utVZUwUv1WY/HgBgawQ8AOxUvzfo9HuDcawX7KwcW+YiK+s+HV3SQLIZY83e9xcRcZz5YV5kcI/sg+B8h/1K4X34Y/d2rsH9dYX1U8Lnn/kO/o5hlBngvez3BvpbAKBxAh4AdqLfGxymYOc/EfFqg5cataCtuoUc6roDaCeFXYqRO7eRej6L/Jdmu53OJvOmXzTtRZH7QOS5WTw7uQ86GR5WE7Mt7L/DThW+VNuokKX2AICCCHgA2KoU7IxiuVTRqwZe8rQFX46LOL9nDIgfFHYdzOLZ/P7vRBnL0oy2+Nq5zyQ4CLN4dqGT4TE1UZvdTNvbDJ79mO/iL7FUGwDAZwIeALbmQbDzJpod3K99MLJbwDFerVkLpYZyI3fys+//w4i4jPyDvdvpbDLe4usXsUybWTxbl2MfWPMsl4WSq76mSv0seJyWLQUAaISAB4DG9XuDYb83WETzwc7Kq0yXu2mi7Q4j4mUBh3q55s+XOnh8lIJK1jeO/Pfdidh+iDcvoA0OYjt7EJF3H1jzDJ5FhTV0mvsBTmeT6x3/XW8LvZY/2VMSAGiKgAeAxvR7g7MU7LyP7W8mPaq0Gc8KOc75mj/fLfianNcaKG6xLxhHGUHltmfvRJSzVNQrA45r1/k6oU12M3jSHlGbyjW8X7S41vblfg81PIqIm0Iv66WZkwBAEwQ8AGys3xt0+73BPCL+FdsPdlZqncUzKuAYb3f5lG4GrJm/Xn8wjmb226rifksbgt8W0h5jA45PrvNhrLdEVG7t2tSgeJaz9NJ9V5MSljnd1+eCoc8WAECbCXgAeLZ+b9BJwc6vsZ+lQ8aVtecwdheQbeLyGX+mW/jlObVU25NqeBzlhDu7mL2zMi+kTY7CUm1P7avfx3oD2rkN0N810A65hoE3FZZdCcHrXvZ0Knyptpf93qD2fSUBgC0T8ACwthTsjCPiP7HfNeFPa1lSKA2UjQo53MuWlv4bS1h9s4bHUU64Ezu+3+YFtcurFGDw9Tp/n/51nQHtg8xOpYnZFrnOKrmrsPTM4PmGwpdqG/V7g5MAAHgmAQ8AT9bvDQ77vcFFLIOdXAZyx5U07yjKmL1zO51N5s/4c6eVXKdL+/E82jeMo6xw52qHs3ciygp4IiLeG3B8Up1fP/HP5diWNe+/U+MSoiXM4Fns+e8fFnptLdUGAGxEwAPAd6VgZ5S+vP+U2eEdlb50Vr83OMuwXb/msuW3w0HYGPnLvuE6ygp3InY8Wy7tB1La0+VzIc+f6nz8ZZ1PZ5OnhiQ59hdm8JSlhHtxsc+/vPCl2o4tAwsAPJeAB4BvSkv1LCLiTeS3xMxKsUtnpQHUcUGHfPGMc+xWdlscx3Lw+7DlfcNJLAeJjws79A/PnIW2qXFh7XQQQp7V8pnz+O8Q82qNl8mxD2wiBOk22GAjAAAbP0lEQVRketlqnMHTKeAYF/s+gMKXarMMLADwLAIeAB7V7w2G/d5gEcu9Bg4KOORxaQPuaeB0Xkj7RiyXtVq4OyKi5SFPCn7nUcaygg/dR8S+NrQucfZbq0OedN6LKC/E/K6GQs5OpqdX4wyeowJqKpfPB8OCr/PYDGEAYF0CHgD+pN8bdNOSS++jrMHboyhon4sCw52I589A6FZ6u7Qu5ElLVV1GOcHvl87XWFarUYUu0xbR0pCn3xucR8S/v1Hn67zf1NoHdnI8qD3N0NtmLXYKOMybjK5/yUu1HYX9eACANQl4AIiIP4KdeUT8GuU+rXyc9knIva1LDHdud7wpfTE1FxHXbRj8TkvHXEfEy0JP4SqDGi71HlqFPGctqPNOei/8ucGXzS0EvmrodY6CXegUcIxZzZpKS7XdFnq9X6ZZsgAATyLgAWD1pPKvEXFawem8yjnkSV/av/VUeK4uNviz3cpvoaNYDn4PK+0fDvu9wUXqI0od0L2PPJbtGRdcCgcR8a9UC7W+Fw5jGWI+5b1wvsZLH1fYVrmG2lcVlmYJDxDkuO9Rye/JF4XM3AIAMiDgASDXL+abyC7kSYPk41gubVWa+7BkyPccRMT7fm9Q1fr5acB7ERE/FX4qoxz2h0jLw30svC1/6vcG1zUNPj6YtbPO0oN3T3ztHPuDeQOvkWs/V+P+OyW8p2TX7mmpvl8K/kxxGQAATyDgAWD1Jfi2stN6lQYh9z4w8mBpq1eFtuXFhvuWnLbodnoVyyXbil7K6sGSjaXutfPQx+lsktOskxpmwKyWJhwVXuer4P0/6/ZTaZ+Pp6h1+cZcz+taW2v3B0YFf749Lr2PBQB2Q8ADwEqNy+4cR8QiBSw792DwsPSlrS7cHms5iuVSVvPSZjmkmQyrmq0hmMtlabY/VBSoH0TEm35vsLc+dsO+eRTL2WmvnllXT5VjHzBv4DXM4NkdM3ie39/eRdlLtb0prX8FAHZPwAPAyrjS8zqIiF/7vcHFrmbzNDB4mJONZu+0fGDiNCL+k5Zt6+R8oP3e4OTBTIZXFV2Dsw1nn23LqKI2Pkp97Dz3+/1BgLmIiDfx/Nlp68xWyPHeb+KeMINnd7KfwZOC65yP7ZeCr39VS78CAM0T8ACw+gJ8FxEfKj7Fn2I5m2e0rS/KafBwFJsPHubidjqbjNwdG3sVn4Oebk4H1u8Nhmkptn9HXcFORMTbXAcdp7PJOOpbFvM0Mgx6UuC+qvNVgLlp37xOQNLJsP6aCEHM4Nmdg2BTo4L73KOwDyIA8A1/1QQAPHAZ9Q3yPnQQy+DlPD3FfbHpxuspLDpLv15W1l6jBl6j67b6w6tY7g11G8tl7y43rb9n1uxJLJesGUa9A4dXBYSTo1jucVSbVdCzqvPxPmZRpX2wVr+arvOSZ/DcN3ids9NQeJWNQmbBXuV+gNPZ5K7fGwxjufxoiV72e4NhejgAAOBP/vL7779rBQD+0O8NFlHufjHPcRPL/QguI+L6KQORacClG8tlU15W2i5X09mk20A9jWIZqvH1+ruMZdhzvcX7+izV7FkL7u/biDjJdGm2tva3H1Odz7cVaqbgctU3b7tffv3UgdZ+b3AXeQWpTfXtOX6JvJ3OJp3KPpN1I/9Q4uN0NjkrpD0vYjmju0T36b1tEQAAD5jBA8CXxtGuAfnj9Oun9OX/Pr7+dPZJtGeplPOGXqfrlnpS/b15UHvz9M/Fc0KfNCDYSfV6Epk+ab8l95HvvjuPGUWds3i+9DL9ijSzZ1Xj189ZRi+FOasa7+6hb16s8bO5vWcsNn2BjGeVLCq8d0p4Dy1p1tQoyn3Q4SCWQflJAAA8IOAB4EvjaPeMi4No14D4Y36pbZmbwmrvj/rr9wYRy9Di4fW4juU+E5348/JPbQogv+a8pNqdzibjfm9wHsuQry2OIi1X+KDGI/57mad5qunDDGt88ZQfSkFUbhYNvEau++8sgn0oZt+jCpZqO+73BiP7IwIADwl4APjyy++i3xt8jHqXHuPb7qOZvXdWTjXpxr4MHbXp494Wuj/BeZQ72Nik01L6jjWWSMoxCFk08Bq5ziBYVHhfdAs4xqIeCJnOJvN+b/Ahyt1z8k2/N5g/Z/YjAFCn/9EEADziQhO01rCg5a1g5UOpTzSnQboPLmExbtb42W6Gx79o4DXM4NmdwwKOscTPDOexfKClVON+b3AYAAAh4AHgEWnA8VZLtM7H6Wxy2dSLZbxPA3W5ms4mw8LPofTBxjYpPQBfNPAaZvDsTvbLN5a4pGt6kKXk942jWC6pDAAg4AHgq0aaoFXuo+zBDtrpJpYbZhctDTaeu5xFWGcwu5thrS0aeJnDCq5N9gqZoVHsw0DpgZaPBZfIy7SfEADQcgIeAL7mMjxR3iZnW1iaratZ2aKbiOjWsqRg2j/oymXN3jr1dpjhPdOE40zvodqWFz0p4BgXhbfxsPDPuhf93qCjWwaAdhPwAPCoNFBiL552+MVmvRTmNioKdx44C8F67taZJZJbELLx/ZLxYPJNhbXWKeAYFxV81h0WfAoHsXwgCwBoMQEPAN9yEQYba3cznU22tTRUV/OyBfexnRlne1fBYGMbPKnuMl1eq4klzDolX5fCdAo4xkUF/W7pS7Ud93uDka4ZANpLwAPAt770msVTt/vY7v4lh5qYLdRst8RNvdfody8j4heXOtvrM3/ij+a4vFYTIUgn00szr7DcOgUcYy198TDKfqDpTb836OqhAaCdBDwAfI9ZPPU6a2jD7a851sQ0qPpwZyXNqrtxyYvWyfCY5pWelxran1r2QKth9uQ405mDAMCWCXgAeMqXXrN46vN6m/vuGGSgYTfRknDngW4I13NztcbPdiptg5NMj2teYVuXUEPV9MkVLNV2FBFj3TQAtI+AB4CnuIjlpubU4cN0Ntn2IMCJZqYhbQx3VuF6N4Q8OVlntkInw5qaN/AywvvdOSqkn6rJsPA+92W/Nxi6dQCgXQQ8ADz1C/y5lqjCh+lssosv/x1NTQNW4c5dG08+hVr63nysEzLm1gc2NWh9kum9Mq+p0Pq9QQkPSVS3jGQln3cv+r2Bz2AA0CICHgCe+qX3MtZbnob83MTuBi46mpsNfYwWhzsP+t5xRLxWDllYpxZzG6BvagbcQYbXpcZZboeV3Q+l9bklf949CEu1AUCr/FUTALCGYSwHiQ40RXF2PROio8nZwK5mmhVhOpuM+71BNyJeaY29Wickye19cuO+P+NZJTUu31jCDJ65z7vZOu33BqPpbDJq8kX7vcEoIt48849fTWeT7nde68nv/f3eYPzIe+Lbps8ZAEpgBg8ATzadTRYR4YtTefaxzFVHs/NMr4U7j/a/w4j4oCX26kl9aKZBSBMhyGHJ16Uw9jryeXdTbwpZ6u+hs35v8N3aTz/jgQcASAQ8AKz7pfciLNVWkn3tYXKi6VnTfUT8PS2Pw+P97zCEPPts/6eGJDkOzi8aeI1uppfGDJ79mPu8m73LpwQmGTmIiLMn/NxZAAB/sEQbAM9xFsvBIku15W2fG9SrDdat1bP01DTfMJ1Nhv3eIMLTy7t2u8bPdjM8/prvLTN4tPu2DKPspdqOIuIinUcT7z+jeGRm0xfLrf1pKbZnOI/v7yF0HgDAH8zgAeA5X/DuwtNzufsQewp3ClwShDxqdaEpntwHDyPiFy2xUwvHbwbPDp0W0A9d137TV7JU26t+b5D7Z/abWM7ijYg4/tbnyPT/jtO/3odVBQBAwAPAs7/0ziPin1oiSx+ms8lwTzN3IuwdwNPcR9pvZ4+1WnIffB4Rr7XEzizW+NluhvWycG1ouP9uS19bw1Jt435v0Mn4+O4i4vLBv39rhs7D/zd2KwKAgAeAzb/02g8iLzlsUG8GD99zFREn9tvZuA8eR8Q/okWDrXu0WONncwu5bxp6ndNM74NFTYXW7w26BRzmdcvu/2Hh/exB5B+GXDz4/dk39g46+8qfAYDWEvAAsJEUJnzUEnuX0wb1ZvDwLW+ns4kl2Zrrgy9jOWPkVmts1ToD2seZHXvNM+RqrHv77+TXzy6i/DDhNO2Vk2sbX8fnMPogHlkKut8bDOPzfkhXPkcAwJKAB4AmDKO5J4RZ31VEdNKyeTnoZthG6jOPOv1b2qSZBqWBsZMQtm/Tkwa0v/HU+T5tPNsi41kliwprrYRZsG2bwRPpvav0zxJvMt8ncfzFd4vHvm889rMA0GoCHgCa+NJ7F8tBfYPou7eaDWEPk6+7mc4mJxHxVlPsxX1E/DPV6bXm2F4/PJ1NzsLeaNtq3/kTfzTHwdMm3h9ynVWyqLDcSpjBs2hpVzCs4BwuMw2iI/4c2pw+3Dco/X61TOS9JV4B4DMBDwCNeBDyXGmNnbiN5ZJsowyPLbd9Gu5SjY4i4m8hiNylD7GcXWad/N31xRfqfK9yHDidN/AauT71v6iwhkqYwbNo482dHlIo/WGRo8h0ubn0XeLh3p7nD34/fPD7S281APCZgAeARr+YTWeT7hdfzmjeL7HcoH6e24Fl+lTo/EGNXpvNsxNXsQwgh2aX7aUvVufN1/NTnVTaBmbwoN2jmqXaXvV7g7NMj2384PfDr/zeQyMA8ICAB4BtfPkdhoHFbbiJ5aD5ecaD5ieF1OgoIv4vzDhr2m1EvE7Lsc01RxZ1bjbP5u4Kr4Mm7kUzeHbntICaWrS8TxhWcA7jh0ugZdZf3aZ/Pej3BsMURh2tPgtb7hUA/kzAA8C2vqCNIuIfsdx/g82s9jA5KWDQvJjliaazySLNOPtHfB5M4HlWwU7HuvjZ9cWr2Tyv9cfPtk5NdzN8/6i1b4+IMNC7e60PjCtZqu1gzb5tlx7O0BmG2TsA8E0CHgC2+QX4MpZP/Xp6/Pl+ibL2MClug/EHdfo2DICvS7BTTn88joiOOl/bx9RHlKqpAOQ407quagnIfm/QLeAwLbsZ1SzVdtrvDUYZHtfDPvc0Il6m39+H/XcA4L8IeADY9hfghb0gnuVDRPxf5suxPaaTYQ1eP+Fn7tJgTScMgD/FVUT8Q7BTXH+8qvOTsFfa99ynvmC45p/LbXmtjd8/Mt1bLcLDI/ti1tRnwwrO4U2/N8jq4Zy0BODHR/7XpX39AOC/CXgA2NWXtVEs94Kw58m3rYKdYaFr3HcyO577NetU0PPttvwQEX9Le+x4irbc/niR9kr7P3X+X25iuZxdZzqbjCoYTGxiMD7X/XdqHOgtYR87A+yf+9LrWM60Lt1lhkHu+JH/Znk2AHjEXzUBADv+Itzt9wbDiBjF5w1T2+4+fWkdV7BxcSez47l+Zq3eRcSo3xtcRMRZy+v1JtWnJ2fr65MXD+p8GBHnLa3z1bI/F5ts3p3bU/BJE+8p9t/ZncMCjtEMnj8bxXLvreOCz+Eovc8PM3p/uuz3BrcP3pNuN+mfAaBmAh4A9vGlbRwRY0FPXMUy1BlXdE65XcvFhrV6F8unSMdpb4RhRLxqQW3epPO+rCB05Gl1fhERFy2r84+pxpvqg3McnG/i/jWDZ3fM4Cmw/0yfZy8L/zz7qt8bRJrdmYtxRLxJvzd7BwC+QsADwD6/FI+jfUHPbXx+UnxR04n1e4NOhoe1aLBe5xEx7/cG57Gc1XMWnzf+rcFVqk2hTrv75Zrr/D4i5g/qvOmB6uuI+HuG13NT80yvZ43LRF5G5jNkGqqp2vrN6zSD7ywy3IvwC4fx9SCx00AfsWjwz4y/8vsvf2aeeV8FAFv1l99//10rAJCFip8cX4U645qXl0jX79fMDuv1NmdIpTXrV4Pg3Yg4KOiS3cRyMGQeEXPLr/GEOu+mf5ZY55cGpgEAgNoIeADIzheD5qU+Ob6aDTFvy5rh6Yn/nzM7rL/vclA3hVyrXyeRz0D4fSyfCp+v/inQYYM6P/mizo8yrPN5RFyrcwAAoGYCHgCylsKebnx+cjzXZdyuouWD5/3eYBSf10rPxf/u81qkgfBOLAfBu7FcGmWbGzHfxnKpk9WveUQsLLnGDvrpVY13HtT8tgLOVZCjzgEAgFYT8ABQlLTPy0l8Hkzc9SyJ1cDiH7/aMkPnCdfmMjKbcTWdTf6SaVs9XAO/+8X/PonHN2u/i//em2Ge/mlwm1z7hVU9P7bvQ/eJdX6d/vud/hYAAOAzAQ8AxUuhTyc+D4w/HFBcd7bEKsCJ+PNMiEVY7ud712EeEacZHdLNdDY5cWUAAACAGv1VEwBQujRzYRGfZzN8UwqEDj0J3rjTzI5HGAcAAABUS8ADQOtYyqo15poAAAAAqNX/aAIAYFP93qCrFQAAAAB2R8ADANRqrgkAAACAWgl4AIAmdDM8JnvwAAAAANUS8AAATTjM7YCms8m1ywIAAADUSsADADThJLPjuXdJAAAAgJoJeACAJuQ2g8fsHQAAAKBqAh4AoAnHmR3PwiUBAAAAaibgAQA20u8NOhke1sKVAQAAAGom4AEANtXJ8JgWLgsAAABQMwEPALCpTobHtHBZAAAAgJoJeACATXUyPKaFywIAAADUTMADAGyqk9sBTWeThcsCAAAA1EzAAwBsqpPZ8dy4JAAAAEDtBDwAwKZOMjueO5cEAAAAqJ2ABwDY1EFmx3PtkgAAAAC1E/AAAM/W7w1OMjwsM3gAAACA6gl4AIBNHGZ4THOXBQAAAKidgAcA2ERXEwAAAADsnoAHAKjKdDaZawUAAACgdgIeAGATXU0AAAAAsHsCHgCgJleaAAAAAGgDAQ8AsInTzI7nziUBAAAA2kDAAwA8S783OMzwsK5dGQAAAKANBDwAwHOdZHhMZvAAAAAArSDgAQCeywweAAAAgD0R8AAAz2UGDwAAAMCeCHgAgOfKbgbPdDYxgwcAAABoBQEPAPBcuc3guXdJAAAAgLYQ8AAAz9XJ7HjM3gEAAABaQ8ADADzXUWbHs3BJAAAAgLYQ8AAAa+v3Bp0MD2vhygAAAABtIeABAJ6jk+ExLVwWAAAAoC0EPADAc3QyPKaFywIAAAC0hYAHAHiOTobHtHBZAAAAgLYQ8AAAz9HJ7YCms8nCZQEAAADaQsADADxHJ7PjuXVJAAAAgDYR8AAAz9HJ7HgWLgkAAADQJgIeAOA5jjI7noVLAgAAALSJgAcAWEu/N+hkeFgLVwYAAABoEwEPALCuTobHdO2yAAAAAG0i4AEA1tXJ8JjuXBYAAACgTQQ8AMC6Ohkekxk8AAAAQKsIeACAdR1mdjxX09nEDB4AAACgVf7y+++/awUAYC393uAkMgl6prPJ3BUBAAAA2kbAAwAAAAAAUBhLtAEAAAAAABRGwAMAAAAAAFAYAQ8AAAAAAEBhBDwAAAAAAACFEfAAAAAAAAAURsADAAAAAABQGAEPAAAAAABAYQQ8AAAAAAAAhRHwAAAAAAAAFEbAAwAAAAAAUBgBDwAAAAAAQGEEPAAAAAAAAIUR8AAAAAAAABRGwAMAAAAAAFAYAQ8AAAAAAEBhBDwAAAAAAACFEfAAAAAAAAAURsADAAAAAABQGAEPAAAAAABAYQQ8AAAAAAAAhRHwAAAAAAAAFEbAAwAAAAAAUBgBDwAAAAAAQGEEPAAAAAAAAIUR8AAAAAAAABRGwAMAAAAAAFAYAQ8AAAAAAEBhBDwAAAAAAACFEfAAAAAAAAAURsADAAAAAABQGAEPAAAAAABAYQQ8AAAAAAAAhRHwAAAAAAAAFEbAAwAAAAAAUBgBDwAAAAAAQGEEPAAAAAAAAIUR8AAAAAAAABRGwAMAAAAAAFAYAQ8AAAAAAEBhBDwAAAAAAACFEfAAAAAAAAAURsADAAAAAABQGAEPAAAAAABAYQQ8AAAAAAAAhRHwAAAAAAAAFEbAAwAAAAAAUBgBDwAAAAAAQGEEPAAAAAAAAIUR8AAAAAAAABRGwAMAAAAAAFAYAQ8AAAAAAEBhBDwAAAAAAACFEfAAAAAAAAAURsADAAAAAABQGAEPAAAAAABAYQQ8AAAAAAAAhRHwAAAAAAAAFEbAAwAAAAAAUBgBDwAAAAAAQGEEPAAAAAAAAIUR8AAAAAAAABRGwAMAAAAAAFAYAQ8AAAAAAEBhBDwAAAAAAACFEfAAAAAAAAAURsADAAAAAABQGAEPAAAAAABAYQQ8AAAAAAAAhRHwAAAAAAAAFEbAAwAAAAAAUBgBDwAAAAAAQGEEPAAAAAAAAIUR8AAAAAAAABRGwAMAAAAAAFAYAQ8AAAAAAEBhBDwAAAAAAACFEfAAAAAAAAAURsADAAAAAABQGAEPAAAAAABAYQQ8AAAAAAAAhRHwAAAAAAAAFEbAAwAAAAAAUBgBDwAAAAAAQGEEPAAAAAAAAIUR8AAAAAAAABRGwAMAAAAAAFAYAQ8AAAAAAEBhBDwAAAAAAACFEfAAAAAAAAAURsADAAAAAABQGAEPAAAAAABAYQQ8AAAAAAAAhRHwAAAAAAAAFEbAAwAAAAAAUBgBDwAAAAAAQGEEPAAAAAAAAIUR8AAAAAAAABRGwAMAAAAAAFAYAQ8AAAAAAEBhBDwAAAAAAACFEfAAAAAAAAAURsADAAAAAABQGAEPAAAAAABAYQQ8AAAAAAAAhRHwAAAAAAAAFEbAAwAAAAAAUBgBDwAAAAAAQGEEPAAAAAAAAIUR8AAAAAAAABRGwAMAAAAAAFAYAQ8AAAAAAEBhBDwAAAAAAACFEfAAAAAAAAAURsADAAAAAABQGAEPAAAAAABAYQQ8AAAAAAAAhRHwAAAAAAAAFEbAAwAAAAAAUBgBDwAAAAAAQGEEPAAAAAAAAIUR8AAAAAAAABRGwAMAAAAAAFAYAQ8AAAAAAEBhBDwAAAAAAACFEfAAAAAAAAAURsADAAAAAABQGAEPAAAAAABAYQQ8AAAAAAAAhRHwAAAAAAAAFEbAAwAAAAAAUBgBDwAAAAAAQGEEPAAAAAAAAIUR8AAAAAAAABRGwAMAAAAAAFAYAQ8AAAAAAEBhBDwAAAAAAACFEfAAAAAAAAAURsADAAAAAABQGAEPAAAAAABAYQQ8AAAAAAAAhRHwAAAAAAAAFEbAAwAAAAAAUBgBDwAAAAAAQGEEPAAAAAAAAIUR8AAAAAAAABRGwAMAAAAAAFAYAQ8AAAAAAEBhBDwAAAAAAACFEfAAAAAAAAAURsADAAAAAABQGAEPAAAAAABAYQQ8AAAAAAAAhRHwAAAAAAAAFEbAAwAAAAAAUBgBDwAAAAAAQGEEPAAAAAAAAIUR8AAAAAAAABRGwAMAAAAAAFAYAQ8AAPz/9uyABAAAAEDQ/9ftCPSGAAAAMCN4AAAAAAAAZgQPAAAAAADAjOABAAAAAACYETwAAAAAAAAzAQwo958j9yRKAAAAAElFTkSuQmCC;" parent="1" vertex="1">
          <mxGeometry x="241.48" y="225" width="277.04" height="130" as="geometry" />
        </mxCell>
        <mxCell id="7yK18cJ6uD8b7xNlzzAk-4" value="" style="rounded=0;whiteSpace=wrap;html=1;fontStyle=1;fillColor=#003366;" parent="1" vertex="1">
          <mxGeometry x="560" y="260" width="180" height="60" as="geometry" />
        </mxCell>
        <mxCell id="7yK18cJ6uD8b7xNlzzAk-9" value="" style="shape=image;imageAspect=0;aspect=fixed;verticalLabelPosition=bottom;verticalAlign=top;image=data:image/png,iVBORw0KGgoAAAANSUhEUgAAAioAAAIrCAYAAADBbLIWAAAC7mlDQ1BJQ0MgUHJvZmlsZQAAeAGFVM9rE0EU/jZuqdAiCFprDrJ4kCJJWatoRdQ2/RFiawzbH7ZFkGQzSdZuNuvuJrWliOTi0SreRe2hB/+AHnrwZC9KhVpFKN6rKGKhFy3xzW5MtqXqwM5+8943731vdt8ADXLSNPWABOQNx1KiEWlsfEJq/IgAjqIJQTQlVdvsTiQGQYNz+Xvn2HoPgVtWw3v7d7J3rZrStpoHhP1A4Eea2Sqw7xdxClkSAog836Epx3QI3+PY8uyPOU55eMG1Dys9xFkifEA1Lc5/TbhTzSXTQINIOJT1cVI+nNeLlNcdB2luZsbIEL1PkKa7zO6rYqGcTvYOkL2d9H5Os94+wiHCCxmtP0a4jZ71jNU/4mHhpObEhj0cGDX0+GAVtxqp+DXCFF8QTSeiVHHZLg3xmK79VvJKgnCQOMpkYYBzWkhP10xu+LqHBX0m1xOv4ndWUeF5jxNn3tTd70XaAq8wDh0MGgyaDUhQEEUEYZiwUECGPBoxNLJyPyOrBhuTezJ1JGq7dGJEsUF7Ntw9t1Gk3Tz+KCJxlEO1CJL8Qf4qr8lP5Xn5y1yw2Fb3lK2bmrry4DvF5Zm5Gh7X08jjc01efJXUdpNXR5aseXq8muwaP+xXlzHmgjWPxHOw+/EtX5XMlymMFMXjVfPqS4R1WjE3359sfzs94i7PLrXWc62JizdWm5dn/WpI++6qvJPmVflPXvXx/GfNxGPiKTEmdornIYmXxS7xkthLqwviYG3HCJ2VhinSbZH6JNVgYJq89S9dP1t4vUZ/DPVRlBnM0lSJ93/CKmQ0nbkOb/qP28f8F+T3iuefKAIvbODImbptU3HvEKFlpW5zrgIXv9F98LZua6N+OPwEWDyrFq1SNZ8gvAEcdod6HugpmNOWls05Uocsn5O66cpiUsxQ20NSUtcl12VLFrOZVWLpdtiZ0x1uHKE5QvfEp0plk/qv8RGw/bBS+fmsUtl+ThrWgZf6b8C8/UXAeIuJAAAACXBIWXMAABESAAAREgEAwpvaAAAgAElEQVR4AexdB3xVxdIfEtJJIxBICCUkhBB6b9KkqyjKU1RsT8Venr0/9emzfvps2BUFAUGRXqT33kvoIRBIISQkIb3AN3MhISS5Z+fe3HLuvbO/3+ace3Z2d/a/J+fMmZ2ZrXPx4kWQJAgIAoKAICAICAKCgB4RcNMjU8KTICAICAKCgCAgCAgChIAIKnIfCAKCgCAgCAgCgoBuERBBRbdTI4wJAoKAICAICAKCgAgqcg8IAoKAICAICAKCgG4REEFFt1MjjAkCgoAgIAgIAoKACCpyDwgCgoAgIAgIAoKAbhEQQUW3UyOMCQKCgCAgCAgCgoAIKnIPCAKCgCAgCAgCgoBuERBBRbdTI4wJAoKAICAICAKCgAgqcg8IAoKAICAICAKCgG4REEFFt1MjjAkCgoAgIAgIAoKACCpyDwgCgoAgIAgIAoKAbhEQQUW3UyOMCQKCgCAgCAgCgoAIKnIPCAKCgCAgCAgCgoBuERBBRbdTI4wJAoKAICAICAKCgAgqcg8IAoKAICAICAKCgG4REEFFt1MjjAkCgoAgIAgIAoKACCpyDwgCgoAgIAgIAoKAbhEQQUW3UyOMCQKCgCAgCAgCgoAIKnIPCAKCgCAgCAgCgoBuERBBRbdTI4wJAoKAICAICAKCgAgqcg8IAoKAICAICAKCgG4REEFFt1MjjAkCgoAgIAgIAoKACCpyDwgCgoAgIAgIAoKAbhEQQUW3UyOMCQKCgCAgCAgCgoAIKnIPCAKCgCAgCAgCgoBuERBBRbdTI4wJAoKAICAICAKCgAgqcg8IAoKAICAICAKCgG4REEFFt1MjjAkCgoAgIAgIAoKACCpyDwgCgoAgIAgIAoKAbhEQQUW3UyOMCQKCgCAgCAgCgoAIKnIPCAKCgCAgCAgCgoBuERBBRbdTI4wJAoKAICAICAKCgAgqcg8IAoKAICAICAKCgG4REEFFt1MjjAkCgoAgIAgIAoKACCpyDwgCgoAgIAgIAoKAbhEQQUW3UyOMCQKCgCAgCAgCgoAIKnIPCAKCgCAgCAgCgoBuERBBRbdTI4wJAoKAICAICAKCgAgqcg8IAoKAICAICAKCgG4REEFFt1MjjAkCgoAgIAgIAoKACCpyDwgCgoAgIAgIAoKAbhEQQUW3UyOMCQKCgCAgCAgCgoAIKnIPCAKCgCAgCAgCgoBuERBBRbdTI4wJAoKAICAICAKCgAgqcg8IAoKAICAICAKCgG4REEFFt1MjjAkCgoAgIAgIAoKACCpyDwgCgoAgIAgIAoKAbhEQQUW3UyOMCQKCgCAgCAgCgoAIKnIPCAKCgCAgCAgCgoBuERBBRbdTI4wJAoKAICAICAKCQF2BQBAQBAQBQaBmBOrUqeOBJWGYG2L2u5x9jZwTbTHmQsxFGscCLEvBnHTx4sXzeJQkCAgCGgjUwX8UjWIpEgQEAUHAeRFAQaQpji4WczjmCMxNKmX6HYq5DmZrpWxsOKmGfAqvncScgM/oMjxKEgRcFgERVFx26mXggoDrIIACiSeONg5zR8ydLh/pvD5mPad8ZG4n5q2X8zY8HkHhRb4wEQhJroGACCquMc8ySkHAZRBAoSQEB1tZICHBpA1mWppxhkRamO2YK4QXlFtOOMPAZAyCQE0IiKBSEypyTRBwMQTw5R6AQ6687EFLHt6Y6eVO2ojKRzqnL/oMzGcxp1c94oszB6/ZJCHvpCkZivlazF0w05KNqyUSVGZj/gvzOsT/gqsBION1XgREUHHeuXWokeHLhuwAGmNujrnF5WMzPAZjJu80KqdER9V5LtKcwZxW0xEf4mTw6HIJISaBox1meplTbo25XDiph+eWTIQxCTHlubIwk4jXt2E+YM4LFcdBhq1DMA/DTAIKjUHSFQTo3p+DmYSWFa56v1+BQ84cHQERVBx9Bh2E/8uCCAkekZhJGKmaqYxepLZIWdhJZUEmGX8fxBxPGR/sVObwCTFviYOgF3k3zCSYtMNsK4yxK2UigZKWMLaUZ8SeDEivSpfvnX548XrMNB5ayikXVvFUkgYCtEw0HzMJLYsRX7J5kSQIOBQCIqg41HQ5DrP4cvFFbntg7oO5L+bemEk74ggpE5kkoeXA5aPhHB/y5J2h24SYkxDSH/N1lzNpTBwtkRasXHAhrQvdQ/djJsFWUu0QILfoxZgnY56D9/OF2jUntQUB2yAggoptcHb6Xi5/9dJL5RbMgzB3xuxscXoo5gVpXnZj3oR5A/3GB/5FPNolIe4+2PE/MI/BPBhzPcySBAEVAkeR4BPMv+DtW6gilnJBwJ4IiKBiT/QdvG98SZLtCGlM6EVJAgrFpHC1dA4HvBkzCS0b6Rwf/FYP4oXYt8e+xmO+G3MQZkmCgDkIkO3Ql5gn4H1LmkRJgoDuEBBBRXdTon+G8CVJtg4PY6aveIraKekKAqRO34eZhJb1mJfgC4CWM2qdEHcvbOROzA9h7lXrBqUBJQLu7u7g5eV1Vfbx8bno6+tbVK9evUI/P7/iunXrFpaWlhYUFxcXFRYWumP2KCgoqFtUVOSB1zzw6Jmbm+uZn59PS3OU9ZjykKmfMP8P79dEPTIoPLkuAiKouO7cmzTyy9oTMmZ8GjMtMUjiIUDLQmQwuuBy3oYvApOWihB7erk9iPlVzOLhgiBYInl4eEBYWJghN27cuCw6OjqnQ4cOJa1atYKIiAiPkJAQbxRKvBF/SxnuFuDUZ6Hgci41NTXjwIED57Zt21a8Z88eDzyvl3QqKTgnO4cE/0aYSVtpj1SGnc7A/DHySoHmJAkCdkdABBW7T4G+GcBndABySMaMT2CO0je3DsHdGeRyEWYSXEjbQl4ZNSbE3gMLCPvXMLvislqNuJhzMSAgAFq2bAlt27aFa665pnDQoEFlUVFRPqgNsZdAYGwYmWVlZfGJiYn7Pvvss4zp06cHp6end0Bi8tryNVbJSteXYLsvi8BiJXSlWTYCIqiwoXItQnxJ0kPxBczPYfZ3rdHbbLSl2BMtDxm0LfhCIO8iQOzp5Xkf5jcwt8AsiYkACh6A2hGIiYmB7t27AwkkPXr0uBAcHExCn6OmM3hv7Ni0adO+CRMmlMydO7fR+fPnyVid7JSsbbBOGpYvMP8becjFoyRBwOYIiKBic8j13SG+JEnNfQ/m/2KWZQbbTlcidkeGuRQnpDVmmyeyyfD39y9u1KhRRpMmTYqbNm3qhssgbg0bNqzj7e19ETOgbQbgkogHCgU+nphKy0o9zqSdcTt9+jQkJydDUlISnD17Fs6dO2fI+FIFtNEAtOOw+Hho+aZ169YwcOBAuPXWWwGFEiAenTwRkNtycnKmdOvWLeXIkSPD8fdNmEOtOO4kbPtJFFbmWLEPaVoQqBEBEVRqhMU1L6KMMhBH/ilm+lqzW8KvX/oqzkGbgUxU1eejir5uZGRkPXxh+uKLye2SLHWJvTr4y82ggMBFfbdLWnxUnbuVXShzLyoscj9x4oTb8ePH3VNSUgDtAiAtLQ1QlQ4ZGRmGlyg+7AFtBuw2Vjt2nI6CyP4hQ4acHTlypFevXr2ahIeHt0B8A5End0vzhS84KCouupB7PrdOVlZWnczMTDh27BisWbMGli5dajjn9on3AfTt2xduu+02GD58OKBBK7eqM9KRvdP+kpKSn/v165ewefNmCg1wM+ZmVhrsbGyXBJZTVmpfmhUEqiEggko1SFzvAr74G+Cov8FMbsa2SGVBQUEpaCtwHtXzhe3atYM2bdp4N4loEuxfz78+8mMzzwh6gWZnZ19ISEhwQ8NGQMNGQMNGw4uTBBsnEWKKcVLXDhgwIOHZZ5/1weWQCNSakN1DfVtMNqcPFC6BhJdDhw4BLnHAqlWrYN++fQbBEr1ooH379nDnnXfC3XffDShgcZp0RRoSWg5jnnjLLbfsnzVrVh88p7ABltbO0RIQLUt+if8/tDQkSRCwKgIiqFgVXv03jkLBEORyEmZruhmfxC/19TfddFPSG2+8UQ9fOr2wX9LaWMqbwipA41LFxfgD8bBl85Y6e/furRBgaInDAQSYFBQGlz733HMpmFvgUg3Nc4hVgLJioyRI0pIRLfFIMhkBCur2Pt4He1AY/xeej8VsSZuWHdjewzhHFEFYkiBgNQREULEatPpuGAUFevKTHcrzmC0tMJzHNufGxcWt+/XXX71xHZ1ifozEHIDZ4RN94a9YsQKWL18OGzduhP379wMtIekgZaDdyORPPvnk0JNPPnktzjEtAVjyxaSDIQoLZiBAGpCvevfuPQm1VQ/h+YOYLRXBmOIGfYX5VRRY8vAoSRCwOAIiqFgcUv03iC+wVsjlNMxdLchtDn71zn3ooYf24YsyGINkjcK222C2tBBkQZYt0xR99dOS0eLFi2HdunWwc+dOIK2LjRK9KJZ17NjxL3wJNURD0vH421r2CTYaknRjJQRKsN3JH2F66aWXxuD5U5gpZosl0n5sZBT+Lxy3RGPShiBQGQERVCqj4QLnKKSQZoMCOlnqi2oNeoh8d/To0froDfIsthvpAjAqh5h2Jg3+mPEHzJkzB9DAEcjzxRrp9ttvf3jatGm0rEO2CBY3grUGz3pus/RCGaSm50Hy2WxIOXseUjNyISMrF/IKS6CgsNiQ8+m8iH6XQCEeaW8/D4+64FnXHTzp6InZ49K5F/3G8wbB/hDekHIgNG0cABF49POxmSlWVchJuF2I9kCvxcbG9sRz0qrGVCUy4/dZrHMzCivrzKgrVQQBowiIoGIUGucrQCHlThzVL5g9ajk6cpOZhjYnv8+ePXsAnj+BWWKtGAGVbCxI2zJjxgzDchG58NY2odswvP3223DfffdR3JXaNudS9S+gBuzYqUzYdywV4hPS4MiJdEjLyIGMzFw4n5sPVG6LVM/XBxqE+EMo5iaNgqBdVGPoEtsEYls0BHRmswUL1McmDPf/LG4JQJqV9zCTFrQ2iQy3yW7ll9o0InUFgcoIiKBSGQ0nPseX2ZM4vM8x1+YJSALK5//5z3+molEsaU/GYZaveATBlETeLL/99hssWrTIYKCLrqXs6uhCDK+//jo88sgjIqAwUCOtx64jKbD3aBocPE5CyRk4ceosukrT+1SfyQf3FoqODIW2UeHQISYcurYJhxZhwdZmdsXChQvHXX/99bR0+Bpmr1p2+BHWfwUFFtLeSBIEaoWACCq1gs8xKqOQ8h/klNwJzU30iTm9a9eub6ML7+14/gpmu+mtzR2EHuuRS+7UqVMBo40a3HKNLRFRxFVyzf32229xacH20OfkFeEyRykUl5Wix1MZlOCxEI+l6FZcz9cT6vv7QUigL7i710YOts4MHU85B19MXQd/r90LZWWO+d4MqOcLHds0haG9Y2FEnxgI9KutHFEj1iS9vYrPi7l4/BbztTVS8S9SO+NQWCFjXkmCgNkIiKBiNnT6r4gPHHprTMD8aC24XY+urc/jzq/R2MYnmK0Z/bJGNsvKLhrsBRJTz0FmdgHSXHrZkIa+XEmPD0O4QJfrXLpC33FkA9Aw2Bca1w+A0Pq+BvuBGjvQyUVaIlq4aCFM+nWSIQhauScRhYSfPHkyYHA2q3FKmoe9qHHYfzQVTqVlo23GeThzNgfSz52HDMzFxeqosnS3+fp4g389bwj094XAej4QFOALQf509IH6eB4S6AONcamjQ6sw8EZbDlumE6lZ8MW0dbB4zV50eXbc8B910RamQ2xTGNYnFkb2jcX721LmZhWzQW7No/Dx0R2Pn2JuUFFi+slurHIj/n+eNL2q1BAELiEggooT3wn4oPkfDo/iJ5iTCrHSc/iA+RuP0zFb0kPoKn7IgDEpLQdOpGThMQtOY04+kwPJ6VmQlp4DZ/FFecEghVxVzeQffr7eEBzohxlfmEH1DLlBsB80QcPG2MiGENu8AZDxox4SuUDT8hDuqAsvvfgSoA2BRdk6dDIdVmw9BvtQMDl8PAVOpWQixuVin0W7qrExiiLcIqIhxEWHQUdc3ujSpgm0aR5qE43MKbzXvpi+Fhau3AMlDiywELBkyxIbHQ6De7aG6/u3gUjLLRHRzfANhhZ4d/v27f/F839Sf2amNKw3Gp8lm8ysL9VcHAERVJz0BkAh5TEcGmlTzEnkang7Plja4fFnzD7mNKJVZ3/CGVi+5Qis25kA+w+f0sUXrptbHWgcGgQtmjSE6GYNoFWzhtAGDRtjdCTAaGGqVVaIGpHVO46jcHIENuxIQG1Jlha5Xcq8cEkrukUjaNcq3CC8WNs243R6Nnw1fQPMW7ELSkocV8NSebK6dWgJ48f0hoFdIitfrs15Bla+HZ8nZEhFy0GxZjZGHz4P4DNlqpn1pZoLIyCCihNOPj5URuKw5mE2x9D1m2eeeeb1Tz/9lJZ57sNskZSNNg4rtx2D1Zg370pAl0/ruOtahNkqjZAAExYaDFEouHSMaQI92jWFTjFhul9KomFs3pcE0xbvhBUbD+ragLQK5BU/yTYjDgWXYX3bwKh+sRDga3nbjBRc5nr72yWwctOBin4d/SSqRWO4f3QvuHlgW0tpqRb89NNP9zz44INvIjYUf8Xc9DwKK/RskSQIsBEQQYUNlWMQopDSATldh9nfRI7Jo+cefIiQNmUO5igT61cj34vLCn9vOgLrdx6Dg0eTLbJ8U60TO13wwNgYrVqEQYfWTaBbXFPo1b4pNAzSx+Z4GTn5MH3JXpi1bBecPJ1uJ4Qs3y1h3qtTNIwa0NZgUGrpZbpFGw7DO98scighWoVyaEggjBvVHe6+rosl4rZkYn998RnTD4+krTU3zMH9+JyZqOJdygWBcgREUClHwgmO+AAJw2FsxtzUxOHkID2tIZM7CQkpZn+2kuHr3LXxMGnuFog/ctpENhybPKxRMHSJaw6De7SCQd1agq+3uc9x83BIz8pDY9H1MHvZDpbxq3m96KOWr7cX9OseAzcObAeDura0lNYAyLvpP98vhfkrd2EgN32M1RJcUMyWW4Z3hvGje6Jhea0EarKqHoPPmmw8/onZHENbaoOeNwvwKEkQUCIggooSIscgwAcHLfOQJqWXiRyTodtIfGi0xON0zOYsFxke8BPnbYMZi7bD2UySe1w70dd/p7gWMKBbNAzv1QqaNQ6yGiBZ5wvgqxkb4Y+F26BQx/FBrAVAILpGX4seMLcMbg892kRYpJu1uxPh318tgGT0NHOmRPflHTf0hOfu6l8brysS4d7AZw7Zm9ASc1szMMrHOoPxuSMGtmaA52pVRFBxkhnHh8bLOJT3TRxOAtIPw4cFqXLJaJbcmU1KFMXz1/k74JtpqyH7PD17JNWEQPOmodC/axQM6RkDPdpGWCzy6O9L98BHPy6BvHyyVZTUrnVTePLO/hYxJiUD5A9+WQXTF2xxqmVLukvIaPyNh0fCkB61WuH9IyQk5EGMBTQFm7zBjLuPDHWvwefPQTPqShUXQkAEFSeYbBRSWuMwdmH2NmE4SUjbCx8St+LxMxPqVZCu2ZkI7/24FI6fJKWMJC4C/n6+0KtzS7i+XxsY3jvGLKElIzsfXv5iAazZcojbrUvRxcVEwFN39MMluFq9iA2Y7TycAq9+Ph8SnPA+v7Z3G3jzkeG1icWyJz4+vm/btm3/jWC9YMZNdgLr9MHnULIZdaWKiyAggoqDTzQKKaQFWYP5GhOGkkf0+HAYikcKdW1SOpudB698sVBekiahdjVxaIMg+O39u6C5GUtCizcehjdxWSIrh6ZRkhYCca0i4Ik7+8HgWgosFOvng4mr4Lc5G53KdoWw88MgfU/ePRDuu6EbbsughabRsrNY0g0fRQPx+B1mU23c9mKdfvg8IrsXSYJANQREUKkGiWNdwIfDE8jxlyZwfQFpb8GHghse/zKhnoGU1u5f/L85kOlA7sWmjtHa9KR2n/LB3YYddE3pK6+gGN74ZgksQENPSaYh0Ca6CTyOAsvQ7tGmVaxCPXt1PPz7i/kO6epdZSjVfhJG7z5xHW6OSPsTmpyKsMZwfB5RvBUKnR9iYgurqT4+l6gdSYLAVQiIoHIVHI71Ax8KzZHjfZjrmcD5y/gwWIz0WzCTlw8rkS3KJ5PXws8z19o0gimLOQciatK4PmpS7obwBqZ5j2/cexJe+mwupJ3JcqDR6o/V1rjR31N3DqiVbca+Y2nw6Dsz4EyG8ykAKGLwvTf3hZfuHWCOdoU+gh7A5xIFpFmB2dRwyjOxzm34fKJ2JAkCFQiIoFIBheOd4AOBBI7hJnA+GR8CtI68B3Mot14ufsmP/88M2LEvkVtF6GpAgGJazPjkPgjDvW5MSf/321r4acYaIGFRkmUQINuMdx8fadhI0ZwWyUbokf/+CXsOOOcWNv26t4YvXhxtjos93aR34LOJNiKcjdnUPSm+xmfU4+bMidRxXgRI/S/JARHABwEJKKYIKUmjRo16FuuQcMMWUih42B0vTRYhpZb3CG0k9/nLY0wWUt79aTn8MH21CCm1xL9q9RUbD8DIR7+FmSv2Vy1i/aadoqd9MA5jk3Rl0Tsa0dqth+AfL/wKyWfPm8o6WblMRWGDYhQ8bGplpH8Mn230nJIkCFQgIBqVCigc6wT/mdcjx31M4JpipYxF+vu4deghde/rv2F0U/IilFQbBJ65bwg8MqaXSU28+e1S+H0Bxe+TZE0E+nSNgfefvA53dTZlBfUKR5MX7YQPv1/s8BscXhnRlbP6Qf4w4bVboUts+JWLvLNiJOuAz6lb8fgOr0oFFdm5dMTnlfPsaVAxNDkxBwERVMxBzc518J9/MLKwzAQ2fsV/+klIv5xb53hyJtzz6hSnXIfnYmApOnoRTnzrNpOae+3rv+HPRVtNqiPE5iNAO2s/d/9QGDe8o1mNbNmfBE++NxM9sWjFw7mSp2ddeOepG2H0gDhTB0ZgROHz6i08Pmpi5UX4zLrOxDpC7qQIiKDigBOL//hkId+fyXrq8OHDuyxevHg70odx6tByzy3P/AypYrjJgUuThuxS5n35IAT5+2jSlReSGcrLXy2E2Ut2lF+Sow0RoN2HP3zqBohoFGByr6fScmDcq5Oc8v+G3JYfvK0/PI8RbU1MZ/bs2dOyY8eOk7HezSbWJS0wLVVLcnEERFBxsBsAhZQByPIqE9geg//sFHn2X5w6JaUX4M5XfoM9B53TSJCDgaVo3N3d4Jf372GHdSch5YXP5sO8FeJ+bKk5MKcdHy8veO2REXDrkPYmV6fl0nGvTHK60PvlQAzuGwf/e+5GMHFDyCMoqHRGgYWEDlPiPcUjPS0BlZb3L0fXRECMaR1v3t80geX1+E9+HOmf4tZ5CQO5iZDCRUub7vFxg0wSUp75ZK4IKdqQ2qS0oKgIXv98Drzz43KTjZjJ7XzqB/dAk7D6NuHV1p0sXx+PWqMpuKeUSbJDq927d/+NvN6I2RTrZVpresjWY5T+9IeACCr6mxOjHKE2pS8WDjJKUKXAz8+PjNimYWbN8zczN0kwsSoYmvuzZ+doePzW3uzqX83YAItW72HTC6H1EaAotPf++3fDhpum9Ebu5ySsNA03NeaZKb3Yj3bvwSR49L2/gHZKNyH1xY+m75B+BGZTwuW/iM89dxP6EVInRID1AnPCcTvqkNiaERzghtzc3Eg8tuYMlvYz+WISxWiSVFsEQtBT4n/P08cjL23el4SbOq7iEQuVTRHYsusY3PLsz3D0VKZJ/TauXw+m4rJfsyYNTarnKMQbth+GFz5fYCq7t6KwQs8w1jL05cab49EU70ZTeRJ6B0BABBUHmCRiEb8qAvDAfvsFBAS8i/SUlYn2MaFN1y5ckICQSrAYBC+PHw4hAbygnGS4/OzHs/DrVLBnQGsXkqTkDLjtuZ9h2ZZjJvUfWt8Ppn2I+znhztnOmGgrh/cnrjR1aC+gsJKFlVabUHGUCbRC6oQIiKDiOJN6C7LK3R15Y3Z2NgU+YOmev5q+ySl3hrXH1LaPbQo39o9ld/3M/82Fs5k5bHohtA8CefmF8OR/f4ev/9xoEgMNAlFYwc0nI5uZtX+OSX3Zg/iXv9bDD7NNdqOfirw+jZkrnbM/0OyBgfRpfQREULE+xpbqYRy3IV9fX7JNYWlTSKX9059ruU0LnQYCbujD+dr4YRoUVxd9NX0DbN559OqL8ku3CFy4cBE+/3U5PPvpPJOMbCmK7ZT3xzntMtCnPy8B2qzRhNQAtSokfPzBrNMaNcoxTFohc0IERFBxgEnFf1KKf3Itk9VjeXl55HLQmEP/Cu4EW2yaBT+nWZekGda/PXSOoalSJwoQ9rXYpaiB0iHFgpW74emP55omrOBS4I9vjYVAf96SoA6HbZQl2oPq9c/mwOodiUZpaih4LTg4eF4N141dkuUfY8i4wHURVBxjkm9HNllzVbdu3SlI+wFnWKu2H3faTdU447ckjbenJ7z8z0GsJs/lFMKzH4ldCgssnRItWbsXnvxojknCSvPGQfDlq7eCh4fzObGUlJbB0+//AbuPpnJnzOv06dNjkJjC5XOSCCoclJyUhvXyc9KxO9Kw2Ms+f/31VxoOLIIzuC+nreGQCQ0Dgbtu6sXecPC9n5dDutilMFDVN8mydfvgifdnm+Sm27NdU3jzsRv0PTAzuSsoLIKH3pwGqZm8bQR8fHxuxBAK3HXn7qhZrmMma1LNwREQQUXnE3h5bbYrk81tuEMyS6hZt/sE7DuUxGxWyLQQaFA/AJ64jRczZV9CGsxHbwlJzoHA8o374fEPTIspQhFv/zmGgkU7X8rKyYMP+Z5A7p999lkeEwVaM2vKpBUyJ0NABBX9T+hwLovNmjX7C2l7cei/nCraFA5OHJqn7hoEPt4eHFJ457sl6AZuUqAsVrtCZD8EVm46AI++PxPIzZ+bXr5vAFzbuw2X3KHoFmPgwr3MJaA77riDFefpMgCtHAoIYdZiCIigYjEordbQAGbLZcuXL6c3oHJON2GAsV3xJ5jNCkAb518AACAASURBVJkWAq0iw+A25p4wC9YdEty1wHTgstWbD8Kj//3LJGHlsxdugtgoiiLgXImMa9/5YSlrULj0E+Xh4cGNxy+CCgtV5yNSvtScb8iOM6LLa7JcQWVFdHT03ZzR/TRrM4dMaBgIPHBLLwzGpyakzR4//mWZmlAoHBaBNVsOwYufLWTzTxv7/fDvsUA7bDtb2o0fQvHHz3CG5Y67u5/lECKNuCgzgXI2MhFU9D2jccheAw6L7du3J+mD6DVTTl4RbNolsTs0QWIWhgT7w439lJAbWvsO91FKSTvHbFnIHBUBcl3+4vf1bPYpeu1nL48B2mnb2dLC9YdYQ3r++ed566YAolFhIep8RM733+Fcc8TVpsB3333H2lRkzpp4iZtioXvk1hFd8QWjVqeczc6Dn2dusFCv0ozeEfhm6iqYt/Ygm82useHw0Fj2vzq7XXsTrt5ymMVCjx49/FmEIqgwYXI+MhFU9D2nA5ns5fbu3Xskh3b+qn0cMqFRIODpWRfuuaGLgupS8Ue/rIa8gkIWrRA5PgJko/HaZ3Nh56EU9mCevr0vdIprzqZ3BMIjiSmQfPa8klV0U/ZEWxUlHRK0FBdlDkzORyOCir7ntD+HvbCwsG1I10xFm5JxXgK8qUBilg/p05a18WBGdj4sWrOH2aqQOQsCRcXF8Og70+F0ejZrSGTn9NmLo8Hfz5dF7whEKK/Byu0JLFbxGcahoyUiHw6h0DgXAiKo6HQ+8cuBdrZj7WR25513pnGGMXPZXpMiaXLadFWaB0b3YA39l/nbZamNhZTzEZ3LzoUH35qB2rRi1uDCQvzhnaecKxhc4ukM1ti7dOFpJ7Exb1aDQuRUCIigot/p7Mtl7bHHHmPZpyxef4DbpNBpINAhthm0i1LLkBRXY+biHRotSZGzI5BwMg0Dws0C0i5w0sg+MTB6GPulzWnSrjQnU3gG5N26dePyKYIKFyknohNBRb+T2YbJWmFkZCRpXzRTNnr7HEtM1aSRQh4Cd4/iaVNmrzwAGVnqNXper0LlqAhs3HEEvpm5kc3+2w8Pg+YRLGc/dpv2IjyVyhNU0GuRy6IIKlyknIhOBBX9TibLFS8wMHAXLhMpF3g37jkhyz4WmOuGGC7/hn68YJqT522xQI/ShDMg8PWUVbDrMM+41hsNtT985iZwc1N7lOkdm5S0LBaLrVqxHnfUlggqLESdi0gEFf3OJyu40dChQ+lJoHyibdp7Ur8jdSDOhvSNAzdGhLdtB07BwWPJDjQyYdWaCNDuws/+3yzILyxhddM5JgxuHsZeDmG1aQ8i8nYjg3JVYhrTUjNeqrak3PkQEEFFh3OKGhJ3ZKslh7Xx48cHc+h2xIugwsFJRXNjf16AN4n+q0LS9cpPp2TC618vZg/81fsHQUgQN8QIu1mbEx47pTao9fJiyx+iUbH5DNq/QxFU7D8HNXFAARU8ayqoeg2DJSndkukr7qjYp1SFzuTfFOq8CwbnUiVyA1+N4dQlCQJVEaDItXNWx1e9XOPvej6e8PL4oTWWOdLF7PwiJbvu7u5Qt25dJR0SiKDCQcnJaERQ0eeEspZ96J8bbVRCVUPYvO8klJVdUJFJuQKBa3vFKiguFc9auU/wZiHlmkRvf70QTqXlsAZPGryenaNZtHolKi7i7Srt6cn6NmMR6RUL4cs8BERQMQ83a9diWZY1aNCg7PIykSY/Yp+iCQ+7cNQAniPWkvX88OnszoXQaRDIyy+EZz+dwx7Pu4+NAC/eS5zdpi0Ji0t5myMzBRW1wYstByd92QQBEVRsArPJnbA0KlFRUaxAb0dPppvMgFS4GgHy9unWJuLqizX8OoWRSA8eO11DiVwSBK4gQLsLT/t795ULGmfNGgfBg7eywypptGSfoqJinkbFw8ODw6D4+3NQcjIaEVT0OaEsjUqvPr1Y8blPMV0E9QmFPrgaxFz2mYv2B9zgXvoYmXBhLwT+9+tyOJfD2wPqsdt6QaPQIHuxWqt+i0osqlHhrZnVimOprDcERFDR24xc4kdtsYl0gwcNVrolU3OpIqhcQrUWf0f1l2WfWsAnVWtAIPt8Prz707IaSqpfquvmDuPHOKZWhatRYS79iKBS/fZw+isiqOhzilmfTnFxccotR1MzcqEQN0iTZD4CwYH1oHtcU2UDsuyjhEgIqiCwEL2AtuxPqnK15p93jOgAoQ1Yj4aaG7DT1Qu4lQQniaDCQck1aURQ0ee8s55GDRs2VNIlMDcF0ycM+uCqS7tmwIjxBrLso4/5ciQuLuA64b8xtkpZmXozINKqPPiPPo40PAOvfr68GCnF6g+qoosXL8pXl8PdAbVnWASV2mNo0RYue/HUUzVKMQd8fX2VGpVjpzNVTUm5AoGe7VsoKC4Vi7cPCyYhqoLAcdy48LtZm6pcrfnnuJEdgeL5OFIKYAoq+flKhx5Z9nGkibcgryKoWBBMCzUVgO0obU/QNRm/8uso5+9EMm9TMAvx7pTN9O/cQjkuChN+SELmK3ESgpoR+HHGeqCNQ1WJtCoPOJhWpZ4fT6NSUFCgGr4IKiqEnLRc+aJz0nHreVjK5RxiPiiIRQYnMWy3JPMRCAn2h8jw+soG1u9OlE0flSgJgTEEaE+c72ZuNlZ81fVxIzoDucs7SvJnCiqiUXGUGbU9nyKo2B5zVY8sCaRePeXqkKGfc4wNwVQMuXJ5l7a0m4E6bdp7Qk0kFIKABgK/L9gCOYxw8x513RxKqxLoq456X1JSAqXqwHASEErj/nHmIhFU9De7LEGFq1HJLVCrk/UHgX446tmeJ6jsiD+lH6aFE4dEgCLWfv/XFhbv40Z0ggYOolXhaFQKC1nxZORrgHV3OB+RCCr6m1OWpVyjRo1YnOeJoMLCyRhRv84tjBVVXKegXSeSzlT8lhNBwFwEps3fArkFascWT4+6cP8Yx/AACmAs/TAFlURzcZV6jo2ACCr6mz+WRqVx48ascI/5eeqHnv4g0AdHZAfQIixYycz6PSfEPkWJkhBwEMjNK4AfZ2/lkMLdIztBSJA/i9ZeRO7ubuDnrd5HMC8vj8NiIodIaJwPARFU9DenLCu58PBwlgSSz1Op6g8FHXDUumVjFhdin8KCSYiYCEyZuxnyC0uU1KRVue8WfWtVSJDixCDKzmbtBiJLP8q7wjkJRFDR37yqIz8hzxjsTcl5AT7sysouKOmEoGYEWjZtUHNBlas74k9WuSI/BQHzEcjJzYef5vC0Kvfe0BmCAniG9eZzZH7NRg1Z312QmprK6SSRQyQ0zoeACCr6m1P1pxTyHBwc7K5inROXQdWGK5e3asYTBilglyRBwJIITJ6zGehDQ5W8UKsyon9bFZndysPVwbMNvB08eFDFI2mQU1REUu6cCIigor95ZdmeoNcPQ1BRBlDS3+h1xFFMM7VG5dDJs3DhAksJpqORCSt6RyD7fB5MnL+Dxeboge1YdPYgCmfu+Lxnzx4Ve0kYPl/UwyqUnLRcBBX9TSxLUAkMDFTOXW6++otMf8PXB0duuLDemiOonDirD4aFC6dDYNLsjbihqPpx0Ll1GIQ1Uht92wOgiEa8pZ8DBw6o2EtUEUi58yKgfNk579B1OzL1kwlZd3OTqbPmDFKMCh9vD2UXR5MkBpUSJCEwC4Fz2bkwacFOVt1hfdqw6GxN1KwxT4BKTk5WsZaoIpBy50VA3nb6m1uWGgQjOSr3A3J3U5Lob/Q64ah5hHrZh1hNSBKNik6mzCnZmLtSuSRiGPfoQfpc/mkexoq2AGfPKv+PjjnlBMugWAiIoMKCyaZELI0KR1Cpi6G2JZmHQGSTEFbFE8kZLDohEgTMQeDI8RQ4dipTWTUuMhS4wrWyMQsRkNY3oqE6fiXFUGHEUdltIbakGQdEQN5k+ps0lqBSXKwOo+LhrrS31d/odcJRNMM+pfRCGSSnye7UOpkyp2XjrxX7WGMb1jeORWcroga4oae7u1qrm5LCcuYRQcVWE6fDfkRQ0d+k8JZ+StVkFBVSknkItG6udk0+lnRO4tSYB6/L1vL29IT6GAQttEEQRISFQGSzRtA6KhziYiKgRdNQCPT3AzLkrpyWbNhf+afR85t15v3TghmH6Pjx40bHdLkgEz1+TquIpNx5EajrvENz2JGxNCqlJWqyuoyvGYdFycqMxzZX26gcOiH7+1h5Ghy2efLC6dA6AmgJkQxKW4RjRnuNkEBf5ZjKyi5CelYepGachzOZuZB2Ltfg/ePtqf24joqoD9EtGsPRRFbwNCUftSVo3YK3H9muXbtUXYk2RYWQk5dr3/lOPnidDk8tgSDjnKUfsVExb4aDAvwgyN9HWfnwSevYp/h6exnsDRrW94fAet4YedQHjz4GntxQS5Z9vhBzPpzLKYDs3ALIxJfaMRSa8gpYO9AqxyUEpiNAmpBenVpC744toF+XFizbDGO90HJJ45B6hmyMxtj13siDXgSVNpE8QWXlypXGhlN+nWdRXE4tR6dDQAQV/U1pPocllqDiJjYqHCyr0jQL5xnSJmCwt9omHxRKurZrDnHRYRCHD/a2LUPxC5znKVG57wsXL8K2g6dhzfYE2LjrOBw8lgylpWWVSeTcCgi0a90U7h7VHUZd04Zlj2EFFq5qsm0UTzi4qpKVfrSP5u2VtX+/cmlLNCpWmiNHaVYEFf3N1AkOSyxBpe7Va92cdoUGILIpT1A5nmyeoBLo7wvXdGsFw/vEwqCukUCby9U2kV1DjzYRhgx39Yec/CKYtXI//PjHejiTkV3b5qV+JQTIhGRw33bw6D96QzsdCQbEYtuo0Eqc2u/UE5epopvWVzJQWloKDGNa0agokXRugto/IZ0bH5uPDo3GUurUqUNaFc3FbI6gYokXoM0B0EGHURFqQ1pUYMCpFP7ST2hIIAzo2Rqu69saerVvVs1g0tLDDvD1gnuv7wJ3DOsAP83dBj//uQFosztJtUOgSeP68O6T10OfDs1r15CVaofhfaaH1CIilHWPnzx5EjDUghbLpBZUqly0GpAyx0dABBV9zmECsqUZwSk3N1fJOb2saGmhoLBISSsEVxDgBKk6mZaFdkLa5kTNmjSEa3vGwHX92kBHphr8CheWOSNh9dExvWDcyM7w+dR1MHXeZtybSLZMMRVd0ljdfkNPeOm+gaAyajW1bUvS6yXIY6vmPM3Ojh3K/YwO48ebGF9Z8iZxwLZEUNHnpFEURk1B5ciRIyzOG2HApcQk8U5hgXWZqD4ar6rS8dPG46d07dASHrutL1zTUT9f3SS0vvHgYBjSsxU88e4fkJtfoBqilF9GgJYx/u+FMTC8VyvdY1JSpg8hNNZyhrRin6L7u876DIqgYn2MzemBNCqaaefOnZrl5YXhoSKolGPBPQYHaK66GZrJyL56GYW+uPt2i4HHb78GOseEcbuyOV1vXHb69b274IF/T4WsnDyb9+9oHZJG8qvXb9OV0KmF4YHj+vgo4drubNy4UWs4VKb0XVY1IOWOj4AIKvqcQ+W+FlyNCnebdX3CYB+uOBoVcgumREH1hvRpiwJKH9xtWW3bYp8RXd0rvUR+++AeuO/1KXA2M+fqQvlVgQC5if/4zjjoGhtecU3vJ3mF6ojV1h4DCe3tonneRwkJym+y9dbmV9rXPwIiqOhzjpSCCmMTL8PImjbSh3GdPmGuzhV5dAQzln5y8opg9LAu8PitfcxyJ67es22vtELPpukf3Qe3vTARMs6dt23nDtAb3QcfPjfaIkJKRk4+nEjOghOp5yApNQuSz+ZAfn4xFGHQxiK0cyoqLgG0w4D6AfUgJNgPGmIODfGHRnTEWDoUU6U+avmIJ1UqLbX/0k9TNEanpUZVys7OBsoaiaSubRrlUuQiCIigos+JVgoqhYWFho28/Pz8NEfQPEztIqjZgIsV+vp4s7wV7r2+Kwo03jZDpwRfQNl5BUBH0vh4WcClOaJRAEx47Ta488WJYmBbZSbHjOgOw8y0SSEhdsW2Y7BuRwJs3ZcIqWeyqrRu+s+6dd3hj08fwFg72kaqehBUOsY0YQ1w3z7lHkbbxJCWBaXTE4mgos8pTkS2yjBrRmxLTU2FqKgozRGYEzxMs0EnL6yHkWA5yRpCCn1h7zt2BvYeTYH4hFQ4lJAGqenZkI9eW1U9jGjPmACMntuoYQD0aB8J/btEQre4cKhrYpC/zq3D4NaR3WH6gs2cYbsEDe258+b4wSaPde/RVJiIruBL1++rNl8mN1alAgXvI5d4VSoto8eGfVPXtk1ZDCxatEhFt05FIOWugYAIKjqcZ/yKKMFYKknIWgst9hITE5WCSiTuMSKJj0Cgn9rjh9+ampKWBRatPwTLNx+GbXuPs19whbh7dmFGsSGY296DSfDTH2ugHvJ+7+he8NAtPU1yoX3p3gGwbEO8LAFdnq43HxlhUhC+VNyP57UvF8K6bYfVE14LirqMAI6kcbN3IoNtTlqyZImKTAQVFUIuUi6Cin4nmpZ/WmixFx8fD4MHa3/5+Xp74I6svoa9YbTakrJLCPgz9vipLVYn0U5h4fqDsHzTYdh3OAmXXRifyoxOc3FpaMKUlTBtwTZ4+u5BcDsGe+MkPx9PePnB4fDCx39yyJ2apn1sUwzmxnvREhDz1h6EtyYsAMLeWCLbEm9PLygtK8XM04zU1JYnLv+oUqmdY+TQztDNGVtAkE0OPb80Ev1TbNAolyIXQkAEFf1ONgkqmlLI3r17Wdw3ahgkggoLKYBAP7URILOpq8iOncqEv1bsg5VbD8MxK+9um5l1Ht78ci4kJp+Dl+8bcBUfxn7c2D8W/lgSBVt2023nuulhjH/DTZMX7oT3vltYo6DpgUJFx7jmMKRXDFzfNxaNYutVNFuKuyOXoNByLqcQpi/ZDX8t2cna5qB+oLY9GnVQdYmwolMbnbRj2qccO3bMYGOnwdZBFGb4oZ81GpIix0dABBX9zmGCijVGVEdDExRL5XBCsqo5KUcEAhkxVEwBajfaLUz4fR2s3XqoxheaKW2ZSjtx5lrIySuE9x4fzqr65Lh+cLcLCyoUSXho92gWVqRJ+e+3C6rZjbSNaQrjru8GI3q3AtJUkVqgqrNOXdwdua67B/g08IBn7rwGbh/eCa5/7FvIyzcegJXiuXCE6DPn7Bsbp0tcBAs/WfZhwSRElxEQQUW/t4Ly0/bEiRMs7iMamb4bL6thJyTy8fSwyKg27DkJ38xYbxENBS1HDMRNDD2RNy9Pd6AlAPpi9/Rwg8MnM2D1lsNwJDGl2kuTBjJz8VagXWzvGN5ROS7a1DC8cTAkoxutK6YhvVuzhn0aDZzf+qq6kHL36D7w2v2DDG2gjdmlI6PFMHQ//sfwLvDrLOMrHaEN/BktASSf0XT3ZbVRG6KebXnLZrNnz1Z1s05FIOWug4AIKvqda6Wgcu7cOSjDNW93d+21axFU+JNct64bn7gGyiWbjsC3f2yA/Wh7UtvUKjIMPn1+NMQ0097N+fm7+kFqRi4s2nAIVqDQsnN/Im70VlbR/ae/LMcv/NYsd+rBvWJh8uyNFXVd6aRrm6as4X44cVW1LQgimzWC1x+4llW/JqJDidoRZRs14MVDSrGjoOKFnmgdYniB3hiRtUVQqelGcdFrtXsquyhoNhq2UlAhIUURMMnAarMw0ahw58zH25NLehXd9oPJcN2TP8KT/51uESGF3I8/f/FmpZBSzgQFBfvnqK4w+Z07YMWPT0GH2CtftrRr8js/Lisn1Txe3y9Os9xZC0kB0jVWHf/jVFoOekhV38z3mi5RZkFzAY1KaTuG3fHagm0YU1BJy7CfRqVtqyYs9/j09HRQBKxMQfsU5dK3WYBLJYdEQAQVnU4b/qNSbHPl2k5KSopyBG2ZG4QpG3IBgqZoz2NKKigsgX9/uxTuemmiRY1kRw3pBFER5gXrC63vB9M+HAfD+7WvGMrCVbvgKBr0qhLtUxTawPUE28ahwSyN0/x18ajFvFANxhWbDwIJHaYmWiJ66qPZUFCkvcM52Zlx0hk7Cir9u/OEtTVr1qiGYnwNTFVTyp0SARFU9D2tW1TsHUtQKl4MIbiDA694HajadOXyQGbAN8Jo9Y5EGPH4d4ZgaZZyMS7H/sAxtQBaTlvTkQK/PXfPFY8feofOXaPpDlrRzLW9eLYaFRWc4KRNy8asUew5VPO8nE7JhC9+v/R+5Ygr5J5L6eNJa2DbHrXyIIIhqFA8l8pLfqwBWZBocHfe7tIzZ85U9bpURSDlroWACCr6nu+tKvbWr+Pt2dVKtCoqKA3lh0+ks+hewgBfD7/1m0XCo9fU4cFjyUDamtokimfRJvrKcsayjQdZzY1Ed1pXS+1jeN4q8Rrec99MXQkf/LLS4OWjpV0hIaUEXZSf/r+5hkB9HKybhau1XCfTsjhNWYUmNCSQvUy5YYNSYbLYKkxKow6LgAgq+p46pUZl8WLe/3TbKN4Xo77hsD539FXKSUvXxtfoZcOpy6GhkOmfTFGqyDWbyisohuS0Kx48FL8lMeXKb2OVKay+m5trPRpozKpEUYRTKuFZE/3Emeth7EuTYe3O4zUVG5aHlm05Brc8OxEWr95TI01NF2MitA2qqU5Siv3sU3p1alkT29WuZWRkgMJb8QAKcsol72oNywWnRkC8fvQ9vduRPVoQN/rWOHz4ML4wL+LOqpfcIY0Np110uLEiuV4JgXx8uXOSl5cH5BUUckjNppkyZxP0at8ChvTgrf1X7eibmZurBfqbv+YAPDG2T1XSq37ThofhjYLhVErGVded+Uc07iatStvjT6tIDOW74k/AQ2+egOgWjSEuKsywG3dQgB+cSsuEZRiROPu8abFO/P18IYgRMfmUBTY/ZA2wBqIB3aJruFr9EsMtmfflVb1pueLECIigouPJRQEkFwWQA8hiW2Ns0i7KZ9LPQKNQbbfAzq1Fo2IMw8rXC3ADQE7ywa0JrJ1o+eDVz+ZAyJt3AOeLvzI/y3H33kmzNla+ZDjfcfBUtWs1XWjZtIFLCSq+KHiq0nGM9GtKOooaLMq1TRFhvP26Ek+rjaVry0tN9Wln54FdI2sqqnZtypQp1a5VubCoym/5KQgY/1IXbHSDgHL5Z89utQq5ScNA3PNHHYJbN6O2EyP5TLsQbzPdmE0dVvb5fLj7lV/gt0U72VV/X7IHnnx3OhThxoVV0/FTPBuc6GYNq1Z16t+FuHO1KnnUMsaOqn1j5U3DeN5fJ5LtI6jEoR1UPYzCq0oUTmHr1q1aZPlYWLv1Tq3WpcxhETC6pOCwI3I+xjX/s2m4y5cvZ41aDGrVMBUU8QxYfRhf4OreeBTkyfHO1wvg0fdmwtrdiUZtY1ZtPw53vPKbYZ+fmlxoqbdUNLjkGOm2iQzlMeckVCUl1V2Oqw6NogHbIzVn7oB+Cj2P7JH6MmPI7N69G3JzNW3AVqIWmafStMdApU+7ISBLP3aDnt2xUqOyaNEi+OCDD5QNxqFBLccVUtmQExNwXuI0fHMDw9UGuhUbDwDlBvUDYGjfOCBX6nM5BZCFWpcjGNk04WSasnlaTjqQmA5dYrVtltq4mJdYEUej4mEfQSWyiVqjkpNXZLLti/JmYRIM6cGzT5k0aZKqRbFPUSHkouUiqOh/4mldh74yvIyxyjWopT1fJGkjUKgIvFVe25YalfI+y49nM3Ng2rxN5T9NPsYfT1MKKhRsztOzrt134zV5cGZWKCouU9b0spOgEtVEbeh7JMk+hs8Un6ldlLZ9XDmwCxcuLD81dhT7FGPIuPh1WfrR+Q2AqlBai9ilxWa5Qa0WDZV1itH+ilbVd4XyggLe0o8vY01er3gdQo2KKrmhF1nT8AYqMqcpLy7l2KjY57uO45F01E6CSu/OPI802uojIUEzsN1RfNapo1c6zR0nAzEFARFUTEHLfrTK5Z+9e/YquWuGAcDI1VGScQQKi9QvLKptC68f41zWruQoM6hdVFPXMagtZmhUOAajtZuZ6rVpzydOv8ft5PEzghkccMGCBYYNVKuPsOKKaFMqoJCTqgiIoFIVEX3+VgoqK1asYHHeqgVPTctqzAmJCot5tnx+NvL6sQbEXM+fmOauI6iQjYcqtW5hew1TQADvwyItI0fFvsXL/Xy84dpuPI0Kwz5FuS5k8QFIgw6DgAgqjjFVSs8fMqjlpDixU9GEiTxsyjC8uSrZw5hWxRO3/Fx2LlCUVVWKbeE6nj+HT55VwQFhIf4QUI8nOCgbYxIEMQWVc4z5ZHbJJuvdNRo4Ltu4pAObNmnaVFFIXd6XFps7IXQmBERQcYzZPIxsasbHPnTokCFCrWo47URQUUEEuYXV449UreTnow4QVrWOnn7vP3ZGyU5bppGksiEHIDiIBsac1NLG8WWCAnw4bMG5bNOi3bIaVRCN7NtGQXGpeMuWLUA2KhppHgoz6n86jQakyLkREEHFAeYX/4npE19Tq1JQUABnz6q/Cju1FoNa1ZTTHjmq5OvASz80toPozqxK4Q38wc/XW0XmFOVHEnmCiq2XTusH+rHwJRd1WyYfLy/21g5fffWVirU/VQRS7toIiKDiOPOvKajQMPbuVRvURmI4bld5+Zg7tbn5akHFkW1UCJdDDEGF6JpH2N4ug/q1dUo8nW7YMFDVb5uWtrXxCmYu/WRjPB1bpp6dW4I3uq+rEn1jKZalc7GNv1XtSLlrIyCCiuPM/xYVqytXrlSRGMqjxaBWE6eCYrWLsidu3OfIKSEpncV+KxcxqC0uLoUjSWqNJDdmCAtcBlGDQLVNDAWr4+5RxeiSRTLyGt6yz65du4B2TNZIC1CYKdQolyJBQPb6caB7QCmoKL5cKobapqUEfqsAo4YTd8VO1FTl4kV1yPUamtbNpUTGS5mYjW7qOga1e4+ol3/aNG8AtAmfrVJIkHrpJz3LtvYpFAhwWM9WLAhk2YcFkxApEBCNigIgvRTjV0cy8kLZaIqPj2cZ1LaP1C4XiQAAIABJREFUDjPahhQA4I7VShhKGZ5BykbsSJCPu0SfStc0cDRwF94wwI5c2rbrAwyDWtKkdWjdzGaMhTA0KunnbGuf0qNDS/Bl7h4+b948LaxovWqhFoGUCQKEgAgqjnUfaGpVyKBWoWY1jFYMarUnva67+t/ikn2zdjt6L03LUH+J12d6neh9rBz+uJ4/g5jaBE6fKhp/P6M7Z1RUzS1Qx4CpILbAyQimt8++ffsgPV1ziXER/h/ZVsqywPilCdsjoH4i254n6dE4ApqCClXjGNRG4SZnvt7qB6BxNpy7hKNRoc39HD1lMJYMOF/0jo5DOf/xh09DSal6SW9E75jyKlY/cvjxdLfdUhTtID28D2/8EyZMUOEj3j4qhKTcgIAIKo51Iyg9fzgGtbSyEeVCwbxMnWJ3N/XSz4ULji+oZDI8ReoH+pgKn8PS03LYul3HlfzTVhQtbGS7U4wBCFXJlobdvbtEQ4Av7yNnzpw5WqyTGmi+FoGUCQLlCIigUo6EYxy3IZuab0iuQW37Vk0cY8R24NLdXS2olDmBRoUlqPj7os2OHSbBTl0u3XyY1XP/btEsutoSlZSqBRUPD9s9xscM6cga0oEDByAlJUWLdgku+5zXIpAyQaAcAdvd4eU9ytFsBPAfOwsrH9FqYP/+/SyD2j4dW2g149JltHOwKl0oUy8RqNqwd/m5HLWNCgltvrini6uktdt4G/gOtdHyD7keq5JnXdu4ygcF1IOhPXjePt98842KbVn2USEk5RUIiKBSAYXDnGzW4pQMajMzM7VIDGV9OjQDd4bRqLIhJyTgaFScwUYli7H0Q9PrX891BJUzZ7Ngf8IZ5V3dPTYCggLUrsPKhhQERYxdnT1tpFEZ0a8tPjPUQjwNaebMmVojo2WfuVoEUiYIVEZABJXKaDjG+UoVm4oNwAzV/Xw8ISZS3JRrwtLNTf1v4Qw2Ktyw67beiK+mObHltb83qZd/SOl2TTeedqE2vBeXMjQqNgo+OHY4b9ln27ZtkJysGUlhzmXtcG2gkbouhID6iexCYDjIUJer+JwxY4aKxFDerZ3t4kGwGNIJkXsd9b+FK2lUAv1dx6CWbsHVW9SCCtGNHcZ7cROtuYljTBvIcGE2t//yeq3woyYukhf87/333y+vZuz4i7ECuS4I1ISA+olcUy25ZjcE8EvkJHauaacydy5Pq9pb7FRqnEc3hrdnmYMHfKOBZ+fxIpe7mqByOCEFONFee7RtCs2ahNR4D1nqYkaWOswIaUdpk0BrphsHdWA1X1JSAkuWLNGiJQtbTQKtylLmmgiIoOKY875Mi+2srCxW4LfeqFGxZThwLZ71VOZeRy2pXLig9sbQ05hq4iUnR/0SpHqB9VxLo0LassUbeFqVm4d0qglai107k5HDaisoyJdFZw4RxU65dXB7VtU///wTcnNpn0Gj6Tf82HL8fx6jw5MCayAggoo1ULV+m8rln/Ub1iu5oDDYYqdSHSYfb7UXhTMs/eTm8XbcDXaxpR+6I+as3FP9xqjhym1DO1hV2E8/p/nSr+CofmC9inNLn1DslOAAnkH1//73P1X3v6oIpFwQqIqACCpVEXGM32RQq+kfO/336ayRdBc7latwIhU6Z/t6rsfMVY3r7AfF6MgtKFZyVd+KX+vKzu1EsO9QEhw9pfaeaxDoB33wRW6tdJYpqDQItp4HEjd2ytmzZ2Hnzp1aUGxDbcp+LQIpEwRqQkAElZpQ0fk1/GenJ6jmE2HBggWsUfTpGMmicxWiQGYk1oxs3rKJ3nHLylVrVTxtuFuwXvCieH6/LdzBYue2EZ1ZdOYQZbAFFX9zmlfWIRdsbuyUL774Akq1vZR+UXYoBIJADQiIoFIDKA5ySdNOJTs7G+gLR5V6tW8KtAYt6RIC9fELmZMys9XB0jjt2JvG0129zFVYrHaRtfc4rNH/otV7oZRhizS4WxQ0rB9gDRYg+3wecJYZG1pJozKiXzt27JRffvlFCwNS3U3TIpAyQcAYAiKoGENG/9eVdipr165VjoKWOVpHhSvpXIUgmCuoMDb0cwTMfH08lGwWFZUoaZyRIAsj9y5cp+lgZxg2RTK+c1RPq0BA8XrSMtV2KqEhlteoUKyYe27oyhrXrl27ICkpSYt23mVNsBaNlAkCNSIggkqNsDjExXXIpeb+7r///jtrIGKncgWmEK6g4iRLPz6eakGloMg1NSp0V/yxRHOFteLGue+GLuDvZx3Pm5R09ZY4jUMsb0zbrUMUREXUrxij1smHH36oVUxlv6gIpFwQMIaACCrGkNH5dfw6IeOCDVpsLl68WKu4okzsVCqggBCm4Wg207X3Ssv6OyPXdE5I9MJi19So0Ixt25sAp9KzlZNHHnS339BNSWcOAUejEmYFjcpd1/O0KWSXsnDhQq2hpWEh72Gk1YqUuSwCIqg49tRr2qnk5ORA2hl6Rminnu0iwMND7FQIpZAg9ZdpHnrKFBWrvWW0Ubd/qZeHWptCXLqyRoWWXqYt2s2arAdv6g4+3pYPvJbKiKUS3sCySz+NQoNgeK8Y1rinT58O9KzRSFPww8p11XIawEgRDwERVHg46ZVKbaeyRm2n4oV7hbSJaqLXMdqUr1CGUeIZJ7FP8UT7JE4qdFEblXJsZi3dCSWlmtEADKRBGG9m9FDLewClZaiXfqhv7nyWj0vreNuwLsDYRNzQxH//+1+tptB/Cr7XIpAyQUCFgAgqKoT0Xb4N2dPUS0+bxjO0796+hb5HaiPuGgarNSpnMtTGjTZit1bdeHoxBRUn0B7VBqiMrPMw9e9drCYe+Ucvi2snzzCMaYm5YIY2kDMIEnjGjezCIYX4+Hg4cOCAFu1S1KYc0iKQMkFAhYAIKiqEdFyODwAKRb1Ki0XFvhsVVa/p1Lzi3JVPQuszBJVzzuGazAlsR/dCkQsb05b/L0yctZHlJtwY75/rBnYor2aRIzc6LWfZksPQkD5t2ZFoX331VVWTE1QEUi4IqBAQQUWFkP7LNe1UaN+N1NRU5Si6tWliUdWxskOdEnCWfs5mOYdGxcvTkzULrhpHpTI4KWnn4K8V+ytfMnr+2K19wM3Nco9WbnRajjbQKNOVCu4dxTMKPn/+vGoDwhPY7PxKTcupIGAWApb7bzKre6lkAQSUdiqrVq1SduOJdipx0a5tp0IGxQF+amPI9HPOEZWWPFU4qciFvX4q4/PDzA2Vfxo9bxEWDIP7xBktN7UgkxmdtmH92hvUxrVqAp1iwlgsfv7551BQoBnZ+FvU+qqNe1i9CZErIyCCioPPPj4IaIE4WWsYU6dO1SquKHN1O5Ugf15UWu4XbgWwOj1pFsaLkUFeTpIAEpPOwOKNh1lQPHF7H7YxqqrBnPP5UFZGNqnaqRFj2VK7BYA7ruNpU/C5A19//bVWcxTj6UctAikTBLgIiKDCRUrfdJrLPytWrGBx37eja9upsKPSOkn4/OhmDVn3RWpaFovOFYi++2M9a5ixzUOhd5cYFq2KiELopzG0Ko1CahfGn/b1uXlgWxU7hnKyfUtJSdGinY7CzFktAikTBLgIiKDCRUrfdJrLP3l5eZCcrKl0MYyuW5sI4Not6BsO87gLCuRFFs10kqi0rZurBZXks+chv1AzALJ5YDtorfgjp2Ht7kQW94+P7cOi4xCl4DyoUuNaBn27ZVhn3PeL90p46623VOyIEa0KISlnI8C7K9nNCaGdENAUVIinlStXKlmjh1TbmHAlnbMScDckpD1gnCG1btFAOYwDiWeUNK5G8PXvtHuFOpHg3ynOMlrKVIagElaLoG/0gfLgzT3Ug0KK06dPw9atW7Vot6E2ZYsWgZQJAqYgIIKKKWjplBYfCqeRtYNa7ImdihY6l8qCA3galSwnCJ/v5+MNnLDrh0+kq4FzMYod+xJhx0G1hpJgeXTsNRZBJy1TrVEJb2i+Me2owR0hhHn/v/3222gzQ5ERjCbRphiFRgrMQUAEFXNQ02cdTTsV8vwhAzhVusaF7VQaMJZ+KEJpfkGhCkbdlzdrEsLi8dhJMTOoCagJ03lalYFdIi2yOzknOm09H0/w8VJ7rVUdj7u7Gzx6a6+ql2v8XVJSAhQyXyNlYBlvN1SNRqRIEKiMgAgqldFw7HPN5Z/8/HyWnUqXNuFmPewcG7pL3IcEqb1+0jF8PkPe0z0ckRHqZR8aRMIpeu9IqorAhu1H4NAJnhA3fkztbVXY0WmDeVrByuMZ0rctRDQMrHzJ6PkPP/yg2tfnJ/wgcnxJ3igCUmAPBERQsQfq1ulzFTarqY/leP/UdXOHtq1dM55KCEOjwn1hWGeKLddqVARPo3LytAgqNaFOnjhfTed5AI3qFwuxUbWz/co6rxmvpIJFU43haT+fx2/rW1Ff64Q0sop9fShmyjdabUiZIGAOAiKomIOaDuvgQ4R8SLdrsfbbb79pFVeU9ekUWXHuSif+jGBvGU5gn0Jz2gUjEasSaY/O5zlHcDvVWM0pX7Z+P5xI5bluv/DPweZ0UamOetm2EjH7lFyoWzfnaddmzpyp0srOxudQIrtzIRQEmAiIoMIEykHINO1U1q5dy7JTGd67tYMM17Jsll5QB9F0t2BodMtyz2/N19sLerSLUFY4cFwMabVAuoD3y4TpG7RIKsrI9qtn5+iK33o5edQEF+rXXntNxfYHKgIpFwTMQUAEFXNQ028dTTsVCnd98uRJJffREfWhSWNe1FJlYw5EUFSkuXJmGIkXhtl39NSlXXOgJT5V2nWInMkkaSGwcPVuSGXubvzSfdeCG6216CR1iG0GPdCFmpNWrV4Fhw8f1iJdgdoUTZ9lrcpSJghoISCCihY6jldGi+aai9nz5s1jjeqarq1YdM5EVKLtcmkYqrenh8MPuV/XKNYY1u9MYNG5MlFJSRl8Mmk1C4K2LUNh6DXtWLS2IHroNr6R7/PPPa9iSbQpKoSk3GwERFAxGzr9VcQvGgohSsKK0TRhAi/EwdDeLiiolJQaxa28wNMJNCpDeqqXIGh/n/2HT5UPW44aCMxfuRuOnsrUoLhS9OK9g4A2v7R3atm8EQztrr4PiM/9+/fD9u2a5m878Nmz1N5jkv6dFwERVJxvbpdoDengwYNAIfVVqQ8uD/j5eqvInKq8gLH00yhE7cKsZ1AofgrHFXXV9uNQUqpeCtPzWG3FG9mqfDiRt59WRKMAuGVYN1uxZrSfB2/ha1Oefvppo+1cLhBtigohKa8VAiKo1Ao+XVaeq+KKgr+pkrt7HejZ0bW8f06nZ6tggQaBfg4dZ6ZXR96yz6ptR5VYCMEVBNZuPQjbmdFqn76zL1BkYHulZk0aws2D4ljdU7j81as1l7aOYEMzWY0JkSBgJgIiqJgJnF6roQr2EPJ2QIu/b77hhTq4tkeMVjNOV3Yq9RxrTI1CecGxWI3ZmGhU/zasHjftEvsUFlCXiSgI4Ac/L2NVoVD1d4/mRYItbzAYdzbmpLIy9fLlk3cOYBv1Pvvss1Baqtnmx/jMUbvLcZgXGkHACAIiqBgBxsEvz9bif9myZaq9OgzVh6Itg5sTuONqYVG57FQaLyZGk0ZBlas5zHlzjEbbo21TJb8UcfVMhlq7pGzIxQj2HDgJSzfzNFGP3NIT6gf5sxFqFhbMos04p72s2yoyDG7sH8tqKysrC+bO1VTQpmBDk1iNCZEgUAsERFCpBXg6rjpLi7eioiLYt2+fFomhLMjfB3dTVgcGUzbkIAQpTEGlJTOqq96GffOQTiyWlm0hbb4kcxD4ZNJK1hYLPt4e8Mjt/dhdNA9TC8cUvTYvXzt6/dN3D2D3SXFTCgs12/vfZQN+dptCKAiYg4AIKuagpv8625DF01psTp48Wau4omxgN9fx/jl7LgdKL6gNSHuiobGjJY+67nDb0A4stlds1oyXwWrDVYmOn0yDGcv2soZ/14jOEBHG28qgRZg6rtHxZG2NYNuYpmxPHzK4VzwjqLNvWQMVIkGglgiIoFJLAPVYHb9yKN72bC3eJk6cqFVcUTbMhaLUXrhwEQ4eV28017tDM4dbEuvXPQbINkKVjqGb7f7DSSoyKddA4Kspq6CY4epOButP3zVIo6UrRS0xCKMqJaZou0g/e89AVRMV5a+88gqcP3++4ncNJ1/jY0aToIY6ckkQMAsBEVTMgs0hKmkKKpmZmZCSQkvM2immWQiEN+atj2u35BilG/acUDJaz8cTWkU2VtLpiWDsiC4sdqYu3slaumA15qJEZN/z01xSaqoT2Yu0idZeXq3n6wOBjH2oTqQY16h0adcCKIw/J5Ftys8//6xFSutBn2sRSJkgYEkERFCxJJr6amsVsmP8yYWFs2dryjIVo7mmi+ss/2zZqxZUCJiucc0q8NH7SVijYBjQOVLJJi17zV/JW7ZQNubiBD//uQFy8in+ojq9+M9rNYnCmMbbSRpea8/fq91HZQbI00cRa+lH1KacqVxHzgUBayIggoo10bVj2/ggIZ/C+VosfP3111rFFWXD+7jOJoW7DySxNAo39OfFoagA0Y4nY0d2Bc4WM4s3HIWsnFw7cuo8Xefk5sNXv69nDahPB+0NC6OaNWS1czqtZvf6Pl1joGtsOKuN9PR0mDZtmhYtbdHxnhaBlAkClkZABBVLI6qv9jRVJuT5k5+fr+S4Lz5ITXGlVDaoYwJ6wcQfV38s0oOforzqPfl4ecG4kZ1ZbE7/eweLToh4CPy+YJtFNiwczIxnlFxDwELaBPF5E2xTHnvsMZWnz1f4EaReM+ZBJFSCAAsBEVRYMDks0WLknNaTjaY1a9YYLSsvoK/xQb14sRfK6zjycQ1zM74bBvK8aOyJxYiB7SDA10vJQvLZ87BtjwR5UwJlAkFRcTF8+ttqVg3DhoX9qm9Y6OlZF4b0UEcTPpdTCGfSq6/0DuoVB9Q2JyUlJanippDx7IectoRGELAkAiKoWBJNnbWFXz4U/WmpFlvcTQpHD3ScpQ6t8XLKFq2N55AZ3H3d3FCK02kiAfOBm3qwuJs0fxuQ15MkyyIwf4UJGxbegxsWoht55dQprjn4YswVVVqy+Ui1JUt3dzd49p4BqqoV5Q8//DAUo3ClkShuSoZGuRQJAlZBQAQVq8Cqq0Y1g7/9/fffUFJSomSYIpqGhjhu6HjlACsRHDqWDIdPqp/HYSH+MKinfgW4bh2ioFVT9fIUudL+tWRXJQTk1FIIlJWZtmHhTUOv9s4a3JO3jcWyTQersXzzsK4QzXBrpopHjhyBpUs1v2nI9/mTap3IBUHABgiIoGIDkO3cxTzs32gUMxJSOJsU0hiu7e06yz9/LNvNmranx/Vj75vCatCCRPeO6s5qbeaK/ZB9Xjv0OqshIaoRAVM2LPzXndeAt6enoR3SiI1gGLIXoaC5dXfiVX0H1POFF+8deNU1rR8PPfSQak+fj1CbkqPVhpQJAtZCQAQVayGrk3bx4UIRzNZpsfPRRx9pFVeUjUZ7B1dJi1bvq6ZKr2nsrZs3gP499SfANWlcH20bomtiudq1yfO3VrsmFyyHAIVf/HDiclaDDYP8YOz13Qy0MS3DoXH9esp6q7YfhwLcFqNyeuzO/qzYK1Rn9+7dqo+VNCT7snL7ci4I2BIBEVRsibb9+tJc/lm5cqXK0t/AeefWYUAxOVwhpWfmwIrtx1hDfeHeQeB1+SuYVcEGRLdf143lkrxhz0k4lphqA45cu4vd8Sdg6VbehoWPj+0LFORtZD/esuKSjbRh+pUU2awR3HtD1ysXFGfjx49XUMB7+MGTryKSckHAWgiIoGItZPXV7nRkx+jyT1lZGSxZuoTF8dA+bVh0zkD07XReHAyyA3jmvsG6GbKvtxfcOaITi5+Jc7aw6ISo9gh8+itvw0KKQvvYuAFw/42XNCtaPZO2Zt22qwWg1x4ayl6OpI+UrVs1NWpJ2P93WjxImSBgbQREULE2wjpoH7+G6JN5hRYrH7z/gVZxRdlNA9tWnDv7yZ6DJ4ETUp9w+OeortBbJxF8R6LbNIX5V6VTGHdj3TbZgFCFk6XKE06kwZw1PI+ye6/vCl4edZVdb41PuipIX/8esdCvYwtlPSLA5wI8OP5BFe07SHf1upKqhpQLAhZGQAQVCwOq4+Z+0+Jt48aNrOBv7Vo2gqbhak8Srb4cqeyLqWvY7P7fszdAUIAfm95ahPffxDOi/WnWVnRJvmAtNqTdGhD4cspquGDYM7SGwkqX6uKGhZy0aP2VZR+KufL6+CGcagaaL7/8EhKOacbOobXPiewGhVAQsBICIqhYCVgdNkt2KhT+2miaP18z4n5FvWF9XUersnP/Cdi0j7Tf6tQg0A/eefIGNaEVKVpHhbNcUgsKS2AuxviQZFsETqVkwLQleyzSKXn7LFqzr6KtO2/oCc0bB1X81jqhvXzefPNNLRIqewu1KbQVhyRBwK4IiKBiV/ht1zk+cM5jb3O1enz//fe1iivKRrvQ8g8N+j/f/Q20YR8nDevVCm4ezjdk5LRpCg3XAHP6sj2Qm6cpt5rSrdCagMC309ZASWntNVk/zt4K57JzDT2HBPnD03dcw+biqaeeAtolWSNRYJ2pGuVSJAjYDAERVGwGtS46mqLFxa5duyAnRx0qIaZZCJBngask8or5YOJq9nDfQmNGeyyP0b4uNzNdyKcu0DSgZI9VCE1H4ExGNkxaWLt9lbLziuDnmRsqOv8X7o7MiWBLFRISEmDKFM1HAZE9jR83tZemqCVJgkAtERBBpZYAOlh12vtHM+TqrFmanswVw+V+uVdUcPCTKXM2sg1rvdFW4Ie3bofGoTw1vKWgad+mGTQOUcfd2LI/CU6cOmupbqUdMxD4YcY6KCw2f1Xli2nrKjRica2awG1D2rO5uOuuu6CoStyVKpX/QCFlTZVr8lMQsBsCIqjYDXrbd4wPH4qVP0Or5w8+4Hn/3DGsE9BeIq6SyADypU/nQg5+yXJSZFgw/PHxPyGqRWMOuUVoru/Psx2atfKKXYNFOpZGTEaAlmx+mGWeazhtIDlj0SWNmJubG/znsZHs/hctWgRkOK+RaBPTFzXKpUgQsDkCrvOmsTm0uu1QU+d78OBByMykbT20U2h9P+ijE3dcbU4tV0oq+5e/XMBukDD6/cO7oSNuLGftVBc3s7upvzrGDQlcKzZW3xfG2vxJ+9UR+GXWRsjINj2O2se/rsLNAy9pY+4c1RPaR/OEYYqX9Mgjj1Rn5Oorn+AHTeLVl+SXIGBfBERQsS/+9uidFrYTtTqeMUNT6VJR9fYRXSrOXeVk+fp4+GPZXvZwA3y94Ld37wCKb2HN1L1DSwjy91F2sWZHIsbdkH19lEDZgICMmV/4jOdpV85OSkYuLF5zyWuIokS/YMLuyB9++CGcPHmyvKmajsl4kWdRX1NtuSYIWAkBEVSsBKxem8WvJYxlqW3Nz13+Gdw9ymV2VK48n+9//zecSlMbHZfX8cTAXd+9PgZuGmI9we4G5rLPnFWy7FM+L3o4rseAez/P3cZmpWGgL0Q3v6RBefux63EDQ3VQOGqcjORJUFGkV/DxIFKsAiQptj0CIqjYHnM99Ki5/HPixAmDZ4CKUdrd9aYhnVRkTleeV1AI//q/WazAXeWDJ4+cj56+DsaPHQBubrxgXuV1VUfaZ+i6vq1VZAaX2DVbJBKtEigbE/zv12UQf/wMq9e6dd3gmzf+Af8Y0R0GdGnBqkNEDz/8sMqjjwxmJrMbFEJBwIYIiKBiQ7D10hV+NVEc751a/HBjqowb2QlfvK53G+09mASvf83bH6kyzs/f1Q8mf3AvNI9oUPlyrc77do1iuaYu23IUcvMldkqtwLZCZbI3+ddHf7G9gCIaBsJbDw9lc7Jv3z6YOXOmFj1pWckdmY6SBAHdIeB6bxjdTYHdGNLUqkyaNAlKSshJSDuFhfhDr85R2kROWjpz8Va0MVhgkmaFoOjWJgIWfPmQQbtCGwjWNt04kOeaOm/V/tp2JfWthAC5i//7G77g64GaFU4i2WPMmDGq/+WpSLeJ056laerUqROIuSPmay4fbevTb+kBSXtWQYB3t1ula2nUzghMw/6NBnQqLi4GbkwVVzSqLZ+7uct3wsPv/gnFGM7clEQvGtKurPz5Cbjvlr7gY6bAUs/XB4b0iFZ2TSHz128/oqQTAvshMGfZDpi/7srePZbg5J133oHDhzWX+8jt6GVL9GWsDRRAPDG3xfwPzG9gnop5B+YsrEN5F+a1l4/n8HoG5j8wj8Fs2XVS7ESS4yFQR7R9jjdpluIYnwErsa2BxtprGdUSjh2lfcm0E7m89rvvSzibyTcw1W7R8Uo7YLC1n94aC+TlY046l1MI38/aBAtx75bUM/Ts5qXrB3WCT3EzRFWauWI/vPo/XjA/VVtSbj0ESPD86/MH2Hv2aHFy+vRpiImJUW02+ia+A/6j1Q63DJ8nAUhLPvLk4kbH8twSz90xm5PI+vsJ5JEfGtqcXqSOrhEQQUXX02Nd5vDBchv2MF2rl+PHj0OLFi20SAxlH/66Cn7+c52SzpkJWjZvhHFT7oFAP/OElXJsth9MBgrKthY9QlRCy6cv3QrXX9O6vKrR4z/fmgEbtmt+WRutKwW2RSAagwT+9el94IXeYrVJ3bt3h23bND2KyCaFdqY8hTnlciYX5fJzim7oj5kEEDpWPq98jfbTIOEkHLM1Em20RR5JH1ujcWlT/wjU7j9B/+MTDrURoE/sVMxGI0aRq/K3336r3QqWjruuM/zy13q4cMF17fHq4+7Jfl4eSqxUBF1jw4EywDA4m50HW/efhu0HkiDhVAZkZuVBxrlcOJeTC2VlF6Frmyaq5gzRdLfuVmvGlA0JgU0QOIp7S73y5WKWpswYQz/++KNKSKGqtKzS6XKm33pNpI35CD+silBY+UKvTApf1kNANCrWw9YhWsZ//neQ0deNMeuJrq+5ubng4aF+Ad/9xjTsKyftAAAgAElEQVTYsss1X4i038qU9+5ied8Yw9pa16f9vRve+mqetZqXdq2EwBsYJ+WukZ1Nbj07OxuaN28OdHSyRDZ1PVBY2e5k45LhKBAQY1oFQC5Q/B2OkVSrNSYyqp03j/eSu3249QKa1cicTi62aBoKE9++XZdCCkG0ee8JA1LkRu6KruQ6uU1MZuPDH00LLFjewdixY51RSKHh0fvq0/JxytF1EBCNiuvMtdGRolaFloBGGyNo1aqVynPAUJWiMAx95BtISs4w1pTTXacdkqd/fB80rl9Pt2NbuvkoxLVsCGENAlDXX8ewnEQb2+09kgIrtxyBzbgsVFJiVFbV7biclTGydRrSOxZuGtAWoiPqmzTMBQsWwA03qI2rTWrUAsRBQUEQEhICpaWlkJWVVVtBqiNqVfZYgC1pwkEQEEHFQSbKmmyioELRo5Zo9ZGYmGhQJ2vRUNnvS/bAm1/OVZE5RXn9IH+Y9tE90AJ3SnbklJNfBHNWxcNE3CTvdGqmIw/FoXlv17opvPLAYEOcHXMHknYmDW4fezusWrXK3CbMqkdLxI0aNYKWLVtCbGwsdOvWDdq0aQPNmjWDxo0bV1s6pucJhT8g+zeF+3RN/HyAgsorNRXINedEQAQV55xXk0aFggoZ1VEAh1bGKj722GMwYcIEY8UV18nAc+CDE+DMWb6LbUVlBzohN9LJH9wNcZGhJnFNO9i6u5vrqWlSVyYTl14ogx9mbYUfZqyDvPxCk+tLBfMQ8PfzhX/dO8gsexRjPZIgMHXqVPjzzz8hPj4eiorIgaf2ydfXF5o0aQJRUVEQFxcHvXv3hk6dOhk8A+vWNc834/vvv4dnnnlG5UZdmfl1KKj0q3xBzp0bARFUnHt+2aNDWeUZJDa6/muKUe3Eedvhg+8Xsft2NEJP3Ajux7fHQc92TU1ifcWKFTB69Gggoe+tt94Cb29vk+rbijg1MxeefP8v2HPwpK26dNl+OsU1h69fGwMhAb5Ww6CwsBB27doFFGqABJiEhARISUmB9PR0yMjIMNgtkQDi5+cH9erVM2R/f38IDAw0LNfQkg0JJh06dIDwcOt4IBMfbdu2hbS0NA4OqSiohHEIhcY5EBBBxTnmsdajQEGF1i9OY/Yx1hi5PD7wwAPGiiuuU5TWAfdPQFfa8xXXnOWENhd8/7mbYfSAOJOGtGPHDujfvz/k5V3anDYgIAAeeugh+Ne//mX4QjWpMRsQ0xw++t5fsA5juUiyDgJdO7SEX9EImxsO3zpc6KfV5OTkdNTWNGRwVIyCiheDTkicBAERVJxkIi0xDBRWfsJ27jfWFhnEnT17lrV08fWfm+HzX5caa8phrz9517XwxNg+JvF/5MgR6NGjh8GIsKaKkZGRBoHlnnvuAcJYL4mW8Z7+vzmwdB0FB5VkSQTICHvOZw9AkL/R7wJLducwbZFNS1JSkopfCtbkgcKKWICrkHKScnFPdpKJtNAwvtZqh6z1ufv/3HdDFwioZz11thaf1iobPayLyUIKfiVC3759jQopxCup5J9++mlo0KABdOzYEb766is4evSowUPCWmPhtOvuXgc+f/4m6IjLE5Ish4AXGp5OeO1WEVJqgPTtt9+u4Wq1S5kipFTDxKkviEbFqafX9MGhVmUz1uphrGbDhg0N68hIZ4yk4vonU9bC97+vrvjtyCe9OkdjrJSxQEs/3ESCXfv27eHUKYpQbnqiIHvkMdG6dWuDRqZr164GT4rg4GAgw0USbGyRyJV51OPfQ25+gS26c/o+/vPUTTB2aHunH6c5A9y/fz+0a9dOVXU5CipDVERS7jwIiEbFeebSUiPR1KqQAd6SJZqezBV8jB/dA/x89GkwWsEk46RVZBh88+oYk4SUgoICg3BhrpBCbJWUlBjU4MuWLYP33nsPxowZY/C0CAsLg/HjxzM4twxJeAN/eOOxkZZpzMVbiYuJMFtIOXjiDHw0aQ3c8NRPMGPZXqdEkhlNd4NTDl4GZRQB0agYhcY1C1BTQpIFqQBCjCFA68gnTpwwVnzV9f/+vAImzXLc50poSCD88ek/TQroRkGtKI7E7t27r8LCUj/oi3Pnzp0GrQq3zfzCEliGwd0Sk89Bq2YNYUiPaJONOG9/eTLs3M+bdy5frkb38Qv/gBv7x7KHffRUJvyJQsnyTfFw8vTVgRRpSe7VB4ZApxjncYAhV+WHH35Yhc9I1KgsVhFJufMgIIKK88ylxUaCwgrt/UN7ABlN69evhz591EalGdn5MOj+r6AIQ/E7WvLz9YapGNAttrlpsVJGjhwJixdb5zkaGhpqiItBLqPctAN3Y37s3RlwLju3ogrF7rhn9P+zdx3gURVde+7uJgQIvSSU0CGAlSLYQEFUpApi109RPxV7FylGBMTe9beifoIiWOgWFBBUEJCiIAmh19B7TXbv/54lG3bv3jJbs+XM80z23pkzZ2beubnz3jOtvRjQ7zxpwjJ32Xpxx5AxJTr4IjAE0jA35c8vHxFpWN5u5Y6CWL74v1/FV9MX4PBJOuJG39FQ5KUXni7uv/5C0TRL/pnQ1xa+0GMnisRqHKLZvEF14bDJ7xvUs2dPMXXqVLOC0ETaqiAqib1RkxkCSRjHRCUJG92qyiAqdIQ7fTobLkGhzZ5oPFnGDf/oFzFm0jwZ0ZiRcTjs4v+evl50bNUgoDLde++94t13TUfPAtLnLUx7Xfzxxx/uCbfe4WbXk379Vwx5c7I4gY5Dz9Gw1mcjrpfex6PPI5+If/NpFTu7QBG4+NwW4n3smWLl6CiKW3PGiflLVluJlsTT1KnG9TPFBa0aiU7nNBHtWmZhdR4CI+xoV+NVG3aK3PU7xepNu3HC9y6xYcsusXffEZFzXzdxVSfL+SYlJaSl+zQHjoZNTdwKkBR5pSaKOCp+ELCm9vFTFy5pmBDAi+AAyMrrUPeMkUra7ZKGNmiVipV75MYO4vs5y8XuvQetRGMinl76dHJtoCTlzTffjBhJod1sySwug7cHRJrH8PSbkwR1fEYuf902cdOgsWLia/1FmRTr18EtvduLJ1/+1kgdh5sgcMWFLUxiT0W99PmcgEgKpaQ2Xr2+wO0/w1ArWQPbntFAtGlZT9SvVVlkVKsgMquli5qV0wMiMIVFLkyiPiEOYKfiTdv3i/yNO+F3i3WbQEi27tL9n65Uobz46NnrRbvTAtsQkf5/LEgKVTUypkrSzC5mEWCLSsw2TekWDESFrCnr4SsZlYT2BvnzT1okZO2+m71CDHyFzj6MffffazuKx27qGFBB6TC4vn37wnIRmSGuZ599VgwdOlS6TItWbha3Dv5c+rDBq7qeI56793JL/TQkcc71L4vCIt7CwhIsLwHazfjPsY9anrBNQybn3vCaOBqmLe+9iuC+pKGiCtg2oErl8qJqpXKiQvk0cQIHUh45dkJQ2x5DvkePFp68xrNcFGA7ZzeuLd4a2FfUzzQ0xmqL5L4/ePCgaNCggdizx/SsKRoDOx0fUit1lXBgwiJg/QmVsFXnipkhQGPAICtvQsawd1ywYIF7v48mTZqYqXLH9bn4NDH+h6Vi8Yp1lrKlKXDFRWcGTFKWL18urrvuukiRFBd2r1VAUqTt+LSc+L6RX0uTFML7u58Widt7nyMaW5zWWzYtRTRvUlv8k2u5KVdpNmPM5X1a0zqWJIUK/eO8VREjKaTfBdPL/oOH3X59GJswJcUu7rymo3ufoUCW8FOZyPXu3duKpJDYBCYpBEPyOV6enHxtHkiNafjHdLyGzq2RdcPu6YqVKvIT62T1hkuu9ekNxMuPdA9IXUFBgejcubM4dOjURNWAFFgI33///Ztfe+01aZJCX+R3Pus7cdYiC3e0y6WKd8b/LiMqLmhtTUylFCWRUKMsuT1vps75N+5QadGkjvjm9TvEA9ddENASfk9FBwwYIGbNmuW5NfqlAczhRpEcntgIMFFJ7PYNqXb4eiE77FtmSmbMmCFoi3gZ16xeNXFd93YyolGXaZBVU7w/9OqAVigcOXJEXHDhBe7D3SJR4KuvvnoPxu3rBaL7oZcmCZp3EoybOS8XK0yoPzB3nc9pbC7AsX4IpJct4xemF7BwWWxbHL3LXKVSunjiv13Ft6/eKrKx5D0YR/NS3nvvPZmkX+N9JDd7X0Yby8QVAkxU4qq5SqWwryJXU3NBjx49MJnPuoOj0j+KuR/Vq1YslYoYZVq1cgUxGrvOViwn15mQHqfTKS6++GKxds1aI7VBh9MJtrCiuMaPH181ECUvj5krZs0Pfvj+6LHjYskq6xU9DWrR+ZXsAkGgnARRKXI5IzrsE0h5zWRpou7d118sZn10r7i9V9ugrCik/5tvvhGPP/64WVaeOHq5POu54d/kQ4CJSvK1eUA1BgGhXabeMUu0atUq8cUXX5iJlMSVwxyHJ27rUnJf2hdly5QRH+RcK+rUMJwzrFtEWDvEwoULdeOCDaSlmfTipkPZMC8loP/NyXNyxUfjfw0265J0W3ceKLk2uqhYLtUoisMNECiXZo3Z4aP6S8gNVEY9mCYE39DzXDETBOXhGy4UNF8pWPfiiy+K66+/XnZe1zd4Dy0PNi9OF/8I8GTa+G/DaNTgFWRyH3x5o8zuvPNO96qXsmXLGomUhPe+qKUY98NisXj5+pKw0riw2WzipSf7iDOaZAaU/RNPPCF9OKOZYlpyTCsdaOM82h6fLFMUFqhbsGKTGPLGZNNlyLI6jx7n1TyyWAUiV16C3B0+GpkVY4GUU0+2WpUK4oqOp4s7+rQTtbDMORRHllc6JXzMmDGyao5DcLCsMMslJgJMVBKzXcNaK7xcdmIF0P9B6WNGimm+Bp0/I/sCehZnx1z5wAcBL380yj+Y8IF3dhWXYnOsQNzo0aPFSy+9FEgSH1kiJuedd5648sorxeWXXy4qVQrMkuOjDDfL12wXdz/7Vdh2/s3KsC6P3CCftqTJfV8dS4GtHO1XEiuOTnju0K6Z6HfJGeKiNo2CHt7xrg/2SFEvueQSZd68ed7BVteP4f2zykqI4xMbASYqid2+4azdy1B2L7yhyWTs2LFi8ODB7hN+rTKm7b4f/M8l4pXRP1mJRiT+5ivPF7d0bx2Q7pkzZwraeTYQl5WVJc4991w3MenatauoWjWgaSemWdE5MLc//YU4jM24wuFork7r5rUtVclMuLVUkmQCjetWs6zxYexlUpous2ZlcVbzLHH+WQ1Fjw7NRXpZ6+Eq2fKuXLmyEEdLpMieEVasl4Z83pbNg+USFwEmKonbtmGtGV4Y22FVeR9KHzJT3KNnD7E6f7WArJmYO+5OmJJXrd8hpsxcaikbToFLzjtNDLm9c0AqaR5Onz59xLFj5qSgcuXKon379u59Ifr16+feEjygjCSFN+/cjw3dxoh9Bw5LprAWu+eGjlLn0PBmb9ZYaiVqVDEcNS0RbdGghhhwQyfx+aT54tBh023kS9IEe0HDng3r1RRnN68j2p1eX5x7Rr2ADt4MIF910KBBh1999dX044FtYkez1G8PIB8WTWAEeGfaBG7ccFcN5IMmc9ABJKZv3Y8//ljcdtttUtnTSofrnxwr/s7dKCUfqtAZ+GL84rkbRarEdvGevHbv3i3oxGLaM0XrymAyLp171K1bt8PYU+Zo7dq1q2tlwn2/Y89hcd3Az8SWbaa7eAaU7ZWXtRYv3N9NKs2+g0dF+xto2hI7WQSWTHhSasM30kfn5/y+dIP4Z3WByF1XgOXm28WO3ftlsyqRS8GeRbSEuG5mVZGFlVoN6lQTDetUEY3pt3YV6cMoSxQGeIGze7a0adMmPS8vz3o80Vc3mZbOx8fRX77BfJesCDBRSdaWD7LeICuPIKlpL5WWliZ27dolypc35TMlJdh94Ijo8/BosX3HvpKwSFzUrVVNfP1yf1GlYpq0etoSn87Xyc3N9UlDBwTefPPNYuTIkSKQk4x9lARxs2TVNvHAqG/Ejl3hw+rcVk3EJ1ieLbujKO1826n/G0GUPjmTEK4rJg2SxlcPJZpou/fQUZy7c9x99s6hI4XiIK5puCgFE7ArpaeJihXKiMrly4qK6WVElQppUmc36eUVhjAXDub8+9FHHz0LFkhr06p/hg+ApJju3+SfhEMSGQEe+knk1o1M3aiHuhn+bCP1NDzSv39/gX1AjER8wqtVLCc+ePoacd1jn+GMEZrkH35XuWJ58fGw6wIiKXhZii5duviQlFRMMqTtvt95552IDevo1Z52nH3h09li3LQFwuWiI0/C4+j05P8bdFVAnSgP/QSGfUUc0idLAo00l8d8EfKx7nCi+tLu3bvXw1wUw/eDRR1oYzcmKRYgJVt0QHs1JBs4XF9/BPASofWrd8Gb9pYTJkwQS5cu9VdgENK8fk3x/CO9Q36h66mvUL6cGD38RhHoRmVkMZk7d26JSlqxQ6dGEwGjPU+i4ehsFtoj5Yp73xdfTJkfVpJSs1ol8dEz10oPSXjqG06i5NGZyL81Q1zSGw/Y7N+/f1GrVq3+whDp2SApwc4Yp5n19BHEjhHwQYAtKj5w8I0MAiArCzAERMuVTZfA0Bk4tHmZ7BBQ1/OaifwbO4m3x8yUKYaUTLm0MuLDYdeL0xrVlJL3CA0fPlzQKiaPO/PMM8Uff/whXRdPumB/d+0/LMZMXyq++XFxUPMTrPKl3UU/Ai6ZVdOtRP3iiyS22fdLlMQBNRKYqOzdu3ctDuRc89NPP12MJg5+Bzghvkb6G/FuKd2lT0n8nMZy1ZmoxHLrxHbZaBOmvvC1jIqJl5h7BcyyZcukNzK7/9rzxWEcM//JN6csGUb6rcJpL4h3n75WtMo2LKKuinHjxolnn322JI7moMyZMyfiJCV/024xd8k68fuSteLPpWtEpIZYaIfRNwb1E9n1g5v3SwcYspNHILN6aJukyecUPUmc77X97rvvdmDJfiPkSj4U9zES31VsrQ1FD6dNUASYqCRow0a6Wnip7IdV5SHk85VZXhizFtdee634+mv6YJJzA2+9SDSqW1U8++5UUVhII02Bu0qYF/Dqk33FeVh2GYibP3++uP3227ER3antzP/3v/+FvDGbXhnWbdsr5i5eJ+b/s14swe6ye/Yd1BMLaxhNKH5z4FUBW5i8C1HkNB318xblayBQq3qgi15iE7YdO3YcfPnll498/vnnGVgBlxGmUr6Cd8ljYdLFahIUASYqCdqw0agWXjDjQVZuRV5XmOVHh489//zzYuDAgWZiPnHXdDlD1MusLB5/eWLAQx+0BPltdMaZ1QIb1qDNqLDMWNAuux5Xt25dd5jnPpRf2vtk7uL1Yt7fREw2BlyvUPKmtLR/zEsPdw95UibPUQmsJWpVj61DOAMpPayirtffeN32xdgvxOrVq8k0FE7z0BC8Q0YGUh6WTU4EmKgkZ7uHs9Y0T2UFvOGOtZTZU089Jc455xyBLbTpVsqde3qWmPHBAPHa2Lli7OT5lkMhaRjqub5ne/H4zR0x1BTYqsgDBw6IDh06CBqu8nZ0QnKwjvbD+PWvdeLXRavFohUbxLbtvrqD1RtoupQUu3i0/6Wif8+2gSbVlec5KrqwGAbWqRk/RAXbCqi//PKL8sMPP4gFCxYIbHRo87YuGlYysAgyV94PkvJeYMlYOlkRYKKSrC0fpnrjZbMOVpVnoW6UlUqyVmBsW9SrJz8ck4b5FE/17yRuuKKVGPfjUvHjb/+KLQWnNjqjZZ+1MquIXp3OErf2aC0qVzDlS7pFpBcxkRSa+Kt1N910kzbI8B4LdMSSvK1i5qI14g/MM8lds0U4S3mYhLZFf+PJq8TZzQKbp2NYSUQ4sUkfO3kEstAGsegKCwvFP//8I77//ntBx0PQ9c6dOwNj+IFX7G8kuRvvjYAO/Ak8G06RSAjwhm+J1JqlVBcQFZrtvxj+dKsi0MTUjRs3CtowLVi3e/8RsW33QRwR7xTNse14uRCOm3c6naJTp04+y5C9y0Uvb9qV1srRMuJbnh4nFmASbCw4Wnp8U6/24j/dWomyIeCjV5c/l28S/3nqM70oDtMgQET6n4kDhcNm18T4344aNUr89ddf7vlRzZo1c58RRZsN0nlRtH9PoI6e7T179ojNmzcL7A4r/v77b7FmzRr3/bZt28TWrVtFgNvaB1oEb3magJUD/xZIyqkJYN4SfM0IGCDAFhUDYDhYHgG8eApBVmhvFVqqYzNLSdvR0yF9S5YskV4JpNVXDSfRkg/Vodzu+Sfee6VoddILXoaoUIf0/uB+YsIv/4hvZyyFNWWrVlVU7utn1RS39zlPXHVJS6nOMZhCOXnVjzRslbGFvQxJIWsezsQx1Jueni7oHCk61LJs2bKw1DkFPb/0S3OGvH/pmoYy9+3bh8nohYY6oxhBOz8+gvJuiWKenFUCIcBEJYEaszSrgpfQHyArNDFuqFU5yEpBJwnTOLgd23+Xluvbt6/A/g+m2ZNJ/KqrrjKV8USSZYdOZCafu2GHGIt9UH6cu1zsP3hqcq5HNpy/drtNnJGdJW7rc664/Nym4VStq8up8qofXWB0AqtXlZt7akaWSe2hQ4fcnqwjceTyUdb78G4w/yeLowpxUUsHAR76KR3cEzJXEBWypkyHv1ymgqeddpp7wl4ow0Ay+ejJ0NwT7w3d9GQojL5eseumSEmh0a3AXWGRS8zHCp+Va3eKfJCX1Zt2io2bd+O8luBPxyXrTcP6GeKc0+qLC85uIC44q37IK3moZvQlTmcaUbuYudlYUn1XzlgzEY4rRqDDOdnio6evtsSDDvH85JNPLOXiRGAdyvk2/DsgKZE5EyNOgOBihgcBtqiEB0fWAgTwUnKBrNyAy7/gG8CbOtpjpX79+mLx4sXucXhT4TBF0tLjnj17uicPyqg8evSo+Oijj8SAAQNkxP1kUhw20eGsBm7vHUlzbFas2SHyiLxs3CXoROLjhUWYM1CIuTf4hcne4XCI6lXSRQ23ryAysNy6To2Kot1pdYOaNOydv/aa5itcdtll4pVXXrEkKkUgX+zkEMiQXJpMK2zi3NHxzhPg/wf/G94FmFrOjhEIDwJMVMKDI2spRgDvpz0gKzRW8ju85THFdMpydna2+Pbbb93DQZEEkggRkRTqlANxjzzyiOjTp4/IzMwMJJmpbC1sq06+S7vGpnLRiJw4caL7EEma00DkyMrxPipWCJ2KpzaWcWvXrpURizUZWv71IzyRk0n43z8WawXk8iQGAqYTHxOjilyLaCOAFxatALpHNl+yWlxxxRVuEkGTACPhaMO5Cy64IGCSQmWh06DprB/vjeAiUcZo66Shnrvuukv069fPPfGS8rc7rOcMOfljWbqpatWw3pWWJrzS/0AcOLKS/AP/Lvz18LXwv94d/ismKUCDXcQQYKISMWiTWzFeXDTgPiwQFKZOnSpq1aol3njjDfeKhkDSGsnSJMXWrVu7N5wjwhGsw/4S7iERmq+SCA5boLtx+eCDD9xzUzx1ctitLSpOPpTQA5flb12Jzd5i+Jk6gQr+Af8CfA/4qvi/PhP+Xvhx8DsRxo4RiDgCTFQiDnHyZoAX2TOo/ZuBIEBWi4ceekjUrl1bvPTSSzSRNeCxbuQrxo8f7yYWHTt2dC+FDqQMRrLr1693b1Y3bdo0I5G4CKdJmy1atHDvq6EtsNzQD2/4psXN6L5ORkWjqJJwnKFTcm1w8T3Cl8JHYq0x/X/RWOgc+I/hn4Kn2b9nw1fC/9IF8APhp8HvQxg7RiDqCFh/PkW9SJxhgiHwEOpD9u9bAqkXffE/8cQTZAlRaNjlvvvuc89hIYsL5sD4qMIL1L2J3MKFC91LnmmnTcl5KLQioYyPMosbGprq0aOHe/+VL774IiKHFVoUIahowmj06NHiueeeE2bzIWSWi/M+KnJNYLNh1+Sq1kRFb0dkTQ4PoP1W47mnZ5V2HyQSkQWfDl9e48sV39OMZxpHJROgx3vf70b4avg10B3Z9fPIhB0jEAoCTFRCQY/TWiKAl6CKF+ztEKQ3dh/LBBoBmkdBm8PRicbk6Iu/QoUKboJAvzS2T7tsHj58WJPS8nYPJB6Hp6/IgN306dPdw1S0x8rQoUMF7SQai47mP9BQ2muvvSZF3mSWYfOqH7mWroLN3mTOnDIjjsU5baFf/CsRsaYVdeTZMQJJgwAP/SRNU5deRfGCpbGCa+Fp3kpIjs7loYMDaRiGNo7Dia7BkBT6srwc5RqN30+DLRCRpDFjxrhXLTVu3Fi8++67MTMpkobQBg8e7CZTjz/+uBRJIRxkhn54Mq3cE1NDcrM3Ov/KxO3BcxoXM21N6sBRjEBICDBRCQk+TiyLAF62hfC3Qf4x+NLciIPG2a9AWRYVl53KYzlJoFjW8Ie+iu+99173Fue0BPq3337Dfig0FzF6bsuWLeLNN99074eSkZHhHuahIwsCcTz0Ewha5rI1q1kP+5AG2mTPxLmtKSbxHMUIJDwCPPST8E0cWxUEQXgFQ0H0Zv4SvkKUS0fk5FqUoWTTClzvRnkuQPgk+JahlodWFtHqJfJknSDC0LRpU9GmTRv3Cc2tWrUSderUCcvRAbTvyZQpUwTtgzJ//nxpq0modeSvGzkEMyU3e7MgKpvlcmMpRiBxEWCikrhtG7M1AzmYBnJwLgr4FTxNDoyGewOZPIG8/cwcCKOJilSe1+H7w/vO1kVAMI6GqcjKQX727NnuXV9JT1pamqhdp7bIbpYtzml3jmjUsJGgQ+foKIGy5cqKcmXLua/JukEb4m3YsEHkr84XmzZuEjTJmFaJ0C95msMTTidzmq4DZwuxs0agVg05Hk7Ph4ljomICDkclBwJMVJKjnWOuliAH/4IctEbBaFXQ0/C0giESbi+U9kd+ZDExdIinY+hvR5nexO8g+H7wEemRyeqyds1at6cVSrHkZIarUlOsN4WLpTqVVllqS272ZoG5KYsprbpxvoxANBGIyFi+CogAACAASURBVIs4mhXgvOIXAZADmrfyEmqQDf9FmGtyDPreg29hRVK884XsMnia+HsaPO3AmUibWq3wrqvetYxFJTWFv2/0sNOG1ZbY7E1itRpbVLTA8n3SIcBEJemaPPYqDGKwFf5GlKwd/OfwZN0I1u1Cwmfh60HnAPjtwShCulz4e5G2Fvxl8B/B05LmeHSEyc3wZC0ydTJEhYd+TCEsiawrYVGhoT0LxxYVC4A4OvERYKKS+G0cNzUEMVgI/x8UuCY8HWw4Hp6WEls5+uqcDE/zS4ig5MCHxRICPViNq86A/y90Z8BfAf8pfGDLaZCgFBwNe70M3xzlH4Nfy7k3MkQlhYd+LJvSZrOJTJx2beVoDyALxxYVC4A4OvERcCR+FbmG8YYAOlUatvmWPOaMEJluBJ8JTwSGyALtvrkfPhd+OeRpyXHEHfIpQiY/kEe5qNOncrXSeCpnaTraEv0X+NHw3xVj6SmPJVGxmC/h1pMqcXChJ8Nk/a1aOV3YNDso62FB+wFZOCYqFgBxdOIjwEQl8ds4rmuIjtaFCtBW3+RjxqFcRAjWFPuvPQUDfyGi4iEvZxdfN8avJUnw6AjydyPSfQr/CYq2Hr96zrIMMhaV1BTijuzMEKhZTW7FT15enpmaI2jLqJBws0JwHCNQ2ggwUSntFuD8EwoBdCwFqBAt5SHvdiAvtPPXWfBEYE6HbwBfH74efBp8oI7m8Pxb7GmC7B/wfyJvInVmLixExYFl0+zMEaiTUcVcoDiWNgY0cWxNMQGHo5IHASYqydPWXNNSQgAEgubZzC32JaUoHj6ioSwiLQ3gaWiL/ieJUHg8mS/o+hA8WXBWQN8m/AbjSI+po7OBrBwvT7ZCCCcGZla2FoLE8uXLzeR4Iq0ZOhyXNAgwUUmapuaKxhoCIBw0fEQWGPJ/RqF8lkRFbuiHXxtWbdWgdjUrEUH76VgccbDZUgkLMAJJgAAPNidBI3MVGYFiBCyJisxk2hQHvzasnqiGta0tKv/+S6N3po6Jiik8HJksCPAbJ1lamuvJCEjstCtDVHjox/pRalS3qqXQ0qVLrWR46McKIY5PCgSYqCRFM3MlGQE3AjTUZOqkiAovTzbFsFxaGVG9UnlTGYq0WPFDImxRIRTYJT0CTFSS/hFgAJIIgaNWdZWZo8IbvpmjmJlhPexDGtasobnRpo6Jiik8HJksCDBRSZaW5noyAidXDpniwBYVU3ikIutKEhWJzd546EcKcRZKdASYqCR6C3P9GIFTCNASZ1PHy5NN4ZGKrFfLen4KKdqyxZSHHIFIUOdUSRWShRiBOEKAiUocNRYXlREIEQFLoiJjUaGt4W02ywVEIRY1fpPXq2W92RstTbY4kHBt8fL1+AWCS84IhAkBJiphApLVMAJxgMBhqzLKEBXS4eAJtYZQNpCwqOTm5oqiIjo6ytDF1JERhqXkCEYgCggwUYkCyJwFIxAjCFhaVGSGfqgudhtvo2/Upo2zrC0qEnuoMFExApjDkw4BJipJ1+Rc4SRGwJKoSFtU+Lwf3ceIVkTVqV5JN847kCwqFo6JigVAHJ08CDBRSZ625poyAuEjKrw7re7TlFG9ssAUHksnsTTZcu2yZSYswAgkCAJMVBKkIbkajIAEApZzVGSHfhx2fnXo4V0n03rYh9KtW7dOL7l3GFtUvNHg66RGgN82Sd38XPlkQgCrSI6jvkVmdZYmKhjiYOePQN0MOaKyebPpXm4noHmjv3YOYQSSEwEmKsnZ7lzr5EXAdPhHdo4KH0yo/wDVl1iaTKt9duzYoa/gZOg6kEqXmQDHMQLJhAATlWRqba4rI2CxO63FktkS/FJTUkqu+eIUAg1rW1tUVq9eLSyOKuD5Kacg5StGQDBR4YeAEUguBEwtKocOmUaXIFWhfJmSa744hUDDOta70vLS5FN48RUjIIMAExUZlFiGEUgcBEwn1O7bt0+qphXTy0rJJZMQ7dbbQGLoR+LUZJ5Im0wPDtfVEgEmKpYQsQAjkFAImJpMDh48KFXZyhWZqGiBql6lopCZu5Ofn69Nqr1noqJFhO+TGgEmKknd/Fz5JETAlKjIDv1UYouK36NTW/LUZImlyTxHxQ9dDkhmBJioJHPrc92TEQFTonLkyBFx9OhRS1wqV2CLihakupJ7qGzcuFGb1PveiRvLTVa8E/A1I5DoCDBRSfQW5voxAr4ImBIVEt2+fbtvCp27SulpOqHJHSSzNJkQKigoMANqI5YmF5oJcBwjkGwIMFFJthbn+iY7AqaTaQkciz0+3PhVqVAu2XH0q38DiaXJGzZsEGS1MnE8P8UEHI5KTgSYqCRnu3OtkxcBS4uKFFHhybR+T1DD2tZLk1esWOGXThPAREUDCN8yAkxU+BlgBJILAUuisnPnTktEqlVii4oWpEYSe6hILE3mibRaYPk+6RFgopL0jwADkGQIWBKVXbt2WUJShSfT+mBUuWJ5Ub5sqk+Y3s2qVav0gr3D2KLijQZfMwJAgIkKPwaMQHIhYDlHRYqo8NCPz1MjuzR57dq1Pul0bpio6IDCQcmNABOV5G5/rn3yIWBpUdmzZ48lKrSxWdkyvI2+B6i6mdbzU0iWJtOaOBVxlkzGJD1HMQIJiQATlYRsVq4UI2CIgCUL2b17t2Fi74h0Pu+nBI4syT1Utm3bVpJG52IrliZbb2Kjk5CDGIFERoCJSiK3LteNEfBHYJN/kG+I7Hk/FXieSglwMnuobN+xXRw4cKAkjc4FD/vogMJBjAATFX4GGIHkQmCzVXX37t1rJeKOr1ieN33zANWwbhXPpeHviuW8NNkQHI5gBEwQYKJiAg5HMQKJhgCGFmgyrSkTsfjqL4GET1AugUI0lthDJTc391QC/Su2qOjjwqFJjgATlSR/ALj6SYmA6fCPLFHhbfRPPjvly6UJmX1leGlyUv6vcaXDgAATlTCAyCoYgThDwJSoHD5suYLZXd3KvETZjUOzhhlSzb9mjeVebpYCUhmxECOQYAgwUUmwBuXqMAISCJjOU6HTkw8ePGippnI6n6BMIJ2VXdcSKxKQICo89COFJAslGwJMVJKtxbm+jIAQphYVAkjmvJ+szMqMJRBo08KaqBw7dkysW7fODK8dmD9kzQ7NNHAcI5CgCDBRSdCG5WoxAiYIWBIVi07VrbpJVnWTLJIjSlGEOKdllmVl582bJ4ismDi2ppiAw1HJjQATleRuf659ciJgSVQkTvkVjetWFTbqqZPY1caOtFUqWi/Tnjt3rhVKPD/FCiGOT1oEmKgkbdNzxZMYAdM5KoTLypUrLeFJS3WI6lUrWsolssDpTetIVW/BggVWcmxRsUKI45MWASYqSdv0XPEkRsCSqOTn50vBI3vGjZSyOBRqKzHsQ9X6+++/rWpneayylQKOZwQSFQEmKonaslwvRsAAgeLzZHYZRLuD129YbxZdElevjvWOrCXCCXZhsymi63nZlrXauXOn2Lp1q5XcfCsBjmcEkhUBJirJ2vJc72RHwHSeSsG2AgFCY4lR47rJO6H29OwsUbNqeUuMZs2aJZxOp5ncFmC93kyA4xiBZEaAiUoytz7XPZkRMB3+OXLkiMy+H+L8M+snLYZdL2wpVfcpU6ZYyf1mJcDxjEAyI8BEJZlbn+uezAiYWlQImMWLF1vic3rjDFG5orVVwVJRnAnQsE/PC1tYlpqsUj/++KOVHBMVK4Q4PqkRYKKS1M3PlU9iBCyJysyZM6XgaXtmQym5RBKSHfb54YcfBM1RsXC/W8RzNCOQ1AgwUUnq5ufKJzEClkRl9uzZUvB0attESi6RhK6+rJVUdcaMGWMlR7vRWi4JslLC8YxAIiPARCWRW5frxggYI7DZOOpkDJ1Ns33Hdisx0fuilkm1n0p9TCDud8nplrjQBFqJYZ95GB4ynWlrmRELMAIJjgATlQRvYK4eI2CAgOUGY0VFRWLypMkGyU8Fpzhs4qZe7U4FJPjVAzd2ktqR9/vvvxe7d++2QmOulQDHMwLJjgATlWR/Arj+SYkAvuK3oOKWkyemTZsmhc8t3duICuXLScnGs1B249qix4XWe6dQHT///HOZqlozQRktLMMIJDACTFQSuHG5aoyABQKWy3poQu2BAwcshybKpaWIa7q1tcgu/qMf+U8nqUoUFBSI6dOnW8kuBmHk+SlWKHF80iPARCXpHwEGIIkRsCQqBw8eFKNGjXLJYPTfK9uJtNRUGdG4lLmq6zni4tZyK5wGDx4sDh06ZFXPT6wEOJ4RYASEYKLCTwEjkLwIWBIVguaDDz5IwZf/cSuY6BThnl3OthKLy/iWTeuKZwd0kSr7hg0bxLhx46xkCc8vrIQ4nhFgBJio8DPACCQzAlJEZc+ePeKnn36yPP6XgBzQr71wOOwJhSltaPfu4KuEwyZXr4EDBwra2dfCTQb522Mhw9GMACMABNiiwo8BI5CkCKCjXIuq75Op/oABA0jMcq5KnRqVxC19LpBRGRcyKSBdLz/RR9SqVkGqvLm5uWLixIkysjzsI4MSyzACQICJCj8GjEByI7BQpvrr1q1rf/To0W9kZB+56QLRpEGmjGhMy1RMLyc+fPZG0eGsBtLlfPzxx8WxY8es5Oko5Z+shDieEWAETiLARIWfBEYguRH4XrL6qTfeeOOfkLU8UpmGSF55rJdISZEbKpHMP6pi9epUExNe7S/OO6OedL5ff/21oL1TJNz/wZplaZ2S0MMijEBSIKDgHyYpKsqVZAQYAX8EFEWh/e/z/WN0Q37E++IEYnrqxmoC3/92gXj1k/gzHLQ5s5F4b9BVomL5MpoaGd/m5+eLdu3aiX37LEfSaP+abOB42FgbxzACjIA3AmxR8UaDrxmBJEMAHSbtUJsrWe3Ln3zyye8gK/V1c1ffdqL/VfEzX4UmzQ4Z0F2MHXFDQCQFQ2KiZ8+eMiSFYH6cSYrk08ZijEAxAmxR4UeBEUhyBGBVeREQPC4JA1lVyAJzn6S8yHlvhhg3jUaNYtPRhNl+V5wjHrmpg6hYTt6K4qlN3759xXffEX+zdL8Buw6WUizACDACPgiwRcUHDr5hBJISgW8DqPXlWVlZtOWq7HCRGHb3paLP5W0CyCI6ojabTXRsly2mvHOXeObOLkGRlJdeekmWpNCmeQ9Ep2acCyOQWAiwRSWx2pNrwwgEhQCsKvORsL1k4s1z5sy5o0OHDnQQkPSM2XEz/hYvfTxDHDp8VDKbyIhl1qwsenU+S9zQ9WzpZcd6Jfn0008FLduWWOVDyd+HNeVuPT0cxggwAuYIMFExx4djGYGkQABEpRsqKncC4UlEvkHHS/NbngwEoB17DovB73wv5iyQnRYTiHZj2dRUh+hwTjNx7WWtRcdWDYSiGMvKxDz99NN0tICgE6YlHB2h3Bx47ZKQZRFGgBHQIMBERQMI3zICyYoAyMoi1F16jCY9Pf0+nAV0C9KcEyhmk+fkig+/+UOsWktbioTf2WyKaFI/U7THHigXnt1InHdmliiT4gg5IyImN998s8wW+Z68aBlyL5AUyxMKPQn4lxFgBHwRYKLiiwffMQJJiwCISi9UflIAADizs7Pvx26s9yNNiwDSlYiu2bxHfDNzufhh7nKxpWBPSXigF2QhqZ1RVbQ9HcQEFpOOrRqKyhXKBqrGVJ6WHnfr1k3MmzfPVE4TeR9IyjuaML5lBBiBABBgohIAWCzKCCQ6AiAr1AufG0A9nWecccaDf//990NIQ3uyBO2W5G0TC//dJHbuPSR27T0sdu07JPbsOyz2wh84dESkly8rMrFFf60aFUWdjMqiDuaaZOG3fi34zEoiNQwWE6PCL1u2TNDqnrVr6dQBafcySMrj0tIsyAgwAroIMFHRhYUDGYHkRABEpTlq/hd8uQAQcLZp0+aRRYsWPYo08lu5BpBBaYkeOHBAYO8Y8dlnnwnaLyUANwGy14KoSO05E4BeFmUEkg4BJipJ1+RcYUbAHAGQFVqd8n/mUn6xaosWLT5ZsWLFFUhfyy82zgKIX7z55ptixIgRYteugOfA/o7qdoEOy0N/4gwWLi4jUCoIMFEpFdg5U0YgthEA2ZiMEvYMtJSZmZmrQVaOV61a9bRA08aK/IwZM8SDDz4oVq5cGUyRliHRJSApu4NJzGkYAUbAHwHe8M0fEw5hBBgBIW4HCAWBAlFQUNAkIyMj+5VXXvkZaaXW7gaaRyTknU6n+Oqrr0THjh3FZZddFixJoYnIHZmkRKKFWGcyI8AWlWRufa47I2CCAKwq5yOaCEdQy2fq1au3+88//7TBylLFJJtSjSKrydtvvy0mTJggdu7cGWxZaNfZp+GfA0nhOSnBosjpGAEDBJioGADDwYwAIyCwMZpyCXCYAh8UWbHb7eKee+5xvfrqq8LhcMSEBffIkSOCdpUdPXq0WLp0qSBrSgiO1lTfAH7yYwg6OCkjwAiYIMBExQQcjmIEGAE3WekCHIispAWLR6VKlcRNN90knnrqqaI6deqEvvNagAWh5cXTpk0TM2fOFAsWLBDYqC5ADbriSxDaFyRlvW4sBzICjEBYEGCiEhYYWQkjkNgIwLJyGWpIczCCJisehBo1akSERVx77bWiQoUKnuCw/q5evVpMnTpV/PLLLwLDT6EM6+iV6zgCX4cfBpIS0JplPWUcxggwAuYIMFExx4djGQFGoBiBYrLyNW7Dxi6wWZy44447ROfOnUXdunUFtuWnISIpzGlfk/z8fLFq1SpBxGTdunVi/fr1AquOxJYtW6R0BChEc1HGwg8FQdkQYFoWZwQYgSARYKISJHCcjBFIRgRAVpqh3p/Dt4tU/cnKUrlyZYElzqJGjRoCq4hElSpV3KcUb9y4UWzevFls375d0Jb2Ic4vCaQK30N4IAjK34EkYllGgBEIHQEmKqFjyBoYgaRCAGSFTB5PwdNKFznzR/witBBFfwIEZXb8VoFLzgjENwJMVOK7/bj0jECpIQDC0gaZk3UlqAMJS63g1hkXQoROO/4QBGWatThLMAKMQCQRYKISSXRZNyOQ4AiArNDk2hHwD8LHu3VlKerwGfxYEJSgN1VBenaMACMQRgSYqIQRTFbFCCQrAiAsTVD3B+BvhQ/bZFvoirQjQkITZD8FOaHt79kxAoxAjCHARCXGGoSLwwjEMwIgLBVR/v7w98ETeYk1Ryt3FsPPhKddd2eDoNBQDztGgBGIUQSYqMRow3CxGIF4RgCEhXah7QZ/P3wX+NLalZa2tF8OPwueyMmvICb78MuOEWAE4gQBJipx0lBcTEYgXhEAaamOstO5QefCt4c/Bz4Sw0NESmgDldXwK+DnwM8CMeH5JgCCHSMQrwgwUYnXluNyMwJxikCxtaUliu8hLmfjOgO+DDxNzqXfVHgFXuvoRGbabG0NPBES8p7rtSAlx3DPjhFgBBIIASYqCdSYXBVGIJEQAKEhsuJNXmh+yQ6QESIr7BgBRiBJEGCikiQNzdVkBBgBRoARYATiEYHSmuAWj1hxmRkBRoARYAQYAUYgyggwUYky4JwdI8AIMAKMACPACMgjwERFHiuWZAQYAUaAEWAEGIEoI8BEJcqAc3aMACPACDACjAAjII8AExV5rFiSEWAEGAFGgBFgBKKMABOVKAPO2TECjAAjwAgwAoyAPAJMVOSxYklGgBFgBBgBRoARiDICTFSiDDhnxwgwAowAI8AIMALyCDBRkceKJRkBRoARYAQYAUYgyggwUYky4JwdI8AIMAKMACPACMgjwERFHiuWZAQYAUaAEWAEGIEoI8BEJcqAc3aMACPACDACjAAjII8AExV5rFiSEWAEGAFGgBFgBKKMABOVKAPO2TECjAAjwAgwAoyAPAJMVOSxYklGgBFgBBgBRoARiDICTFSiDDhnxwgwAowAI8AIMALyCDBRkceKJRkBRoARYAQYAUYgyggwUYky4JwdI8AIMAKMACPACMgjwERFHiuWZAQYAUaAEWAEGIEoI8BEJcqAc3aMACPACDACjAAjII8AExV5rFiSEWAEGAFGgBFgBKKMABOVKAPO2TECjAAjwAgwAoyAPAJMVOSxYklGgBFgBBgBRoARiDICTFSiDDhnxwgwAowAI8AIMALyCDBRkceKJRkBRoARYAQYAUYgyggwUYky4JwdI8AIMAKMACPACMgjwERFHiuWZAQYAUaAEWAEGIEoI8BEJcqAc3aMACPACDACjAAjII8AExV5rFiSEWAEGAFGgBFgBKKMABOVKAPO2TECjAAjwAgwAoyAPAJMVOSxYklGgBFgBBgBRoARiDICTFSiDDhnxwgwAowAI8AIMALyCDBRkceKJRkBRoARYAQYAUYgyggwUYky4JwdI8AIMAKMACPACMgjwERFHiuWZAQYAUaAEWAEGIEoI8BEJcqAc3aMACPACDACjAAjII8AExV5rFiSEWAEGAFGgBFgBKKMABOVKAPO2TECjAAjwAgwAoyAPAJMVOSxYklGgBFgBBgBRoARiDICTFSiDDhnxwgwAowAI8AIMALyCDBRkceKJRkBRoARYAQYAUYgyggwUYky4JwdI8AIMAKMACPACMgj4JAXZUlGgBFgBBiBYBFo2m1YXUVJaSHsagubS2QJRaSrQi0vVFFeVZTyCl0LQT4VYYeEUA4IoR7EPfmT1zaxTqi2vw8pRcu3TM45gvC4d817jWjocirn2mxqTdS3uhC26i73r8C1Uh24VBeqUg1xR4Si7MTvLkWc/EXld7mEQJjYZVPEhuMHnX+sm5VzLO5B4Qr4IKCoquoTwDeMACPACDACoSHQ+NIXKjnKFF0pFLUzNLVAh9scHWyF0LT6pEZfrqyGzmXCpix2KvavV08aiPvYd416P5fhKFI7K4p6CXC5BBg1CFupVQGSosxVFXWGcNlm5E8ftAxdXNQ7uU6dhjlW16iYUv54ocNx/GjKsXLC4XAKB8pyIm9yzq6w1TdJFDFRSZKG5moyAoxAZBFo3vvFCsJ5vLdQbNegb7wcuaVGNkdf7YoQ89Alf+4ocn61/IecPb6xpXvXtNfIc+2quB64gJyI06JYmh3A5WcXiItNKfNN7qQnyDoVUde8x4j3VEXcZZDJV3lThlxnEMfBBggwUTEAhoMZAUaAEZBBIOua18qWPXb4KcUlHsdwTppMmgjLnABhGa/YnU/mTsrZGuG8TNU37z38AuFSnoZJ4zJTwehE7kL7PHfioPP/Ijk8xEQl/I3Jk2nDjylrZAQYgSRBoGnPkT3LHT28QlHF0BghKYR8Kspyk+qyr2zWa+QDyjUT7NFujuwewztk9xz5s+pSfosRkkIQYK6LeDW1vD0/u9fwO2h4Jtq4cH7BIcBEJTjcOBUjwAgkMQJNu71VplnPERNsQp0MGBqGDoVyFDrWwc+HX4j5J6vwW4D5FhQerKsIk/kbzY7mLczuOfysYJUEki6718gLs3uMnIlJr3Mwf4aGeUJ1+zB0k39yWEtZCmVbgU1hSEoVURc6Ptxa3rECZOpaBTNzQ9LHiSOOADPKiEPMGTACjEAiIdC27Qcptlr7v0adegRQrwNYvTJDFcoqrPApsAlXgctpK7ALW0GReqIgf3oOVvXou9OvGZZadDylORY+nAWLwNmQwq96QQAWnFbomH9t0WP4JSunDv1LP5fQQ0FSBqJcI1GuwD6A3cRDnQdS9qNQnH/aXMoOu3DtrHFE7Jo1K6dIr2QN+wyrnHYitabqKKrhKrLVw4qhSzFRtSvyrqUnrxumqM0QPi67x4gHm/R1Xrn625wdunIcWOoI8ByVUm8CLgAjwAjECwI0XLA13TEe1oI+EmU+hI/10apwTq6wLXPOokV3hmYJ8MqQVhWllDlxlSpsNyH4YqyckbEK7FVdts6rpg0iy0TYHM3RKXfk8McgCddLK1XFGsj/4AI5KVO2aNby8TlYjh2aI8tIk17Dz7Y5bVegfbrBqnMufuWGvVAep93RNRwrp3iOSmjtqJeaiYoeKhzGCDACjIAOAhjWGARSMFIn6lQQWQgU8b4zpWh4NL7SW3Qf1cyluN5GuS49VQjDq9121Xbxv1MHLTeUCCACQyd1YEWZiPq2lUqmin9AIHJWTR08MdLLhltcMayBy24fDkvNjZJEbpfqUnusmjb0T6m6GAgxUTEAJoRgJiohgMdJGQFGIHkQaNJ3WE17oYP2LjHbD2WvS7F1yZ88aHG0kcEE1utAAl5HvhkWeS9Z1dbZVs3JwV5pwTtacmxT1e+gIVNCy0rsm/JM3pShEyJNULRlofk5sDy9gKE3WjJu6mCWOuIUynX5UwZPMRU0iWSiYgJOkFFxPUclIyOjcVFRUQ3UXXE4HGT6JOLlMYF635eEFce74wgzupdN69GvKIrLZrPtcTqdu8uUKbNr69atu6EHk9vZMQKMQKIi4Ch0DMM+IDFJUgjzvKlDx2GX1z/xJvoVt1km7dAqe6G9P+I/NpExjWrefURXm02ZCKEypoLYMRYjMg/ltS36MlRiZJGPYTTI0TJEdgU2nbEK6RX0EjTPR9fhJV4OE2y+a9ZrxL2rJg95X1eIA6OOQFxbVGrWrPkp+MEtUUfNP0PaXOkX+J/gp+/cubNU9y7wLx6HMAKMQCgIuIc4hNhgMeehOzbzmh5KPuFI26T3803szqI5GI4xm1i6XbGlNg1mA7TsHsMaCcW+CGWtYlpeDPMoNtE7d/KQdaZyUYx073lz9PA4fKn2ssxWVW7Nmzr4M0s5jQBbVDSAhOE2sNnZYcgwQVVURb2uhv8Qfh0I1Ns1atSonaB15WoxAsmHgOKiCZrGEzNVZVIskBRqGJoQ6rKr3XFpNrSTIZwnngy0Iev0GlYOJOVbpLMgKcqklHLO82OJpFBdN41/+Gh+2ey+ML5/ZFV3DFW927TbqJZWchwfeQSYqIQf41RYee6F2jUgK4+EXz1rZAQYgagj4FJAVAwcDpYRoiim/tfzJw1dgs54tEGJaHSA8gAAIABJREFU3cEYJL/BLF4vrrxq/wDhpnuyAI2Rq6YN7hOOlTx6ZQg1TB1/tTNvyuD/ov6YaGvs3MNANtcENzkzFuOYKCDARCVyINNW2q+ArLyPOS1xPRcochCxZkYg9hGgfVMwjNLFsKSKujhvas5aw/hSiii0KUNAVszOtmmY3WtUc9niuXe5FeJGM3nMRxmQO3XIkGhPmDUrk1Ec5qA8jf1l6KPS2Clqy3SX/V1jAY6JBgKJ2oFOBDlYAAAxFHnSw8pRcu0Jo1+EY14sDgiXkIXOFMg3hGw2PP0am4IRWezuBFnBceXiKk8A/zICjED8ILC/9q4zbKqoaFLiqSZxpRa1dtKg7VhO/TnegPcYFkJ1dUNcrmF8cQTtOIuzjF52v02NhT/MnTL4PePo2IvBHJR3m/cY2RBGsccMS6eIW5r1Gj571eShnxrKcEREEUhUovLjjh07IvoPA9KSWq1atcZonWxcX4Nf8rrEBeSmLw0DYZLtqxFtTVbOCDACYUcAZmfT5b44mXdW2DMNl0JFnQZVxkRFuOeymL6XaCO1Zj3U90BSUgyLpYpFLlel+w3jYzgir1yzgU2P5rXF1+rFRsW0qco7LXuO+P3fKUPyjWQ4PHII8NBPkNiCfJzYtWvXSviJICA3YIlzE6iaaaLu+erVq7c3iecoRoARiEUEVCdtgWDoHE7HNsPIUo44Urb8LGy7f8yoGOiczzWK84Q36zHySlyf5rnX+cUmckq//On3H9eJi/kgmrPiSnFei4JuMSoszVdxqsogo3gOjywCTFTChO+2bdvWg7TQhkJGs8lTYHkZFabsWE2ICMDCVQHE8XWtz8rKKhuiak6eaAioiilROZZ6YkesVplWuWBUe55R+agDxllC6UbxJ8PVwSbxLhcm5f47bfAGE5mYj6IdhF1CvdriwMMbm3YbVjfmK5OABWSiEsZGhZWlCGTlLqikPVX0XCcsXW6lF8FhUUcgHcTxQa0/dOhQmaiXhDOMbQQUleaYGTnXuu9y9hlFxkS4om4yK0fRMbshEaON3ZC2jVF6EJ0v8ycP+ckoPp7C86cMnYfjFJ82LLOiptgc9ocM4zkiYggwUQkztCArtGstzYzfr6ca8TG1jFGvjEkSBqs3O0ZAAgFVnDCRstEBgSbxpR6FB327WSFcTrWmUTyWIGDlkLGzu9QXjGPjLybteJm3UOq9hiVXlTvp5GbDeI6ICAJMVCIA63Y4qDXanronvuIZ9wjgHohKEEYmKoEAltSyNtOO3l6msHYsw+NSFfOhKbv+0FaLniMuxgTaC0zqNn3ltKH/mMTHXdSyHx87jDOB3jEuuFohtcg+wDieYyKBQKKu+okEVgHptNvt7+AsID3rSSXMi6Dhn78CUsjCYUWAiApcWHWyssREAOf7FJg9KTj6i4jKylitvWKzTVVU1yGj8tlVNU8vziXEo3rhnjCcm5NQ1hRPvZxOx5s2uwt1V8t6wjS/DzbsNOy1dbNyDCcpa+T5NkQEmKiECKBR8oKCgrWYj7ILHaLe+PZFSMdExQi8KISjXdiqFQWcEyELm13djk7ZpCq2SxBpNC/NJF10ovImP5WLnMhLO0ywTVWEvTPmoOg6oDEvb9rgObqRcR6YP/2pnTiU8FPssGtkOckoU85+Mar5Q5xXNW6Kzy/ryDbVagP1PKHWAJhoBfPQT7SQToB8VMXqkNH+7t1rE6CqnioUHrG1pxVBnnudX9O9V3Tk4ypIcTlfxmopp1GhVZtKH5vsooQAE5UIAo3O0IioVI1gtqxaAoG0tDSzT2QJDSySLAi4D9ZTxRqT+mYeytxJe40kjlOUzsaVUZyFx1JmGMfHfwwdiYC5KgsMa6IqHQ3jOCLsCDBRCTukPgp1iQrmRlTxkeKbqCPAFpWoQx7XGWI607dmFcAW7G+27PpcLTOZuIpThQlRUZeumfGk7qrGuKqjRWExN+lXQxFFtM265jWjOSyGyTgiOASYqASHm2wqXaKCTpKJiiyCEZJDG/CzHyFsE1Gty6V+Y1GvTGeKa3wiDAG5TwtWTHasVcRsCywSIlpxKcZERYjU8kcOnpsQFY2DSvDLOrKNZLQRlNEctciWhrWXIMAWlRIo+EICgfzpQxdgK/oNFqIXHqy18/vGvYbVs5CL6ejyzhRakpxqVEgsdzbrwI2SxV+4I/V303kqio2Hf6LUqkxUIgt0UwP1Ow3COTh6CCjRy4pzincEVIwDCEV52Loe6iUO1f5Pdq/hd3TqNCwuV1UqNlcnk3q6ihxFc03iEyYqd9ITB7FEebFJhZiomIATzqi4/EcKJwAR1tVCTz/mqIRMVKpWrXo6DkLsBMtAFnx16KwGT0uhK+KeLDm78bsHYbtxXeByuf7Ys2fPQoQV6ZUpkmFYpp2J/Osjj0yUJxO/GV7XmSgTjfXSyorN5CGzGXvQuH/pGoc+4oURXoc8o05U6tSpU/348eP0cmuNelXDL3maWE2/dKDbRnja7nwTyue+xi7HK3ESuOEeGJCNqsvIyDgTbdMYmdJ8jFqoh/sX1+XhyVKIs2XEi2iz2fgN2EGfjfYZwu8ZwKAq4US/UET+OK7dzzR+dwObXQhbDHx0h1gDztwiQd6Uwd9l9xzxFcSutRCtiDNjPtyabn8+u8eIiTZhm1C+oPrMRYvuLLRIFxPRaMSmRv8cCF8a80cGhBFFBdYjzD86R1elKs7WDefAsCPARCXskPoobO5zV3yDl2zARAUv7BS8wPtBxRXwXbChXC3ocWtEnPvXc+++wR9PON3jpS6Q/hAO4/sNcrMQNBbnEhmeFkppQnHIhzbBugb+Ovj23mXx6NWUt+SfnsKpvB4HXX8j/TiEjcP+NOs84TK/qPN/kNZvlRXCamryd6sD+bsNaY4jL+yDpdoRaKNfuvdcA/tXUI7DMvkXn+10G2Qvhp7TkK9RH0Dq2nt0esSQ5mD1mtU/RWf3FjrkfE+89hcYPYo0Pme2gFD8b/fu3f9qZT33KNutuCZimwLvQB1TCgsLP9+7d+8Gjwz9ghRXAi43Q+a/uD3TUzZvGe9rxI/3vre6rlatWl1g2hf6OwP7iyBfGdfuZJ5fjw5P3vTriUM91uH6J/Kow08RJXaK8z7hsnfGjq0+WHvKp/mtBrnbXcJ1+8FaO/Y27zliImr1NZ1ofPKwQI107Nzq7f3kLh2aJS92ihmFkihiqXEuShVl2DCbmpPjMpbhmHAgwEQlHCga69AlKhA3Myf6aMMLWcHL+3r4ZxFBX7KhODoltStUkn8WL/iPYOkYFS7CAotBOVgMboFuIicXwp9iG6GUGp0jOiH6kn8OHfL4oqKiJ7SdqZF6lGUQ4rK18dCnDfLcv4I0JZ0gBWrvgdkHCDYlKmivdkg3FHI9SEcIrgK+6u7HyMN9qPv36IjfREdMnbK2AnchyGeoEfnPR76GRAXyoxBPFq6SOoKQ/IbbEqKCZ2QQSMQQyJLVK6wuMzOzEdp0IOp0C/QbzomwyhRpG0LmLtSXDgTdDZxGpaenv7Nu3bpjVmkDjc+bnLOrefeR3fCVPQlpiYzLuiposP4Q7l/uyJFCWFqWAfT5quKap7hc82k5rKyiSMthozMiWPpOEXv0IxI01KXuNnyL4R+z+bJUWhhBVmt2EUSAiUqEwMVLmA76Iu/n8OL/2S9QJwCdRAd0eG8h6iyd6JCC8HKnU4LvRSdxB/J4r0qVKk/m5+fT8ENQDp0DDQFMQWfRJigF8omuQWfaC/k9jeGFl+STRUey2PowGjj0DXOO1HV0A0nqhvYaC/1k4fAmK+EihSXFxvP3ILIYWRIQpotijF6H7puhkixVYXPQScNoL+MU7IfxjDwLEv4hwrxxCjmv3GmDF2X3HNkOI11EVgJ/3nEKL9K1Rfq26OvuE4pdYEhphyKUP0FI52G7+/mOcurC5eNzSmfIT3EPReriBApvfGCfbor4DlTtICpmo8TH3VgxUYlwMzNRiRDA+FIcYKB6rczwBTqjm9AZjYYOeqmZuZWQ+xfvYhpOIn8AviLCqiCsMq7r47odromY+DkKR/yD+/btawuLyJVbtmyhcf+AHJnuQXj+QKIsk4R7kddEyNF8gu249vgC5E+mUzL/10W42+M+G74bvF5HlobwF9GRVoN1YSCuY8KhY8xGHSahDlR2U4c6r4Pc3xDaiWs6aoG+VMvjujquyfTeCL41vF79b6xWoxrJPwDvdkhHQ1WeW9lfwwSoy41Q8pqsIlk5PCstgdF3KGszkzQFiCMy/ys8za+i+Sjk0/B/VRN1pWG7FvilYVDCSO/7vw7C38f/0YWQuw3yRbgPm8N8lS1Yxtuxgmp/GyDeAsWhEsWaICk9oaenijNLC48qTpCX5bBuzMcs3nlOu/331ZMG0v9OFBzNn9J/NHBCVlJZVFxFyh73oK8B6kW2IiLG7CKMABOVCACMl3FFvFRLOhFNFl9r7v1uydyOl6vZl+xcxH+Gl/ZPmIOwyU+BJqBhw4Zp+MJsj5f1pUh3J6L1xtcvOHHixHx0UN1gqVilUWF4C30K0oyGbj+Sgiiy0ExDR/M5yjkdMicMFQmxBXF/esfDylMf1pOHEHY7fAXvOLqGvifREe3FV/ML2jjPPcrwHa7J2uPjkLYsAq7xCTx58z7SFCKeCAL5kjkqCKPOyI6hJ5ow6uMwyfQyBEyAr+gT4XvzM3R8DjxmY2LzRt8o/zuyPOA5uhj+SqS7CRIl/680HATcd6OthlHK4rL5KwkipFKlSlVTU1PfR1I9ArAWeU1B3CJ4IhFEKgTayUMw6yBsJYVpHdqqD+ryGcL92hJhRFbpf4Mm4v6FXxk3lCyXaI/+aDMirETMte5m5Fs1Kyvr6k2bNvm1m1Y4kPstk3OOQP62lj1HjCoSykCQipvFSWtJIGoMZN3P31n4mIc1Vb3L7ioiq8t28IffMWT0u+py/V5xe8bicE/QPevyl8uLVP2PGndBXclFVMraHHuOC2OOi+eOiYrBExzOYAUvnXDqi6oudOifovz0NaN1A/Cye08bGI17PLi0aoFMwj108juMF3rDbdu2keVD16FOo1AnIyvBYugfDCvCD7qJJQJpHgkmTN5enIffGDv078KLv41MR0rZoby3QtcnOlkfRId1GQgKzZMIyVGHja/wl6DkvzqKjgLTlsB0vU6cYRDKTauNtmkFUPcqmP+yTxtudo/2pq97Ill6HTDN/5gBUpkDLOaZ6TGLo/kcwHMoyvwfyJV8veP+PhC1d0BaiLDW9daBuD6Im+gd5n2NNFtxryVxnVDeC5F2uLcsrmfDP4r/q8WacKlbYNQFeum5JfLn4xD+E+r2IMqa6xMRwE3lypWrpKSkDEGSh+H1CNbvODbh0nCTFe8iNu89rLbLab8KuffFME4HEAy/unrLh36tHAVDXYh8fiPyUkZ1zPt76sCQhmZadh9Z32lT1xuVDWSsd+7UIZON4hMtHNPVlGY9RhBTKfmf86mjqtyaN3Uwke8S17zHiPdAMO8qCfC9+CpvypDrfIP4zgqBki80K0GOt0YAL1xamfMOJPVICil4x4ykoOPoDpknSVDHvY4X+aPoQOjLM2iHoR36CnyrVq1a49ApT8D1Rd7KoL86SMF41KUDri2XU0LmDu/0xdeHkb57OEgK6QNp2g99A4BPA+R3qSa/soXOQiIxV2vCo3KLMlVA2chqo0dS6AX3BIjla6EWBsOFa6GjP5Fg5DcW1+4D43D9FspA5vhgOkW/rxToKwuMS6yBuD8OEnEHnr0xwdaBLGMgEeOg16+M0P88yM9gxIX0XGPokjroR4HPb9BJZXXj41XmC44eP0qWt5K6ecWF5TJ3Ug4Rv7fIN+02qobNUdRbuNzDU+eBvGgJYRjyhFVQER3By+BpfbtThdUFw8DKDLtwjVk5daisZaqkLIV2pRpMiCX32gvVllwWFUChZvcQ+4BzVS0W7nuT+Ty68hwYFAJMVIKCzT8RffHiJfkFYtr7x7pD1sKS8bxBHC0drkNmcbywtV+DLrx4H0Rn97ZR2mDCiTBBbxfk+39IryUb7TF8RZ0/DbsYOshkocznawWg9wGUd642PJR74OLEkMR1GJJYCD2NvHVhGKQXDbeBGB3wDo/S9XvIR29Oyn6E90EnPCuc5SALCYgJdUzfw9MQHj0v9EVn3LsgUtYB50cg6x4aRDsex/WVyPMH2fRauYYYdoTFi+ak6JnI78Rz8qE2TSj3KOt3sJaRRehH6HHXw6OPJq7ieZ8MmZ89YZH6zZ/+1E7o/qjYC9qt1qE6zkO/dx4a7DyEnw2fCh8+hwpCGZbAq6e5hPJQdo+R/8IO8LmrqGhM/vSczVIZqc4y+gap4tSqMBu+lcoiDoXo/8DAmQyTGaTg4MAR0DdnBa4nKVPQSxgvxQ7oOL6EaT8XIBiRlAP4Ku1Z/NWnixU6hQ8MXubDwk1SPAVAfkV4ad+Nez9SgfI8iJe6UX3cKmB5oXh6Ofo4mjvjExCmm/379+8BMRqgoy4V4d11wiMaBHyaI4PrdTIh0vCfcJMUTz7QS1/KNL/GWRyWgt9gOj09ctOlWCdGFdT+ePaCJimk5+DBgw/ip5VHp9fvD6hHWEmKRzfKvATPQ59iouUJpl8EKZ8QqfUOjMb1msk5GzEB96tVU4Y8BNN/+xOHnJUUm3oh6OVjWEnzDcpA1pjwOkVtiUYcZbM51mKV0ltN+g6raZWBw+XYbSajuNyb75mJJF6czj5MXpXc5XXNlxFCICEtKngZnQcCcSycmOGlTZti1YPuhuRx3RD6M+H9OmpNvifw0rwGL+V/NeElt3hxngYZWuGidb+CSIzQBobzHvVwosO9HnVaAr0+X6D4GnsMYVeb5FdLJ24jLBtyX286ia2CMOF3Ab7Q9cQ6IfBLvYgIhj0O3X7tD0yfQ7tFdBwfz9NstNsQtNuoCNVvJvIICU9YGWkV06M65TsCknuPTnjYgrZv3/478LkT+X+mUUqry/oj7A1NeFRv183KoffT78XenXeJ1UUV59oUFZPfQfAUkRZywU5O8L3PXmi/tVmvEc/nt3GOMtykrAz2BDEb8FXcK9JCLlK8KKADGtOFHVYmA6e4V1oaRHJwuBDQfeOHS3lp6UFH8R/kTT6sDi89tz7ol9VLW6FfjZcmTbQ0dCApNAHQxyGv47BM0F4ZLp+ICNygU92Cl/ow5OkzvARLch90Ng1NllPrEZX5EShiiUqa6AoL1gYE1C8JPHmRobmP6C3KQNvH36TNBGHrgOcz2vBI3IMQvoB2uwW6ybITjDN6kFU8e2QJCclBB5ERX/J7UuMzJs9USHl6J0Y7/A/t1Bdhvb3D8T81AO30Jn6N6u8tHrVrsrogM/JfUaZ0EvOhjJ208qcdVhOR9bI99vRohuuTLyISCsylYzLsiOxFjvbNe79448mzbHwV5J51Ym+zRXZ65+hb25NslQtW/VTD1B9fkHzuFLao+OARmRv9hzEyeSWb1u8xn6I1XpamJAWTWulFfqMWHAwVjUVHtEkbHql7WCk+he69Gv12dDaGkw/xnj+qkafhgkrasAjcL9PqRMdDe49E0/VEZn7DLaj/i/A0iTbiDvnQG/TVCGRE50ItD0Uv2oPeLXrWlGX4n3gtFN2BpAVEAyGvbY9sWDEvCURPacjS0mPaXA6rSt7FcNEt8M1PpBRVVV22y7C3ylAsSJmCoaP9gZaN9mtRnSd+b3HFsAbatMWWFu17wEssuSwqtkLz5ceYD0RzkdhFGAEmKuEFmDqOKbCQXAizeTeZzdMwwZaGfLTmXeqDItEBGdYWX7iHEak3Z0BvSMqtB52R3xAPwlo3bdrU2FRqWAL5CGAzEvn09/Ygdi/KawiLJJaf+rkdWCb7iV9oBAOwVfznwCGsX3XAN6QhH6ouLD2t8eNn5UJZP4Z+LXGIGEIgRbnIk1ZJ+TiE3eYTECc3dCDgqmmDZqyaMnhE7pTBvVLKOWsKhYaNlY9AWuQ7TUWc4XI4fnHvm+Jfd8PnCTP79SZF+2tIkBDFYkM3x3GnPOYJgklpVCMhh36iDCTtuUGTUX/FC3gavRgDzL+jjvwfsKas0AmPaBA6++9Asp7QZNIMm5llYPhquyZcQH4jXvja4BqYNHw/Al/WRoTrHhgvgC7ypen0iMqMUI4hCKYydJ4NhjdmIK3epF4rlbo2bbTpt1YJreLxv9BZ59mgZ4bKGlWHskxAhrdoMtX7v9OIxP4tttmnVTjfk1eumXB386N5HZyKuAZ7Pf8X81ss3u9qo6Opx0Yire/qPlXsQtpsvdpDb7Qtl3rFiFoYnmGc3m2UneJc8WOOifXJKB2HB4qAxYMcqLqYkf8CJfFbyRKG0tEjewgP7x68cPdgUt4urDBYhxdh0PNIoOsibbkQNkcbFo17bKy2BCSDXnzaIY0LEfaNtgwgU3PRSdL279qX1yh8Ue8AofifNk0i3GPYgI4MqK9Tl9k6YdEIonyDISp6ZTsMa+A2vYgAwzrryG8JgsjrqAksCFanX7AzM1kMy3ulrIN2zIrm8KpX3hG5VMdfTavAZpPP7jX8E0xlGYsXVlOzzPCZcX+LHiPHr5w6+A+PHGbA7Pb7/PBEKqKB5zIpfl222pgTZFBVdTdIjFGkQRoODgaBRCUqc/GyfS8YQKKZBp18beTXWCfP33TCIh5E1gCUaQkyool7JQ6kTJeogKCcgPznENROBnaAbH2GlVdX4vcZGGP+LlGWABcgqLTqy68mqOtsv8DoBPwaZDb+lRBiU5C6fJIBiwt8AnCDsJ+1YdG4L7Y6LUVePmVCO56HsLDUNxr1CCSPvMlDF2JYp9WxlONj0dH2Nklrcwn1DcSf45EBSTHBRGmNibgV9CbietIn0q9LUS8wJG0nz1ZLpOrGbF1sMVuyEAqGTsTk2QpBcZiT4qu8oZ5KLMGdpxcepTB6ofs4dDD1fAJ8b17Cre4XONqhD0jOMpCZAvifYWV5Hb90WnN7/FbwVRM/d6iT7jg9yPH60qgFtobfGMZ8N4eqCwQ1HTrI+zg8D1Ef9vEqwFava/clytNOG5ZI98t+fOxwSrmim0ARzYejFdG2ea8RJe8iWGJ+NcYB5wmrRfThkhQOHYnxEKEq8pIChBioZKJaVGIAWusioMOrqpUCKThutjGcVj7c98gf5kzfD23cVzHKh4YJQDzIckIvN+2kYE8ymlSZAZlLKAC/9KOiQ9sA3ctxv5x+QdyWV6xYMTfa8zyoMIE4lFc71EXJD6AORYHoCZcsnV8D4ncU+sqGqhN1MPmaltOOCeLVDPa6oWXwwS6llsvcQAptdlwniiyaCe0wh+VQ017D+9lU20L8yxk+H/iPvxJAvEZgqLaiWcLlwMIigw8+l+siiNG8mIR2OAahJU5ONtkkz737cUJjECuVS1Si4u4JYwVko3KgU6ha3GmXiCCsVCdnIf99JYU5dWFIVEiEJreiA7oIdRmN29NOJTO9UpBXA0jQ+T09SBLETYCkudDprsctfQW6PfTm4ayYf2VWUSFNxB3KW13bbrjfHfGMzTOg/Ouai/jF+jJSRKMeIVtUQFJ0LU5QP0uLm1+JohtQObrZlU5u+ZOHrsAZQGOQ+38NS6CKvohzE5W8yTm7IE/DtWcZyF9sEJ5QwXab8yK/fxCvGtqcrp+8bvkygggwUYkguFaq8dLWIwClSlRQZj2i4mf50daNyArq0xqEhfZd6QdPY97BDC1SmkbFHssu8YUHCw+GwwQIDK30+RpzC76OxoZhlLeeQz3LacNRxiPasGjeo0xFhFMYXMgWFVjGqhPpjHVn8P9XUmzaZ8RpSzEkM1gmvLREOMYvsKx4NA4bNCYqQpxPu7BumZxT/Bwrv+A/z4iotDn9mmHpZK2J8WqHVDzYk8hypO9UZdXK73PW60dyaLgRCKYjCXcZklafXocHMEq1w0NnR0MIPs6gnD4ydIO0JzAU9DL8uWXKlCGT6fUI+wS/y6BDz/ROyQJx7SD8IjahWwvSshCrpi8LJHEYZffr6DLs0HRkwx4EnPVIr2k+aBM/ZoOwkC0qppnGUKQVZk6HfYRicy0x8k27DasYQ9UxLUr+5MHzLeaq2MoV2Wt5lGCa30zPtd8vlj0XHXa4h3H94hIrwJioCB72iWZTJ6RFBV90cTH0g6/OvegYtO1dqh0eCuM3yRUv9H3aQlrdb968mYYixhV7GlJwYPlzM1hDTke9z8D9GYgj3xDeDwSEWbm20PMjCMsX2AH4wWgOC6Hse4CJtnwBEwWtgmDvUR47LFlh6TRRLz+iGmi50C7U9nruMQTSEtqYcMDtoFlBsPMrrJt+7eyVxF4DNwe8AmL7UlWX4D/NcI6Qw6ZkoAJrqBI2u2MOdq8tgrxuH6Eq7lO2J8V2hYMvXbMez3XHqznTSINqEzzsYwROBMJ1H8II5BNtlcF0fNEuowChoj1ItPmWWodXXBC9Di/k4SjUkyaa/lvsx3sqXadOnXIY1mmBeDqYsSV+WyKO5rk0gJex+N2A9C1BWDrCkmPa8UBfWBw64j3o5LS6yiEsFeU/oY2I9H3t2rWrAAO/AgWZb8h6ioqKdulNpkXY/7Zt27YzyHJFPZkiXPswo9QwXxikaFK1u2M3FIqlCEXB6jy/901JCV3KqZ2Eaflxdo8RdPyHz5LuEmFFdMT+K+d7779SEpcAF4riGmhSjRNlj6fNMonnqDAjkKhEJcwwRUYdOrVdOporo8OjiabGbxSdROEKAlmopM0a93vCpV+rB5YQGur6q9iXRGdlZZU9duwYEZiWxQSmFSIvh9frOc5G+LeArSvkI/7FjvLoWVQENhCjuTU0ATiq7vjx42eh7sHk6feMAb+gFHlnjonPfivHKB6rgahjjxuiogqbuUXFrpBFJW4c3ijbzB4TvHR8LAiKTcXBjf774XgqjFlIg3DtngjvCUuE3+a9h4OcKcZLsFXld1r6nQh1jZc6yHyxxktdvMtQBh76AAAaVklEQVQZ8svWW1mkrjEMokdUbFi2Sx1eqTh0VPW0GaMTjBhR0ebluaclt7CQLMYk3THY/XcQrq9AOVojfq5HRvPbBVaVPpqwiNyCGKyAYr9OHgRG/+szIqU4pRS4GL9UT4nJXoX8v4P2okmWfi9ylJPmLcWNw6ajppZE7JSWFTeVQUHx+bPftLyK747UeW1cXyOVMfFW1O7Nez93pqnOOIxUXYqZNQV2XvXNOKxWXBc5UYlKXDQKdmylDYOOaQuLyaLna8OieH+ONi90MNQxl7pDB7gUxKULCjJZrzAgWQ/phYc7bP/+/UTcaBjLx2FIqFSICgoRFFEBXn5ky6dCod3QsIHWtdEGxPS9Ym79wVBJ55guv6ZwaGzT+W8ul7LDOwmdpKyoLjoLyNCpLtdThpFxGNGi+/AzhKp0Nyn63LzJQyaaxHNUBBBIVKIS8ldhBLD2U4l+guYz+L3QQQxKpcOrUqUKvcj0zgYxsmL41SnSAYQZzm65FvkU6OR1AZ3fohMeiaDftErRbl3g7drwSN7DilQb+i8KYx7h+t/5VVsmYBMUodLqida9WmT3+9/0zhtAdcFBgFFtb+/8A71WhFrVLI3Nrm7XxueVa/4lrCqrteFe99c07TWitFbfeRUjPJeYJJtjuNGdOwuFJoSzizICCUlU0JmF62UbjeaYo5PJpXipR70OmOzYEWXR5nuifPnyC7RlxPBUk8zMzDPQUdLeKe2wVPh8utbKReKezm5BG7+upxvDaQ30wiMQpkfesoDFNRHIy1AlHpMHEJliKBBgRBj/d/yea+i+EOWN+rw4PKtP4dmcrfHTURZT3PKnP0XzaVaaQFi5+ZFV7U3iYytKtZkSFafwJyp00CGsKqNMKmKzqWIslmrXNZGJiygc5HgHJk9fZVLYr/KmDPZ7F5rIc1SYEEhIohImbKKiBi9vvxc6Mm6El+oVUSmAbyZ3+9667xYSMdAJ/wxDVH8j/C+88P/EsMfvuP5BRy4iQSAkekSBdretH5EMNUpR50kI0pvD8KRGNGK3sB5VxPNzVwgZ+A39gKxqiWpQ6mH1mo+ENFHa29UAkevnHRDpa7ISAiOa9ElWJ29PE6ILrfLHEuVfzWQAYFTmRZmVQTpOUVuZyhY5fIZ+PLLpBRmfY0bWBs+9zm91/D+Ob9v2A1Pip5MuZoKadX/ubOFS3jIp0AmhOuk5YlcKCCQqUQnLyzYa7YFj5mchH7+XADpc+lKOmiMLCTLrqs0QL3OYfv0dwv3maECqBvRk+kuHPwRLYDfqaQWBKK8XHu4wmjAKDN7R0XsWOuN7dMLDHqTYlY+h1HTeQRCZhuV/h8gt2mK0Tv5RNZ2DeN2BMqTrlOMjnTC/IFV1/eoX6B2gqPe07PpcyUZp3lGxdH1mj+eroDzGc4SwImj190/pTe4XixbdWQj7rmm7gbCdd6DWjpdiqc6yZaGN+7DCaQJsyWmGaVTxTt7UnLWG8RwRUQSYqEQUXmvl6OxoOa3fMAZe8peh04/amD7KMQzl0HZSe7DD7CcGtdA1iaPcZxnIhzUY+eh2DqhHQVgzMlGGZbhvIvqoVgRle52GwrTh4byHxe1hnBkXqnUC/YuvA37aZ8BXIIA7fGW/AvEiTZI2eK5DLbdGpf4t2oHmj9ynE7sGk7LNCUhxokK7fRasCdo6lKgEgOWcDvWZkoAYvTgmijqhaIbvezT6ZEyt9nsePNXJnTLkazwafu8pTzz9QseDzXsNj+rQp3f+wV7b7TYQapU+1Izc1pQi5wijSA6PPAKGD27ks+YcPAjghUpfd/s898W/tJfKZ3ip630NakRDu4UF4CZouEGrBeV6v3ifE20UbVZHpn0/B0tQVJYromwX+mV+MmCbQbhUML7Ay0oJQog2L0MbUWesdSnA4RuQibbaiHDcF1tsXtToIsIbUw74rEeBxsNr3XvARpdoagVDuQdOVyN9fa0OPDuj0W6GnbK3/NpJg7bDmvC5d5jftSJuz+41qrlfeAwFoM6mVj7VZqOhTFNX53DR46AyNMRr6FSXbQzN9TAUiKEIZdgwGza1e95iXspul9N+6fIfcmilH7tSQiBRiQrIffy44n0nXtUpcSN0ePTVHjGHbe1Px0vsXZ0M9uNdbjhmizLPQ5rNOukehjUhQyc8rEEGROUIiIbUUmpYQw6gQH6dFfD269jMCo6hu2cQrzdfJhNl/A0d8t1m6QOJgz4HiOs7+KUhJ4dX2uG43uF1H8plWP93UNYcFOagd4HwXFXD/ZiGDRumeYeH87qYJL6vo/MI8v9UJ9wwCC/JUbAXmBBB1Y75CxObdhtVw1BJKUagM+6CR/0SkyIcchVVmGkS746aNSunSLE7yWLitzqoJK2ipmB574fZvUa8TESgJDzGLmgorNkix1SYgUzmlCkHFZfSFZOq9Ya5Y6xGiV2cmH2QEht2/9rBFD0KL/U/tDEI64/O6VP8hn2iGvR2KJ6UWkGbLywmt2OTNUPrBF721Ml/rU2H+1ro7L9Cee06cWEJQifUGtlfqqNsMk5VPqwT7hdUbCnaoo1AvRtrw8zuUQ4n/PWQoRUiPg7hZRDwfyjvr/A9gUlQJIDSoa2uhYVgBXRqv4y/xLNDZMDlk7ncDbWh1gVVRq0Szz0I7Wpc3+m59/rtfOjQoR9BlCt5hYXlksg3FP0IX1GjEPCpN+G53qoJN739d8qQfIyKjDMVEiLbbnf+EGsHFZ51+cvl0Rm/bFZ2NPiE/On3HzeT8cTlTsrZis1VrjUnbpBWxaPZixwT6ZRlT9pY+aWJs8eVIuyGrRovWFDFMZfi6pk7bfCiWCl3MpcjUYlKWF+20XhA8AItwhbjNPyiHQKiU4lvQSf1Y7gsFcUd363IawZ8ZXgfh/i3sRndNz6BOjcgJGQFOqITdRHK+6JOeMhBRFKg5Gd4P3KF8mCsOSCXryP9BOrvba3QEfENAlEgwtMNXs/CRMId4ScDk5UgHKOItOCMo+oUYeRQBhvk20P2afhleAaoo2zmLQ+ZPypXrtwfcUQ4TL74vVOZX0NV2P93QAyo7O/p5NwRRHlOrVq1GujEBRUErOjgS3quq+ooeBJt9Z1OuHWQKkbCUlBoJohGaG2z2aec3nWYXt5mSSMS17TbW2WOpR6bCOXG88ZUsd/hCmw1S/7kob+CuD1lVWjI9Cw86vi9RfdRPs+tVbpIxmf3GHkLJs7+gTwaGuaDdsbxCf2onoYyHBFVBJioRBVu88z27t27ARK3wOu9EDuhI16Dzms4LUs112Qci47yCuhYjA7pE3j64te6n9GxPKoN1LvHsMcmhL+gF4ewR9Bp/Iz8mhrEBxSMTtkOfb2QiEgKrWDQui9RHuqgAnH5OsJnAp/R2CPG+EWmkwiYLUIH2QZRc3SiPUHZwHwgbibjEMGdqM8W4PMPfufAT4KfCD8XfiXKQCdrz4fsMKQ5w6PA6/cLbOXfMz8/3/0lDNmYtKh4ygtC9RCup3nuvX7PxDL3XNT5lUqVKgXdwRPZAZZvQe9SeL2VZx+ijYJelbJq6pCVwubSWrO8qlF8icP6ClPsK7N7DL/OPzJ6IY16P5dhs+0nkoJhHxOniMHLp+UUmEjoRq2aMuQlcNrHEWnx3KlnuhTniuY9RrzXvPew2rrKohCI9ujQrOeIWdjM7VNYUsqaZIn6uP6zauogvWfVJBlHRRIBmrAZSf0R1Y0X06coP3XsWvdEKC8lrbJo3+Ol3Ql5fgtf2SDvPQj/HnWfgQ5qBupqaMomUoPhDPqipzFqGi45Dd7IfYQvznugV48o6aZB/qnoVOmFaGRGLYLMLOicgI78lwoVKmzxdK66CjWBwKIt0t4EHdcjqqYm2nO7AauT2mzevHm3J0DmFxaqy0H+fjCQJQsFEYUtyH8bMKRN5urjvm1aWtqZdBaRXjqU0wHMn8Hvg4iPhNl7A3QPwJDK9975A6c1uG/kHYby9kF7UtvoOqTJQ4T2a7cXnqcpuglCDES57XhWiEwMMFC1D+Ffwv8A2ZnFc7cMRDH4gOFQ6CMS9zA8EQMjS9jPwOEK4FFkqEwyAp3d6wpWt0iJq8o0l0t9MH/6EGqbqDj3BNGF9rtgF3sOGRq9PzxlWbiqrfNc2irfExDob3av567A5kVfYnipknVaBf8zrjdOOFwvrPsuh9o64o5OeMZQ1TBkZE7YTpXkEIat+uRNHUIfREE5ImXA/y6DxNg0bkipkliDcsV0cEISFbyQyMQbkaGHaLUmXsDN0TlOR11kvuwPoFw74LfD78cLvArS0dACeXpZ4d1q6oitPhksuWuISZGYb/AddHQ1zeVUJBEtnOSqEMHaBr8V5T2O+xr4rYF7IiQ1cJ+B+2q4NnN/AqfeGKqiugfs0Fm/j0R3BpiwIrA6aJYGFoQqmLB7H+rwQHFbmInLxG2ArrGo63N683BQD7IONfFWhHxjiqh4yoZnm4bXnse92XNJZHkxPH3t74Q8rbAiotHAy9fBtZlVmJ7r95D2CSvSAzkpR1vmZx/Nmw7Fl0klUBUqw2yhuD5NO1H2m0idutuk77Ca9hOOfrAY3IH8WlmWzb2Bm7NzOPYGoRVPiuqcjIrKWk/3Yjv/d5yKbdrqtGYLafdby/IGIND40hcqOdKKOqM8dyGfywNIelKUlqMrysPYhfbtgNMigQVRWQkiNDkYvaWWBiwhb8rQp0otf2TMRKU00bfIm+YxYIhgBMRuh3dYiAcbPROd31D0838Eq4DSoTNQYEm4GT9kXjeyfISShTbtMQS8ix1QBxvsnKuV172HVS4dHSB1iLIvWYG5RFX37du3V1ehJhBtWA5tSNasi+Evgj8b3g5v6YDlPyjbd/idiI52iVkCPesI0l4Jwm647BRpcqEzW6O3N0hYxF+keFbOw3M3CnkTJpFwecDtv8BtbriV0wTRwiOOt/D2vDVA3YcgTytNFrgEnrki15L86Tn0kRGwo1Urx23O0zCB7SzMnekNnZ0xpCH1XOG/dbXTLjqvnjh4U8AZGyRwl0c4vwImZLUNxO1Fx/0zGOuPRQ7lp2DK1KnTMMe2irb2OPX4Uui5DMuN28ljYVxUUMz30wtq3k8b3hlL+cdYEBX/BLEf4oIVSPLZikxlEpWoDMQL+oXIQBZ9rehMm6DTGYacafgD/4thcbPxIs/Bi3xOWLQVK6Ety7FE+AHcYmWAaBlO3cW6yGT8FYZsRmBOyuZw6G940iJ0E3TREIJlmVG/mrSHSjB50yoXDIE1RvmroaOujjYgi1FF3BPxKUA7F8ASsx0yBUZ72OjlC9KxEeFZ3nHQeZnZvB09omJFbrz1h+Maw2+XoZzPQVebcOiDjt+A6dsgW9+iLgF1MIHm36zXyKvwAiWLnJXVT181WVsUsQYdNUiVuh//2gdcwnVAUW37EY5f4cAJzenIIx336ZBLVxUlE1aC06GQrEmBO1X5116kdPn3h0FkyQyrI2tTsyO5z6Iej6C8aUEq34J0sKLhJGdV3YF1cjtcqrIDL72dqk1NAymrYYO1FW1bA19Hbssr5BuCmPhNrg8yf59ksMrMtqfY+6389inpYeWEIyqYXJw3dXCqDzBRvolrooIJj40wEa8KXvjYUb2oiH7J44t31549e/CPn1iuuL70xXIxfCf4DHhZ9//tnXuIVUUcx+9rtc10sSTcpHApHyvlH9m7jF4ERRlRRAkVUZgF/VGESfYkDOlB/xSV0euPXgaVbW5BkAX6R2hEuOWa2QMjM9K0q9aq99y+v7vX3Hv2zj7PObP37mdgvPfMOWfmN59Z7/memd/M2A/T54qr9UO+WgLlh4HeONTr9NY8S+1xje4/VXGm4omKDYoDCfqNKE35Nbstdih+JAG6Vj9SNgQQeRCXtIYl7A1/hmKzojn/2ecEnTJh8oMeqhv18H9LNuzX8YgJEh32tj4uZNAcPbCtt6hqUF2nSBRVtIdE2HaX/03VTCJKlGCZLbYXK7tLFM2naqD+PdYO69Q+XyiuUM/gNzpOLJiDaLGQe20IPQmJ2VgqqDSTJfVcoSv3yJZP74v1t9G2FAgaiov1f2TBMARLAnzMZ6ZPx9puG4qpLUGQnTfQ9VTqT6ik/pXPTmMCDeIsoqaFirNWo+SEHk7TVdXj9INwtH6kj7FPHR+l77sUd+h4h4TCDn2XW8PvP/rGIjtysllvP6VZGeN0PE5C0x6u9t3GqUuiRHZvkxjYrs9YBIlvDlGXL3bmVNpLOEm7Ty3PJIu6yFjzs/ro78R6DSZLvJivUimqt+FIbRtgs6F2Kn2nPrfKsflLH8KqJwC99ac17XW+/l7v1IP5nJ7nRsj39nQmdU/nygc2JWlPt4jLLlbPxwIJgrFJlt1PWfKJSy3bmym8PD7IPaqOrXv7ud5O2xDdDRoCae/v2noTKmktQaEtFMIvQf1hiPQ8QiVSnGQGgeQJSKS06qH9XbhkpY1Xz5n1tBASIjDrisdPLqQC60m4UUWaI7uXYA8XTeVpTwWZ5d+vuv9TL0aUC51x5VIbplqseHNcQzQDrN9WcXm6a0/hxZ9WP2w+bqWgmVy3KP0FHfQ3vCHXotQi9S48Xb616ke9CRUNw+XlWDyhamUTSkSoJASaYuqPgC3Ap7foCeoVatCQSU5v+Q3yLfkr6d4r9T4sFN3nQ4S3a9hnciiNw4QIHH/dM41H7tt3nd7Wr9BD0PxvWuIvOv1POhW0SyStGNvVuCquGUZDrUcPp1cb3rtE/iZnasisYuhxqHn3cd/X8nVpk99P26b2JV+pJ8WGlHuFGfOWnpcKiu+Jnc067DOoPV/NNRYWdqx4uFcvpt04fd5j8zPFzFz7rqnRpfK0FH93ueVjPfy7j/UDYtdZ0ItF6bvUUPlc97F8krqPy+d16+F7Qvkeulc9j+V7Dl8bLlMdgRXXBIfyN1uCHmWm0/9u+nDJspKRnv5BqHgCT7G1T0ACwabA26JX/wf92GxQL8bs/xMS+CI73lQxN4SKeltCJZwWuoTDpAjYarX7sw1z0pngND145hSLGRMvU4bxoP5ND8wOeeMqFjv0jOnYd8RRHVtX3C2/i9oIpdlT/2TPl3Qw4TJXIqFZj8hJQxom6l41eLPWPdyovDYGQea7oCG1ZjCziFove3RqIZdrKzsr9w1RmzPKb+Vq+a2Y7xohZgIIlZgBk339EpBAuFC1+yxcQ4mV6RIrm8PpcRzbaq5jxoyxGT/hMeTbJVSWx1EmeUZHwHpemvb+3XQwl23S9NpSzGSCJr1ET9CiYfLRyuT1Pa8Xb8VcvjgmyOeKDbs6Vy7KR2fFyMrJBEwhn5pUzORMtEwqZuWjFHTPrFJHwV6LmUKm9KkOhb25ILdj8r79P9qmicOtycyrnhifCg68Ycv/95eXeiTu6GxbYkNGhJgJIFRiBkz29UtAgsScWHeqhhUzVPRQSWx6vKauP6DyHgtTlhP1SZoBsyWczjEEINA3gdLqvuuzyzQuUtFb2vMu9WY9KQfTRT3T+B4fAYRKfGzJeRQQUK/KB6rmVaGqrlNvxhmhtMgPJVLMB2WDhIrePCvCxyr/8ooUDiAAgUERsA0MNTRnvZIVTrYabnvl+7Yltw4qMy4eFgGtnUOAAASGQeDjKveeLgFzW5X0yJLUm5OVQLH1XMIixcp4KLKCyAgCo5SAFjl7XTstX6Tq/9EDwQebG6drujUhSQIIlSRpU1bdEdBMn1Wq1IFwxSQknpVYMYfJyIPyzmnIycbGL6iS+Ur1pqyvkk4SBCAwSAKdKx9cmw20JH9RPZdaMDMoNF0f9d5EgzRpVF7O0M+obHYqHSUBCRLbrqHXeLUExc/yFZmn6coboipPqxMfq+nQ7yq/86vk+YvSzpZQsYXzCBCAQEQEzMH3YFdjup6dmCNCFUs2CJVYsJLpaCIg8TBOPSvmK9JSpd624u5LOv+sVtv9tsr5ASU1NzdP1Uqzd+liGxtvqnLTLpVxrsrotfBblWtJggAEIFAzBBAqNdNUGDqSCZT3YVotG0/ow85OnftE8VdF24Bwm+Lv6iHZdmg35mnTpo3N5/NNSpuoHplTdP4sXXum4tmKWcVqYbuuvVZTotdUO0kaBCAAgVomgFCp5dbD9hFFoNzr8Y6MGvSMHwmNLokSzXqsnGHQXwV13/vaV3CBdlr+s79rOQ8BCECgFgkgVGqx1bB5xBKQcEhr1+ib9GFLTk+O0VDbFfkp+aO8FWMZZA0BCEDAOwGEivcmwIB6JNDS0nLEnj17LpVguVr1u1K9JccMt57Ky3bEfk/5LGdmz3Bpcj8EIFArBBAqtdJS2FmzBCQwshMnTmzVvoWtEhozVZFWRfNlsWXvLdrKtoeWwN+t63frul1K2624UcfrNHtofdKbHapsAgQgAAHvBBAq3psAAyAAAQhAAAIQcBFgwTcXGdIhAAEIQAACEPBOAKHivQkwAAIQgAAEIAABFwGEiosM6RCAAAQgAAEIeCeAUPHeBBgAAQhAAAIQgICLAELFRYZ0CEAAAhCAAAS8E0CoeG8CDIAABCAAAQhAwEUAoeIiQzoEIAABCEAAAt4JIFS8NwEGQAACEIAABCDgIoBQcZEhHQIQgAAEIAAB7wQQKt6bAAMgAAEIQAACEHARQKi4yJAOAQhAAAIQgIB3AggV702AARCAAAQgAAEIuAggVFxkSIcABCAAAQhAwDsBhIr3JsAACEAAAhCAAARcBBAqLjKkQwACEIAABCDgnQBCxXsTYAAEIAABCEAAAi4CCBUXGdIhAAEIQAACEPBOAKHivQkwAAIQgAAEIAABFwGEiosM6RCAAAQgAAEIeCeAUPHeBBgAAQhAAAIQgICLAELFRYZ0CEAAAhCAAAS8E0CoeG8CDIAABCAAAQhAwEUAoeIiQzoEIAABCEAAAt4JIFS8NwEGQAACEIAABCDgIoBQcZEhHQIQgAAEIAAB7wQQKt6bAAMgAAEIQAACEHARQKi4yJAOAQhAAAIQgIB3AggV702AARCAAAQgAAEIuAggVFxkSIcABCAAAQhAwDuB/wAONFN7NT16ywAAAABJRU5ErkJggg==;" parent="1" vertex="1">
          <mxGeometry x="335.09" y="60" width="89.83" height="90" as="geometry" />
        </mxCell>
        <mxCell id="glvm-G2zNo3vnsTsbxfd-1" value="" style="shape=image;imageAspect=0;aspect=fixed;verticalLabelPosition=bottom;verticalAlign=top;image=data:image/svg+xml,PHN2ZyB4bWxuczp4bGluaz0iaHR0cDovL3d3dy53My5vcmcvMTk5OS94bGluayIgeG1sbnM9Imh0dHA6Ly93d3cudzMub3JnLzIwMDAvc3ZnIiB2ZXJzaW9uPSIxLjEiIHZpZXdCb3g9IjAgMCAxNjYgMzUiIGhlaWdodD0iMzVweCIgd2lkdGg9IjE2NnB4Ij4mI3hhOyAgICA8dGl0bGU+ZGVsdGEtbG9nby1yZXY8L3RpdGxlPiYjeGE7ICAgIDxnIGZpbGwtcnVsZT0iZXZlbm9kZCIgZmlsbD0ibm9uZSIgc3Ryb2tlLXdpZHRoPSIxIiBzdHJva2U9Im5vbmUiIGlkPSJkZWx0YS1sb2dvLXJldiI+JiN4YTsgICAgICAgIDxwYXRoIGZpbGw9IiNGRkZGRkYiIGlkPSJEZWx0YS1MYWtlIiBkPSJNNDUuNzUxNTI4Nyw5Ljg5NDYyMzg0IEM0Ny44MjUzMTc4LDkuODk0NjIzODQgNDkuNTIzMjU2NiwxMC41MDI1MjQ5IDUwLjg0NDM4MzQsMTEuNzE3ODQ2MSBDNTEuNTU3ODQ5NSwxMi4zNzg4OTA0IDUyLjA5OTYyMjEsMTMuMTY0NzM3MiA1Mi40Njk3MDExLDE0LjA3NjEwNzkgQzUyLjgzOTA1ODcsMTQuOTg3OTU5NSA1My4wMjM5NzgsMTYuMDExODY4OCA1My4wMjM5NzgsMTcuMTQ3ODM1OCBDNTMuMDIzOTc4LDE4LjI4NDI4MzggNTIuODM5MDU4NywxOS4zMTEzMTkxIDUyLjQ2OTcwMTEsMjAuMjI5MTgyNCBDNTIuMDk5NjIyMSwyMS4xNDgwMDc2IDUxLjU1Nzg0OTUsMjEuOTM3MjIwOSA1MC44NDQzODM0LDIyLjU5NzU0MzggQzUwLjE4MzU3OTUsMjMuMTkyMjE5MiA0OS40Mjc3OTExLDIzLjY0MTQxMTkgNDguNTc1MzM0OSwyMy45NDUxMjIgQzQ3LjcyMzM1OTcsMjQuMjQ5MDcyNSA0Ni43ODE5MzA2LDI0LjQwMDgwNzMgNDUuNzUxNTI4NywyNC40MDA4MDczIEw0MC4zNDEwMTY4LDI0LjQwMDgwNzMgQzQwLjIwOTAwMDMsMjQuNDAwODA3MyA0MC4wOTY3MDIyLDI0LjM1NDg3OCA0MC4wMDQxMjIzLDI0LjI2MjI5ODIgQzM5LjkxMTU0MjQsMjQuMTY5OTU4OCAzOS44NjU2MTMyLDI0LjA1NzY2MDYgMzkuODY1NjEzMiwyMy45MjU0MDM2IEwzOS44NjU2MTMyLDEwLjM3MDI2NzkgQzM5Ljg2NTYxMzIsMTAuMjM4NDkxOSAzOS45MTE1NDI0LDEwLjEyNTk1MzMgNDAuMDA0MTIyMywxMC4wMzMzNzM0IEM0MC4wOTY3MDIyLDkuOTQxMDM0MDEgNDAuMjA5MDAwMyw5Ljg5NDYyMzg0IDQwLjM0MTAxNjgsOS44OTQ2MjM4NCBMNDUuNzUxNTI4Nyw5Ljg5NDYyMzg0IFogTTY1LjMzMDc1MjMsOS44OTQ0Nzk1NiBDNjUuNDYyNzY4OCw5Ljg5NDQ3OTU2IDY1LjU3NTA2Nyw5Ljk0MTEzMDIgNjUuNjY3NjQ2OSwxMC4wMzM0Njk2IEM2NS43NjAyMjY3LDEwLjEyNTgwOSA2NS44MDY2MzY5LDEwLjIzODM0NzYgNjUuODA2NjM2OSwxMC4zNzAzNjQxIEw2NS44MDY2MzY5LDEzLjA2NTI4IEM2NS44MDY2MzY5LDEzLjE5Nzc3NzQgNjUuNzYwMjI2NywxMy4zMTAwNzU2IDY1LjY2NzY0NjksMTMuNDAyMTc0NSBDNjUuNTc1MDY3LDEzLjQ5NDk5NDggNjUuNDYyNzY4OCwxMy41NDA5MjQxIDY1LjMzMDc1MjMsMTMuNTQwOTI0MSBMNTkuMTY3ODE4NiwxMy41NDA5MjQxIEM1OS4wMzU4MDIxLDEzLjU0MDkyNDEgNTguOTIzNTA0LDEzLjU4NzU3NDcgNTguODMwOTI0MSwxMy42Nzk5MTQxIEM1OC43MzgzNDQyLDEzLjc3MjI1MzUgNTguNjkyNDE1LDEzLjg4NDc5MjIgNTguNjkyNDE1LDE0LjAxNjgwODcgTDU4LjY5MjQxNSwxNC44NDkwNjU2IEM1OC42OTI0MTUsMTQuOTgxMDgyMSA1OC43MzgzNDQyLDE1LjA5Mzg2MTIgNTguODMwOTI0MSwxNS4xODU5NjAyIEM1OC45MjM1MDQsMTUuMjc4Mjk5NiA1OS4wMzU4MDIxLDE1LjMyNDQ2OTMgNTkuMTY3ODE4NiwxNS4zMjQ0NjkzIEw2NC41Mzg0MTI5LDE1LjMyNDQ2OTMgQzY0LjY3MDQyOTQsMTUuMzI0NDY5MyA2NC43ODI3Mjc2LDE1LjM3MDg3OTQgNjQuODc1MDY3LDE1LjQ2MzQ1OTMgQzY0Ljk2NzY0NjksMTUuNTU1Nzk4NyA2NS4wMTM1NzYxLDE1LjY2ODMzNzMgNjUuMDEzNTc2MSwxNS44MDAzNTM4IEw2NS4wMTM1NzYxLDE4LjUzNDk0NjggQzY1LjAxMzU3NjEsMTguNjY3MjAzNyA2NC45Njc2NDY5LDE4Ljc3OTc0MjQgNjQuODc1MDY3LDE4Ljg3MTg0MTMgQzY0Ljc4MjcyNzYsMTguOTY0NDIxMiA2NC42NzA0Mjk0LDE5LjAxMDgzMTMgNjQuNTM4NDEyOSwxOS4wMTA4MzEzIEw1OS4xNjc4MTg2LDE5LjAxMDgzMTMgQzU5LjAzNTgwMjEsMTkuMDEwODMxMyA1OC45MjM1MDQsMTkuMDU3MDAxIDU4LjgzMDkyNDEsMTkuMTQ5NTgwOSBDNTguNzM4MzQ0MiwxOS4yNDE5MjAzIDU4LjY5MjQxNSwxOS4zNTQyMTg1IDU4LjY5MjQxNSwxOS40ODYyMzUgTDU4LjY5MjQxNSwyMC4yMzkzNzgyIEM1OC42OTI0MTUsMjAuMzcxNjM1MiA1OC43MzgzNDQyLDIwLjQ4MzkzMzQgNTguODMwOTI0MSwyMC41NzYwMzIzIEM1OC45MjM1MDQsMjAuNjY4NjEyMiA1OS4wMzU4MDIxLDIwLjcxNDc4MTkgNTkuMTY3ODE4NiwyMC43MTQ3ODE5IEw2NS4zMzA3NTIzLDIwLjcxNDc4MTkgQzY1LjQ2Mjc2ODgsMjAuNzE0NzgxOSA2NS41NzUwNjcsMjAuNzYxNDMyNSA2NS42Njc2NDY5LDIwLjg1Mzc3MTkgQzY1Ljc2MDIyNjcsMjAuOTQ2MTExMyA2NS44MDY2MzY5LDIxLjA1ODQwOTUgNjUuODA2NjM2OSwyMS4xOTA2NjY0IEw2NS44MDY2MzY5LDIzLjkyNTI1OTQgQzY1LjgwNjYzNjksMjQuMDU3NzU2OCA2NS43NjAyMjY3LDI0LjE3MDA1NSA2NS42Njc2NDY5LDI0LjI2MjE1MzkgQzY1LjU3NTA2NywyNC4zNTQ3MzM4IDY1LjQ2Mjc2ODgsMjQuNDAwOTAzNSA2NS4zMzA3NTIzLDI0LjQwMDkwMzUgTDU1LjI0Mzg3NSwyNC40MDA5MDM1IEM1NS4xMTE4NTg1LDI0LjQwMDkwMzUgNTQuOTk5NTYwMywyNC4zNTQ3MzM4IDU0LjkwNjk4MDQsMjQuMjYyMTUzOSBDNTQuODE0NDAwNSwyNC4xNzAwNTUgNTQuNzY4NDcxMywyNC4wNTc3NTY4IDU0Ljc2ODQ3MTMsMjMuOTI1MjU5NCBMNTQuNzY4NDcxMywxMC4zNzAzNjQxIEM1NC43Njg0NzEzLDEwLjIzODM0NzYgNTQuODE0NDAwNSwxMC4xMjU4MDkgNTQuOTA2OTgwNCwxMC4wMzM0Njk2IEM1NC45OTk1NjAzLDkuOTQxMTMwMiA1NS4xMTE4NTg1LDkuODk0NDc5NTYgNTUuMjQzODc1LDkuODk0NDc5NTYgTDY1LjMzMDc1MjMsOS44OTQ0Nzk1NiBaIE03MS43NTE1NjMsOS44OTQ1MDM2MSBDNzEuODgzNTc5NSw5Ljg5NDUwMzYxIDcxLjk5NTg3NzcsOS45NDExNTQyNCA3Mi4wODg0NTc2LDEwLjAzMzI1MzIgQzcyLjE4MDc5NywxMC4xMjU4MzMgNzIuMjI3NDQ3NiwxMC4yMzgzNzE3IDcyLjIyNzQ0NzYsMTAuMzcwMzg4MiBMNzIuMjI3NDQ3NiwyMC4yNzg4Mzg5IEM3Mi4yMjc0NDc2LDIwLjQxMTMzNjMgNzIuMjcwMDEwMywyMC41MjM2MzQ1IDcyLjM1NTg1NzEsMjAuNjE1NzMzNCBDNzIuNDQxNDYzNCwyMC43MDg1NTM4IDcyLjU1NzM2ODYsMjAuNzU0NDgzIDcyLjcwMjg1MTMsMjAuNzU0NDgzIEw3OC42Njc4ODA1LDIwLjc1NDQ4MyBDNzguNzk5ODk2OSwyMC43NTQ0ODMgNzguOTEyMTk1MSwyMC44MDExMzM2IDc5LjAwNDc3NSwyMC44OTM0NzMgQzc5LjA5NjYzMzUsMjAuOTg1NTcyIDc5LjE0MzI4NDEsMjEuMDk4MzUxMSA3OS4xNDMyODQxLDIxLjIzMDEyNzEgTDc5LjE0MzI4NDEsMjMuOTI1MjgzNCBDNzkuMTQzMjg0MSwyNC4wNTc3ODA4IDc5LjA5NjYzMzUsMjQuMTcwMDc5IDc5LjAwNDc3NSwyNC4yNjIxNzc5IEM3OC45MTIxOTUxLDI0LjM1NDc1NzggNzguNzk5ODk2OSwyNC40MDA5Mjc1IDc4LjY2Nzg4MDUsMjQuNDAwOTI3NSBMNjguNzc4NjY3MSwyNC40MDA5Mjc1IEM2OC42MzMxODQ1LDI0LjQwMDkyNzUgNjguNTE4MDAwNywyNC4zNTQ3NTc4IDY4LjQzMjE1MzksMjQuMjYyMTc3OSBDNjguMzQ1ODI2MiwyNC4xNzAwNzkgNjguMzAzNTA0LDI0LjA1Nzc4MDggNjguMzAzNTA0LDIzLjkyNTI4MzQgTDY4LjMwMzUwNCwxMC4zNzAzODgyIEM2OC4zMDM1MDQsMTAuMjM4MzcxNyA2OC4zNDU4MjYyLDEwLjEyNTgzMyA2OC40MzIxNTM5LDEwLjAzMzI1MzIgQzY4LjUxODAwMDcsOS45NDExNTQyNCA2OC42MzMxODQ1LDkuODk0NTAzNjEgNjguNzc4NjY3MSw5Ljg5NDUwMzYxIEw3MS43NTE1NjMsOS44OTQ1MDM2MSBaIE04OC4zNTg1NCw5Ljg5NDU5OTc5IEM4OC41MDM1NDE3LDkuODk0NTk5NzkgODguNjE5MjA2NSw5Ljk0MTAwOTk2IDg4LjcwNTI5MzcsMTAuMDMzMzQ5NCBDODguNzkwOSwxMC4xMjU5MjkyIDg4LjgzMzk0MzcsMTAuMjM4NDY3OSA4OC44MzM5NDM3LDEwLjM3MDI0MzkgTDg4LjgzMzk0MzcsMTMuMDY1MTU5NyBDODguODMzOTQzNywxMy4xOTc2NTcyIDg4Ljc5MDksMTMuMzA5OTU1MyA4OC43MDUyOTM3LDEzLjQwMjI5NDcgQzg4LjYxOTIwNjUsMTMuNDk1MTE1MSA4OC41MDM1NDE3LDEzLjU0MTA0NDMgODguMzU4NTQsMTMuNTQxMDQ0MyBMODUuNTgzNTQ4NiwxMy41NDEwNDQzIEM4NS40NTE1MzIxLDEzLjU0MTA0NDMgODUuMzM5MjMzOSwxMy41ODc0NTQ1IDg1LjI0Njg5NDUsMTMuNjc5NzkzOSBDODUuMTU0MzE0NywxMy43NzIzNzM4IDg1LjEwODM4NTQsMTMuODg0OTEyNCA4NS4xMDgzODU0LDE0LjAxNjkyODkgTDg1LjEwODM4NTQsMjMuOTI1Mzc5NiBDODUuMTA4Mzg1NCwyNC4wNTc2MzY2IDg1LjA2NTM0MTgsMjQuMTY5OTM0NyA4NC45Nzk3MzU1LDI0LjI2MjI3NDEgQzg0Ljg5MzY0ODIsMjQuMzU0ODU0IDg0Ljc3Nzc0MywyNC40MDA3ODMyIDg0LjYzMjk4MTgsMjQuNDAwNzgzMiBMODEuNjYwMzI2MywyNC40MDA3ODMyIEM4MS41MjgzMDk5LDI0LjQwMDc4MzIgODEuNDE1MjkwMywyNC4zNTQ4NTQgODEuMzIzNDMxOCwyNC4yNjIyNzQxIEM4MS4yMzA4NTE5LDI0LjE2OTkzNDcgODEuMTg0NDQxOCwyNC4wNTc2MzY2IDgxLjE4NDQ0MTgsMjMuOTI1Mzc5NiBMODEuMTg0NDQxOCwxNC4wMTY5Mjg5IEM4MS4xODQ0NDE4LDEzLjg4NDkxMjQgODEuMTQxMzk4MSwxMy43NzIzNzM4IDgxLjA1NTc5MTgsMTMuNjc5NzkzOSBDODAuOTY5NzA0NiwxMy41ODc0NTQ1IDgwLjg1NDI4MDMsMTMuNTQxMDQ0MyA4MC43MDkwMzgxLDEzLjU0MTA0NDMgTDc3Ljg5NTA5MSwxMy41NDEwNDQzIEM3Ny43NjI1OTM2LDEzLjU0MTA0NDMgNzcuNjUwMjk1NCwxMy40OTUxMTUxIDc3LjU1ODE5NjUsMTMuNDAyMjk0NyBDNzcuNDY1MTM1NywxMy4zMDk5NTUzIDc3LjQxOTIwNjUsMTMuMTk3NjU3MiA3Ny40MTkyMDY1LDEzLjA2NTE1OTcgTDc3LjQxOTIwNjUsMTAuMzcwMjQzOSBDNzcuNDE5MjA2NSwxMC4yMzg0Njc5IDc3LjQ2NTEzNTcsMTAuMTI1OTI5MiA3Ny41NTgxOTY1LDEwLjAzMzM0OTQgQzc3LjY1MDI5NTQsOS45NDEwMDk5NiA3Ny43NjI1OTM2LDkuODk0NTk5NzkgNzcuODk1MDkxLDkuODk0NTk5NzkgTDg4LjM1ODU0LDkuODk0NTk5NzkgWiBNOTYuNTQzNDQyMSw5LjkxNDgyMzA4IEM5Ni42NzQ3MzcyLDkuOTE0ODIzMDggOTYuODA0MTA4Niw5Ljk1NzYyNjI1IDk2LjkyOTYzMjQsMTAuMDQzMjMyNiBDOTcuMDU0Njc1NCwxMC4xMjkzMTk4IDk3LjE0Mzg4ODcsMTAuMjMxNTE4NCA5Ny4xOTY3OTE1LDEwLjM1MDMwOTIgTDEwMi45ODM4NzUsMjMuODI2MzMxMiBDMTAzLjAzNjI5NywyMy45NDUxMjIgMTAzLjAyNjQzOCwyNC4wNzA2NDU4IDEwMi45NTQwNTcsMjQuMjAyOTAyOCBDMTAyLjg4MTQzNiwyNC4zMzQ5MTkzIDEwMi43Mzg4MzksMjQuNDAwODA3MyAxMDIuNTI3NzA5LDI0LjQwMDgwNzMgTDk5LjEzODgwNDUsMjQuNDAwODA3MyBDOTguOTkzNTYyMywyNC40MDA4MDczIDk4Ljg1ODQxOTgsMjQuMzU4MDA0MSA5OC43MzI4OTU5LDI0LjI3MjE1NzMgQzk4LjYwNzEzMTYsMjQuMTg2MDcwMSA5OC41MTE2NjYxLDI0LjA4Mzg3MTUgOTguNDQ1NTM3NiwyMy45NjQ4NDAzIEw5Ny45MTA3Mzg2LDIyLjc3NTczIEM5Ny44NDQzNjk2LDIyLjY1NzE3OTcgOTcuNzQ4NDIzMiwyMi41NTQ3NDA2IDk3LjYyMzEzOTgsMjIuNDY4NjUzNCBDOTcuNDk3NjE1OSwyMi4zODMwNDcxIDk3LjM2ODQ4NTEsMjIuMzQwMDAzNCA5Ny4yMzY5NDk1LDIyLjM0MDAwMzQgTDkzLjA1NTIyNSwyMi4zNDAwMDM0IEM5Mi45MDk3NDI0LDIyLjM0MDAwMzQgOTIuNzc0MTE4OSwyMi4zODMwNDcxIDkyLjY0OTA3NTksMjIuNDY4NjUzNCBDOTIuNTIzMzExNiwyMi41NTQ3NDA2IDkyLjQzNDMzODcsMjIuNjU3MTc5NyA5Mi4zODE0MzU5LDIyLjc3NTczIEw5MS44MjYxOTcyLDIzLjk2NDg0MDMgQzkxLjc3MzI5NDQsMjQuMDgzODcxNSA5MS42ODQzMjE1LDI0LjE4NjA3MDEgOTEuNTU5Mjc4NiwyNC4yNzIxNTczIEM5MS40MzM1MTQzLDI0LjM1ODAwNDEgOTEuMzA0MzgzNCwyNC40MDA4MDczIDkxLjE3MjM2NjksMjQuNDAwODA3MyBMODcuNzYzNzQ0NCwyNC40MDA4MDczIEM4Ny42OTgwOTY5LDI0LjQwMDgwNzMgODcuNjI4ODQyMywyNC4zODc4MjIxIDg3LjU1NjIyMTIsMjQuMzYxMzcwNyBDODcuNDgzMzU5NywyNC4zMzQ5MTkzIDg3LjQyMzk2NDMsMjQuMjk1NDgyNyA4Ny4zNzc1NTQxLDI0LjI0MjMzOTQgQzg3LjMzMTYyNDksMjQuMTg5Njc3MSA4Ny4zMDE4MDY5LDI0LjEyMzU0ODYgODcuMjg4NTgxMiwyNC4wNDQ0MzQ5IEM4Ny4yNzU4MzY1LDIzLjk2NDg0MDMgODcuMjk1NTU0OCwyMy44NzI3NDEzIDg3LjM0NzczNjIsMjMuNzY2Njk1MyBMOTMuMDk0NjYxNiwxMC4zNTAzMDkyIEM5My4xNDc1NjQ0LDEwLjIzMTUxODQgOTMuMjM2Nzc3NywxMC4xMjkzMTk4IDkzLjM2MjU0MjEsMTAuMDQzMjMyNiBDOTMuNDg4MDY2LDkuOTU3NjI2MjUgOTMuNjIyOTY4MSw5LjkxNDgyMzA4IDkzLjc2ODQ1MDcsOS45MTQ4MjMwOCBMOTYuNTQzNDQyMSw5LjkxNDgyMzA4IFogTTExNC41NzY1NTgsOS44OTQ1MDM2MSBDMTE0LjcwODA5Myw5Ljg5NDUwMzYxIDExNC44MjA4NzMsOS45NDExNTQyNCAxMTQuOTEzNDUyLDEwLjAzMzI1MzIgQzExNS4wMDUzMTEsMTAuMTI1ODMzIDExNS4wNTE3MjEsMTAuMjM4MzcxNyAxMTUuMDUxNzIxLDEwLjM3MDM4ODIgTDExNS4wNTE3MjEsMjAuMjc4ODM4OSBDMTE1LjA1MTcyMSwyMC40MTEzMzYzIDExNS4wOTUwMDUsMjAuNTIzNjM0NSAxMTUuMTgwMzcxLDIwLjYxNTczMzQgQzExNS4yNjY2OTksMjAuNzA4NTUzOCAxMTUuMzgxNjQyLDIwLjc1NDQ4MyAxMTUuNTI3ODQ2LDIwLjc1NDQ4MyBMMTIxLjQ5MjM5NCwyMC43NTQ0ODMgQzEyMS42MjQ0MTEsMjAuNzU0NDgzIDEyMS43MzY3MDksMjAuODAxMTMzNiAxMjEuODI5Mjg5LDIwLjg5MzQ3MyBDMTIxLjkyMTg2OSwyMC45ODU1NzIgMTIxLjk2ODI3OSwyMS4wOTgzNTExIDEyMS45NjgyNzksMjEuMjMwMTI3MSBMMTIxLjk2ODI3OSwyMy45MjUyODM0IEMxMjEuOTY4Mjc5LDI0LjA1Nzc4MDggMTIxLjkyMTg2OSwyNC4xNzAwNzkgMTIxLjgyOTI4OSwyNC4yNjIxNzc5IEMxMjEuNzM2NzA5LDI0LjM1NDc1NzggMTIxLjYyNDQxMSwyNC40MDA5Mjc1IDEyMS40OTIzOTQsMjQuNDAwOTI3NSBMMTExLjYwMzY2MiwyNC40MDA5Mjc1IEMxMTEuNDU4NDIsMjQuNDAwOTI3NSAxMTEuMzQyNTE1LDI0LjM1NDc1NzggMTExLjI1NzE0OSwyNC4yNjIxNzc5IEMxMTEuMTcxMDYxLDI0LjE3MDA3OSAxMTEuMTI4MDE4LDI0LjA1Nzc4MDggMTExLjEyODAxOCwyMy45MjUyODM0IEwxMTEuMTI4MDE4LDEwLjM3MDM4ODIgQzExMS4xMjgwMTgsMTAuMjM4MzcxNyAxMTEuMTcxMDYxLDEwLjEyNTgzMyAxMTEuMjU3MTQ5LDEwLjAzMzI1MzIgQzExMS4zNDI1MTUsOS45NDExNTQyNCAxMTEuNDU4NDIsOS44OTQ1MDM2MSAxMTEuNjAzNjYyLDkuODk0NTAzNjEgTDExNC41NzY1NTgsOS44OTQ1MDM2MSBaIE0xMzEuNTIwMTY1LDkuOTE0ODIzMDggQzEzMS42NTEyMiw5LjkxNDgyMzA4IDEzMS43ODA4MzEsOS45NTc2MjYyNSAxMzEuOTA2MzU1LDEwLjA0MzIzMjYgQzEzMi4wMzExNTgsMTAuMTI5MzE5OCAxMzIuMTIwNjExLDEwLjIzMTUxODQgMTMyLjE3MzI3NCwxMC4zNTAzMDkyIEwxMzcuOTYwMzU3LDIzLjgyNjMzMTIgQzEzOC4wMTI3NzksMjMuOTQ1MTIyIDEzOC4wMDI5MiwyNC4wNzA2NDU4IDEzNy45MzA3OCwyNC4yMDI5MDI4IEMxMzcuODU3OTE4LDI0LjMzNDkxOTMgMTM3LjcxNTMyMSwyNC40MDA4MDczIDEzNy41MDQxOTEsMjQuNDAwODA3MyBMMTM0LjExNTUyNywyNC40MDA4MDczIEMxMzMuOTcwMDQ1LDI0LjQwMDgwNzMgMTMzLjgzNDkwMiwyNC4zNTgwMDQxIDEzMy43MDkzNzgsMjQuMjcyMTU3MyBDMTMzLjU4Mzg1NCwyNC4xODYwNzAxIDEzMy40ODgzODksMjQuMDgzODcxNSAxMzMuNDIyMDIsMjMuOTY0ODQwMyBMMTMyLjg4NzIyMSwyMi43NzU3MyBDMTMyLjgyMTA5MiwyMi42NTcxNzk3IDEzMi43MjQ5MDYsMjIuNTU0NzQwNiAxMzIuNTk5ODYzLDIyLjQ2ODY1MzQgQzEzMi40NzQwOTgsMjIuMzgzMDQ3MSAxMzIuMzQ0OTY3LDIyLjM0MDAwMzQgMTMyLjIxMzQzMiwyMi4zNDAwMDM0IEwxMjguMDMxOTQ4LDIyLjM0MDAwMzQgQzEyNy44ODYyMjUsMjIuMzQwMDAzNCAxMjcuNzUwODQyLDIyLjM4MzA0NzEgMTI3LjYyNTU1OCwyMi40Njg2NTM0IEMxMjcuNTAwMDM0LDIyLjU1NDc0MDYgMTI3LjQxMTA2MSwyMi42NTcxNzk3IDEyNy4zNTc5MTgsMjIuNzc1NzMgTDEyNi44MDI5MiwyMy45NjQ4NDAzIEMxMjYuNzUwMDE3LDI0LjA4Mzg3MTUgMTI2LjY2MDgwNCwyNC4xODYwNzAxIDEyNi41MzU3NjEsMjQuMjcyMTU3MyBDMTI2LjQxMDIzNywyNC4zNTgwMDQxIDEyNi4yODA4NjYsMjQuNDAwODA3MyAxMjYuMTQ5MDksMjQuNDAwODA3MyBMMTIyLjc0MDQ2NywyNC40MDA4MDczIEMxMjIuNjc0NTc5LDI0LjQwMDgwNzMgMTIyLjYwNTMyNSwyNC4zODc4MjIxIDEyMi41MzI3MDQsMjQuMzYxMzcwNyBDMTIyLjQ2MDA4MiwyNC4zMzQ5MTkzIDEyMi40MDA2ODcsMjQuMjk1NDgyNyAxMjIuMzU0MDM2LDI0LjI0MjMzOTQgQzEyMi4zMDgxMDcsMjQuMTg5Njc3MSAxMjIuMjc4NTMsMjQuMTIzNTQ4NiAxMjIuMjY1MDY0LDI0LjA0NDQzNDkgQzEyMi4yNTIzMTksMjMuOTY0ODQwMyAxMjIuMjcyMjc4LDIzLjg3Mjc0MTMgMTIyLjMyNDQ1OSwyMy43NjY2OTUzIEwxMjguMDcxMzg0LDEwLjM1MDMwOTIgQzEyOC4xMjQyODcsMTAuMjMxNTE4NCAxMjguMjEzNTAxLDEwLjEyOTMxOTggMTI4LjMzOTAyNCwxMC4wNDMyMzI2IEMxMjguNDY0NTQ4LDkuOTU3NjI2MjUgMTI4LjU5OTY5MSw5LjkxNDgyMzA4IDEyOC43NDQ5MzMsOS45MTQ4MjMwOCBMMTMxLjUyMDE2NSw5LjkxNDgyMzA4IFogTTE0Mi44NTQ5MjMsOS44OTQ1Mjc2NSBDMTQyLjk4NjkzOSw5Ljg5NDUyNzY1IDE0My4wOTkyMzcsOS45NDExNzgyOSAxNDMuMTkxODE3LDEwLjAzMzI3NzIgQzE0My4yODQzOTcsMTAuMTI1ODU3MSAxNDMuMzMwMDg2LDEwLjIzODM5NTcgMTQzLjMzMDA4NiwxMC4zNzA0MTIyIEwxNDMuMzMwMDg2LDE0LjkyODIyNzQgQzE0My4zMzAwODYsMTUuMDYwNzI0OCAxNDMuMzU3MDE4LDE1LjEzNjQ3MiAxNDMuNDA5OTIxLDE1LjE1NjE5MDMgQzE0My40NjIzNDMsMTUuMTc1OTA4NiAxNDMuNTI4NzEyLDE1LjEzMzEwNTUgMTQzLjYwNzgyNSwxNS4wMjcyOTk5IEwxNDcuMTc1MTU2LDEwLjI5MTI5ODUgQzE0Ny4yNTQyNywxMC4xODU0OTMgMTQ3LjM2NjU2OCwxMC4wOTYyNzk2IDE0Ny41MTIwNTEsMTAuMDIzNDE4MSBDMTQ3LjY1NzA1Myw5Ljk1MTAzNzQ0IDE0Ny44MDIyOTUsOS45MTQ3MjY5IDE0Ny45NDgwMTgsOS45MTQ3MjY5IEwxNTEuNzMyNzMxLDkuOTE0NzI2OSBDMTUxLjg3ODIxNCw5LjkxNDcyNjkgMTUxLjk3MDc5NCw5Ljk3NzQ4ODg0IDE1Mi4wMTAyMywxMC4xMDI3NzIyIEMxNTIuMDQ5OTA3LDEwLjIyODUzNjYgMTUyLjAyOTk0OCwxMC4zNDM5NjA4IDE1MS45NTA4MzUsMTAuNDQ5NzY2NCBMMTQ2LjczOTE4OSwxNi45Njk1NTM0IEMxNDYuNjU5NTk1LDE3LjA3NTU5OTUgMTQ2LjYyMzA0NCwxNy4xOTcyNzU5IDE0Ni42MzAwMTcsMTcuMzM2MjY1OSBDMTQ2LjYzNjI2OSwxNy40NzUwMTU1IDE0Ni42ODYyODYsMTcuNTkwNjgwMiAxNDYuNzc4ODY2LDE3LjY4MzAxOTYgQzE0Ny4yMjczMzgsMTguMTcxNjQ4OSAxNDcuNzAzNDYzLDE4LjY4MDQ3NzUgMTQ4LjIwNTU1OCwxOS4yMDkwMjQ0IEMxNDguNzA3NjU0LDE5LjczNzU3MTMgMTQ5LjIwNjM4MywyMC4yNjkwMDM4IDE0OS43MDE1MDUsMjAuODA0MDQzMyBDMTUwLjE5NzEwOCwyMS4zMzkzMjMzIDE1MC42ODU5NzcsMjEuODY3ODcwMSAxNTEuMTY4MzU1LDIyLjM4OTQ0MzUgQzE1MS42NTAwMSwyMi45MTE0OTc4IDE1Mi4xMDk3ODQsMjMuMzk3MDAxIDE1Mi41NDU3NTEsMjMuODQ2MTkzNyBDMTUyLjYzNzM2OSwyMy45NTE5OTkzIDE1Mi42NzA1NTMsMjQuMDcwNTQ5NiAxNTIuNjQ0NTgzLDI0LjIwMjgwNjYgQzE1Mi42MTc2NSwyNC4zMzQ4MjMxIDE1Mi41MzIyODQsMjQuNDAwNzExMSAxNTIuMzg2ODAyLDI0LjQwMDcxMTEgTDE0OC4yODQ2NzIsMjQuNDAwNzExMSBDMTQ4LjEzOTE4OSwyNC40MDA3MTExIDE0Ny45OTA4MjEsMjQuMzY4MjQ4IDE0Ny44Mzg4NDYsMjQuMzAxNjM4NiBDMTQ3LjY4NjYzLDI0LjIzNTk5MTEgMTQ3LjU3MTIwNiwyNC4xNTAxNDQzIDE0Ny40OTIzMzMsMjQuMDQ0MzM4NyBMMTQzLjY0NzUwMywxOS43NDM4MjM0IEMxNDMuNTU0OTIzLDE5LjYzODI1ODMgMTQzLjQ3OTQxNiwxOS41OTg4MjE3IDE0My40MTk3OCwxOS42MjQ3OTIyIEMxNDMuMzU5OTA0LDE5LjY1MTQ4NCAxNDMuMzMwMDg2LDE5LjczMDgzODIgMTQzLjMzMDA4NiwxOS44NjI2MTQyIEwxNDMuMzMwMDg2LDIzLjkyNTMwNzUgQzE0My4zMzAwODYsMjQuMDU3ODA0OSAxNDMuMjg0Mzk3LDI0LjE2OTg2MjYgMTQzLjE5MTgxNywyNC4yNjIyMDIgQzE0My4wOTkyMzcsMjQuMzU0NzgxOSAxNDIuOTg2OTM5LDI0LjQwMDcxMTEgMTQyLjg1NDkyMywyNC40MDA3MTExIEwxMzkuODgyMjY3LDI0LjQwMDcxMTEgQzEzOS43MzY3ODUsMjQuNDAwNzExMSAxMzkuNjIxMTIsMjQuMzU0NzgxOSAxMzkuNTM1NTE0LDI0LjI2MjIwMiBDMTM5LjQ0OTQyNiwyNC4xNjk4NjI2IDEzOS40MDY4NjQsMjQuMDU3ODA0OSAxMzkuNDA2ODY0LDIzLjkyNTMwNzUgTDEzOS40MDY4NjQsMTAuMzcwNDEyMiBDMTM5LjQwNjg2NCwxMC4yMzgzOTU3IDEzOS40NDk0MjYsMTAuMTI1ODU3MSAxMzkuNTM1NTE0LDEwLjAzMzI3NzIgQzEzOS42MjExMiw5Ljk0MTE3ODI5IDEzOS43MzY3ODUsOS44OTQ1Mjc2NSAxMzkuODgyMjY3LDkuODk0NTI3NjUgTDE0Mi44NTQ5MjMsOS44OTQ1Mjc2NSBaIE0xNjQuNDU1MjczLDkuODk0NDc5NTYgQzE2NC41ODc1Myw5Ljg5NDQ3OTU2IDE2NC42OTk4MjgsOS45NDExMzAyIDE2NC43OTI0MDgsMTAuMDMzNDY5NiBDMTY0Ljg4NDk4OCwxMC4xMjU4MDkgMTY0LjkzMDY3NywxMC4yMzgzNDc2IDE2NC45MzA2NzcsMTAuMzcwMzY0MSBMMTY0LjkzMDY3NywxMy4wNjUyOCBDMTY0LjkzMDY3NywxMy4xOTc3Nzc0IDE2NC44ODQ5ODgsMTMuMzEwMDc1NiAxNjQuNzkyNDA4LDEzLjQwMjE3NDUgQzE2NC42OTk4MjgsMTMuNDk0OTk0OCAxNjQuNTg3NTMsMTMuNTQwOTI0MSAxNjQuNDU1MjczLDEzLjU0MDkyNDEgTDE1OC4yOTIzMzksMTMuNTQwOTI0MSBDMTU4LjE1OTg0MiwxMy41NDA5MjQxIDE1OC4wNDc1NDQsMTMuNTg3NTc0NyAxNTcuOTU1NDQ1LDEzLjY3OTkxNDEgQzE1Ny44NjIzODQsMTMuNzcyMjUzNSAxNTcuODE2NDU1LDEzLjg4NDc5MjIgMTU3LjgxNjQ1NSwxNC4wMTY4MDg3IEwxNTcuODE2NDU1LDE0Ljg0OTA2NTYgQzE1Ny44MTY0NTUsMTQuOTgxMDgyMSAxNTcuODYyMzg0LDE1LjA5Mzg2MTIgMTU3Ljk1NTQ0NSwxNS4xODU5NjAyIEMxNTguMDQ3NTQ0LDE1LjI3ODI5OTYgMTU4LjE1OTg0MiwxNS4zMjQ0NjkzIDE1OC4yOTIzMzksMTUuMzI0NDY5MyBMMTYzLjY2MjY5MywxNS4zMjQ0NjkzIEMxNjMuNzk0MjI5LDE1LjMyNDQ2OTMgMTYzLjkwNjc2NywxNS4zNzA4Nzk0IDE2My45OTk4MjgsMTUuNDYzNDU5MyBDMTY0LjA5MTY4NywxNS41NTU3OTg3IDE2NC4xMzgzMzcsMTUuNjY4MzM3MyAxNjQuMTM4MzM3LDE1LjgwMDM1MzggTDE2NC4xMzgzMzcsMTguNTM0OTQ2OCBDMTY0LjEzODMzNywxOC42NjcyMDM3IDE2NC4wOTE2ODcsMTguNzc5NzQyNCAxNjMuOTk5ODI4LDE4Ljg3MTg0MTMgQzE2My45MDY3NjcsMTguOTY0NDIxMiAxNjMuNzk0MjI5LDE5LjAxMDgzMTMgMTYzLjY2MjY5MywxOS4wMTA4MzEzIEwxNTguMjkyMzM5LDE5LjAxMDgzMTMgQzE1OC4xNTk4NDIsMTkuMDEwODMxMyAxNTguMDQ3NTQ0LDE5LjA1NzAwMSAxNTcuOTU1NDQ1LDE5LjE0OTU4MDkgQzE1Ny44NjIzODQsMTkuMjQxOTIwMyAxNTcuODE2NDU1LDE5LjM1NDIxODUgMTU3LjgxNjQ1NSwxOS40ODYyMzUgTDE1Ny44MTY0NTUsMjAuMjM5Mzc4MiBDMTU3LjgxNjQ1NSwyMC4zNzE2MzUyIDE1Ny44NjIzODQsMjAuNDgzOTMzNCAxNTcuOTU1NDQ1LDIwLjU3NjAzMjMgQzE1OC4wNDc1NDQsMjAuNjY4NjEyMiAxNTguMTU5ODQyLDIwLjcxNDc4MTkgMTU4LjI5MjMzOSwyMC43MTQ3ODE5IEwxNjQuNDU1MjczLDIwLjcxNDc4MTkgQzE2NC41ODc1MywyMC43MTQ3ODE5IDE2NC42OTk4MjgsMjAuNzYxNDMyNSAxNjQuNzkyNDA4LDIwLjg1Mzc3MTkgQzE2NC44ODQ5ODgsMjAuOTQ2MTExMyAxNjQuOTMwNjc3LDIxLjA1ODQwOTUgMTY0LjkzMDY3NywyMS4xOTA2NjY0IEwxNjQuOTMwNjc3LDIzLjkyNTI1OTQgQzE2NC45MzA2NzcsMjQuMDU3NzU2OCAxNjQuODg0OTg4LDI0LjE3MDA1NSAxNjQuNzkyNDA4LDI0LjI2MjE1MzkgQzE2NC42OTk4MjgsMjQuMzU0NzMzOCAxNjQuNTg3NTMsMjQuNDAwOTAzNSAxNjQuNDU1MjczLDI0LjQwMDkwMzUgTDE1NC4zNjgzOTYsMjQuNDAwOTAzNSBDMTU0LjIzNjM3OSwyNC40MDA5MDM1IDE1NC4xMjM2LDI0LjM1NDczMzggMTU0LjAzMTc0MiwyNC4yNjIxNTM5IEMxNTMuOTM5MTYyLDI0LjE3MDA1NSAxNTMuODkyNTExLDI0LjA1Nzc1NjggMTUzLjg5MjUxMSwyMy45MjUyNTk0IEwxNTMuODkyNTExLDEwLjM3MDM2NDEgQzE1My44OTI1MTEsMTAuMjM4MzQ3NiAxNTMuOTM5MTYyLDEwLjEyNTgwOSAxNTQuMDMxNzQyLDEwLjAzMzQ2OTYgQzE1NC4xMjM2LDkuOTQxMTMwMiAxNTQuMjM2Mzc5LDkuODk0NDc5NTYgMTU0LjM2ODM5Niw5Ljg5NDQ3OTU2IEwxNjQuNDU1MjczLDkuODk0NDc5NTYgWiBNNDUuNzUxNTI4NywxMy41ODA1MDUgTDQ0LjI2NDk2MDUsMTMuNTgwNTA1IEM0NC4xMzI5NDQsMTMuNTgwNTA1IDQ0LjAyMDY0NTgsMTMuNjI3MTU1NiA0My45MjgwNjYsMTMuNzE5MjU0NiBDNDMuODM1NDg2MSwxMy44MTE4MzQ0IDQzLjc4OTU1NjksMTMuOTI0NjEzNSA0My43ODk1NTY5LDE0LjA1NjM4OTYgTDQzLjc4OTU1NjksMjAuMjc4NzE4NyBDNDMuNzg5NTU2OSwyMC40MTEyMTYxIDQzLjgzNTQ4NjEsMjAuNTIzNTE0MyA0My45MjgwNjYsMjAuNjE1ODUzNyBDNDQuMDIwNjQ1OCwyMC43MDg2NzQgNDQuMTMyOTQ0LDIwLjc1NDYwMzIgNDQuMjY0OTYwNSwyMC43NTQ2MDMyIEw0NS43NTE1Mjg3LDIwLjc1NDYwMzIgQzQ2LjEyMTEyNjgsMjAuNzU0NjAzMiA0Ni41MDQ0MzE1LDIwLjcwODY3NCA0Ni45MDA3MjE0LDIwLjYxNTg1MzcgQzQ3LjI5NzAxMTMsMjAuNTIzNTE0MyA0Ny42NTM2MjQyLDIwLjM0ODQ1NDEgNDcuOTcwODAwNCwyMC4wOTA2NzMzIEM0OC4yODc3MzYyLDE5LjgzMzEzMjkgNDguNTQ4NDAyNiwxOS40Njk3ODcgNDguNzUzNzYxNiwxOS4wMDA4NzYgQzQ4Ljk1ODE1ODcsMTguNTMxOTY1IDQ5LjA2MTA3ODcsMTcuOTIwNjk3NCA0OS4wNjEwNzg3LDE3LjE2Nzc5NDYgQzQ5LjA2MTA3ODcsMTYuNDE0NDEwOSA0OC45NTgxNTg3LDE1LjgwMzYyNDIgNDguNzUzNzYxNiwxNS4zMzQ3MTMyIEM0OC41NDg0MDI2LDE0Ljg2NTgwMjEgNDguMjg0MzY5NiwxNC41MDIyMTU3IDQ3Ljk2MDk0MTMsMTQuMjQ0Njc1NCBDNDcuNjM3MjcyNCwxMy45ODY4OTQ1IDQ3LjI4MDY1OTYsMTMuODExODM0NCA0Ni44OTA4NjIyLDEzLjcxOTI1NDYgQzQ2LjUwMTA2NDksMTMuNjI3MTU1NiA0Ni4xMjExMjY4LDEzLjU4MDUwNSA0NS43NTE1Mjg3LDEzLjU4MDUwNSBaIE05NS4xMzU5ODc2LDE1Ljk1ODk2NiBDOTUuMDY5NjE4NywxNS45NTg5NjYgOTUuMDEwMjIzMywxNi4wMTgzNjE0IDk0Ljk1NzgwMTQsMTYuMTM3MzkyNiBMOTMuOTY2ODM2MSwxOC41MzUwOTEgQzkzLjkxMzkzMzQsMTguNjU0MTIyMyA5My45MTM5MzM0LDE4Ljc1NjMyMDkgOTMuOTY2ODM2MSwxOC44NDI0MDgxIEM5NC4wMTkyNTgsMTguOTI4MjU0OSA5NC4xMTg4MTE0LDE4Ljk3MTA1ODEgOTQuMjY0Mjk0MSwxOC45NzEwNTgxIEw5Ni4wMjc4ODA1LDE4Ljk3MTA1ODEgQzk2LjE1OTg5NjksMTguOTcxMDU4MSA5Ni4yNTU4NDM0LDE4LjkyODI1NDkgOTYuMzE1MjM4NywxOC44NDI0MDgxIEM5Ni4zNzQ2MzQxLDE4Ljc1NjMyMDkgOTYuMzcxMDI3MSwxOC42NTQxMjIzIDk2LjMwNTM3OTYsMTguNTM1MDkxIEM5Ni4xNzMzNjMxLDE4LjIwNDY4OTEgOTYuMDE0NDE0MywxNy44MTg0OTg4IDk1LjgyOTQ5NSwxNy4zNzU1NTgyIEM5NS42NDQzMzUzLDE2LjkzMzA5ODYgOTUuNDcyNjQxNywxNi41MjA0NTY5IDk1LjMxNDQxNDMsMTYuMTM3MzkyNiBDOTUuMjYxNTExNSwxNi4wMTgzNjE0IDk1LjIwMjExNjEsMTUuOTU4OTY2IDk1LjEzNTk4NzYsMTUuOTU4OTY2IFogTTEzMC4xMTI0NywxNS45NTg5NjYgQzEzMC4wNDYxMDEsMTUuOTU4OTY2IDEyOS45ODY5NDYsMTYuMDE4MzYxNCAxMjkuOTM0NTI0LDE2LjEzNzM5MjYgTDEyOC45NDM1NTksMTguNTM1MDkxIEMxMjguODkwNjU2LDE4LjY1NDEyMjMgMTI4Ljg5MDY1NiwxOC43NTYzMjA5IDEyOC45NDM1NTksMTguODQyNDA4MSBDMTI4Ljk5NTc0LDE4LjkyODI1NDkgMTI5LjA5NTUzNCwxOC45NzEwNTgxIDEyOS4yNDA3NzYsMTguOTcxMDU4MSBMMTMxLjAwNDM2MywxOC45NzEwNTgxIEMxMzEuMTM2NjIsMTguOTcxMDU4MSAxMzEuMjMyNTY2LDE4LjkyODI1NDkgMTMxLjI5MTcyMSwxOC44NDI0MDgxIEMxMzEuMzUxMTE2LDE4Ljc1NjMyMDkgMTMxLjM0Nzc1LDE4LjY1NDEyMjMgMTMxLjI4MTg2MiwxOC41MzUwOTEgQzEzMS4xNDk4NDUsMTguMjA0Njg5MSAxMzAuOTkwODk3LDE3LjgxODQ5ODggMTMwLjgwNTk3NywxNy4zNzU1NTgyIEMxMzAuNjIwODE4LDE2LjkzMzA5ODYgMTMwLjQ0OTEyNCwxNi41MjA0NTY5IDEzMC4yOTExMzcsMTYuMTM3MzkyNiBDMTMwLjIzNzk5NCwxNi4wMTgzNjE0IDEzMC4xNzg1OTgsMTUuOTU4OTY2IDEzMC4xMTI0NywxNS45NTg5NjYgWiIvPiYjeGE7ICAgICAgICA8cGF0aCBmaWxsPSIjMDBBREQ0IiBpZD0iR2xweWgiIGQ9Ik0zNC41NTkyNzE3LDI4LjA5Mjg0NDQgTDE4LjUzNzkwNDUsMC42OTk3ODM1OCBDMTguMTc5NjA4NCwwLjA4NzMxMzYzNzkgMTcuMjk0NDQ4NiwwLjA4NzMxMzYzNzkgMTYuOTM2MTUyNSwwLjY5OTc4MzU4IEwzLjMyMDY1OTU3LDIzLjk3ODkzMTYgQzMuMDgxMzk0NzEsMjQuMzg4NDQ3MyAzLjUxMzI3Mzc5LDI0Ljg2MTIwNTggMy45NDI1MDc3MywyNC42NTk5MzQ3IEM0LjExODc3MDE4LDI0LjU3Njk3MzUgNC4zMjIyMDU0MywyNC40OTM1MzE0IDQuNTQ1NTk5NDUsMjQuNDEwMzI5OCBMNC41NDEwMzA1NywyNC40MTk0Njc1IEM0LjU0MTAzMDU3LDI0LjQxOTQ2NzUgNC45MTMwMzMzMiwyNC4yNzUxODcyIDUuNTQxNjE0NTcsMjQuMDc2MDgwNCBDNi4yMzQ0MDA1NSwyMy44NjMyNjY5IDYuOTkzNTU1NDgsMjMuNjYxNzU1NCA3LjY4MDgxMDcyLDIzLjQ5MTUwNDYgQzkuNjAzODI2ODYsMjMuMDQ3NjAyMiAxMi4xMjM2ODI2LDIyLjY4NjE4IDE0LjM5NTg1NzEsMjMuMDYzNDczIEMxNi40ODY5NTk4LDIzLjQxMDQ2NzIgMTcuOTQzMjI5MSwyMy45NzA5OTYyIDE5LjAwMzkyOTksMjQuNTIxOTA2NiBDMTkuNDkwMTU0NiwyNC43NzQ4NzggMTkuOTQ5NDQ2OSwyNC4xNDAwNDQ3IDE5LjU1NjI4MzEsMjMuNzU3OTQyMyBDMTguMDM1NTY4NSwyMi4yODAwMzA5IDE1LjY5NTU4MjMsMjAuNDk2MDA0OCAxMi4xMzY0MjczLDE5Ljc0ODM5MjMgQzExLjk4MDYwNDYsMTkuNzE1Njg4OCAxMS45MDI0NTI4LDE5LjUzOTkwNzIgMTEuOTgzMDA5MywxOS40MDIzNiBMMTcuMzQzMjYzNSwxMC4yMzc0MzM5IEMxNy41MTk1MjU5LDkuOTM2MzY4OTUgMTcuOTU0NTMxMSw5LjkzNjM2ODk1IDE4LjEzMDc5MzUsMTAuMjM3NDMzOSBMMjguMzY3OTYyOSwyNy43NDA4MDA0IEMyOC41ODM2NjIsMjguMTA5NDM2NiAyOC40MDI4MzA2LDI4LjU4MDI3MTQgMjcuOTk3ODgzOSwyOC43MTU4OTQ5IEMyNy4xOTU2ODUzLDI4Ljk4NDAxNTggMjYuMjM3NDIzNiwyOS4xODQ1NjU0IDI1LjE2NDY5OTQsMjkuMTg0NTY1NCBDMjQuNDgyMjUzNSwyOS4xODQ1NjU0IDIzLjc5NTcxOTcsMjkuMTA0MDA4OSAyMy4xMDc1MDI2LDI4Ljk0NDA5ODIgQzIzLjEwNzAyMTYsMjguOTQ0MDk4MiAyMS4xMjM2NDgyLDI4LjYzMTAxIDE4LjQ3MjAxNjUsMjcuMDQ4OTc2MyBDMTUuODIwMzg0NywyNS40NjcxODMxIDEwLjcwNzgxMTcsMjMuNDQ5MTgyNCA0Ljk3MDk4NTkyLDI2LjcxNjE2OTcgQzIuNTI2NjM2ODksMjguMjg2OTAxNCAwLjg5Nzk1MjU5NCwzMC40MzUyMzUzIDAuMDM5NzI1MTgwNCwzMS43ODQwMTU4IEMtMC4wOTQ2OTU5ODA4LDMxLjk5NTE0NiAwLjEzNzM1NDg2MSwzMi4yNDY5MTUxIDAuMzU4MTAzNzQ0LDMyLjEyOTA4NjIgQzIuMzI5MjEzMzMsMzEuMDc2MDgwNCA3LjY0Mzc3ODc3LDI4LjU4OTE2ODcgMTIuNDMyNjgyOSwyOS40ODMyMjU3IEMxNS4yNzkwOTMxLDMwLjAxNDQxNzcgMTguNTMxODkyOCwzMi4xNjMyMzI2IDIxLjkxMzM0MjUsMzMuMzk1Mzg2NSBDMjcuNTA3MDkwMywzNS40NjgyMTM3IDMyLjk5MTE4NTIsMzEuOTk1Mzg2NSAzMy4wMDI5NjgxLDMxLjk4NzkzMiBDMzMuNTgyNzM0NSwzMS42MDQ4Njc3IDMzLjkyMzIzNiwzMS4zMTM2NjIgMzMuOTgxMTg4NiwzMS4yNjMxNjM5IEwzNC4wNTExNjQ1LDMxLjIwMjA4NTIgQzM0Ljk0NDk4MTEsMzAuNDIyMDA5NiAzNS4xNTgyNzU1LDI5LjExNjc1MzcgMzQuNTU5MjcxNywyOC4wOTI4NDQ0Ii8+JiN4YTsgICAgPC9nPiYjeGE7PC9zdmc+;" vertex="1" parent="1">
          <mxGeometry x="567" y="272.5" width="166" height="35" as="geometry" />
        </mxCell>
      </root>
    </mxGraphModel>
  </diagram>
</mxfile>
